<?xml version="1.0" encoding="UTF-8" standalone="no"?><!DOCTYPE svg PUBLIC "-//W3C//DTD SVG 1.1//EN" "http://www.w3.org/Graphics/SVG/1.1/DTD/svg11.dtd"><svg width="100%" height="100%" viewBox="0 0 1262 481" version="1.1" xmlns="http://www.w3.org/2000/svg" xmlns:xlink="http://www.w3.org/1999/xlink" xml:space="preserve" xmlns:serif="http://www.serif.com/" style="fill-rule:evenodd;clip-rule:evenodd;stroke-linejoin:round;stroke-miterlimit:2;"><g id="Grupo_28009"><rect x="-1" y="0" width="1263" height="479" style="fill:#ffb74d;"/><g id="Grupo_26413" opacity="0.51"><g id="Grupo_26401" opacity="0.5"><path id="Trazado_1185" d="M399.727,131.403l-0,-120.747l-75.777,89.5l-0,148.837l-48.818,-0l0,-213.297l-12.416,0l-35.35,-35.696l-35.542,35.7l-12.204,0l-0,287.846l-179.621,-0l-0,156.778l518.1,0l0,-348.921l-118.372,0Zm-137.011,76.533l-70.683,0l-0,-7.8l70.683,0l0,7.8Zm0,-15.574l-70.683,0l-0,-7.8l70.683,0l0,7.8Zm0,-15.574l-70.683,0l-0,-7.785l70.683,0l0,7.785Zm0,-15.572l-70.683,0l-0,-7.787l70.683,0l0,7.787Zm0,-15.557l-70.683,0l-0,-7.8l70.683,0l0,7.8Zm0,-15.574l-70.683,0l-0,-7.8l70.683,-0l0,7.8Zm0,-15.572l-70.683,0l-0,-7.787l70.683,0l0,7.787Zm0,-15.574l-70.683,-0l-0,-7.787l70.683,0l0,7.787Zm0,-15.572l-70.683,-0l-0,-7.787l70.683,0l0,7.787Zm0,-15.557l-70.683,-0l-0,-7.8l70.683,-0l0,7.8Zm0,-15.574l-70.683,-0l-0,-7.79l70.683,0l0,7.79Zm127.4,379.284l-7.335,-0l-0,-383.184l7.333,-8.69l0.002,391.874Z" style="fill:#ffc043;fill-rule:nonzero;"/><path id="Trazado_1186" d="M978.029,131.403l0,-120.747l-75.774,89.5l0,148.837l-48.821,-0l0,-213.297l-12.413,0l-35.349,-35.7l-35.54,35.7l-12.209,0l0,287.85l-179.621,-0l0,156.778l518.1,-0l0,-348.921l-118.373,-0Zm-137.008,76.533l-70.683,-0l0,-7.8l70.683,-0l0,7.8Zm0,-15.574l-70.683,-0l0,-7.8l70.683,-0l0,7.8Zm0,-15.574l-70.683,-0l0,-7.785l70.683,-0l0,7.785Zm0,-15.572l-70.683,-0l0,-7.787l70.683,-0l0,7.787Zm0,-15.557l-70.683,-0l0,-7.8l70.683,-0l0,7.8Zm0,-15.574l-70.683,-0l0,-7.8l70.683,-0l0,7.8Zm0,-15.572l-70.683,-0l0,-7.787l70.683,-0l0,7.787Zm0,-15.574l-70.683,-0l0,-7.787l70.683,-0l0,7.787Zm0,-15.572l-70.683,-0l0,-7.787l70.683,-0l0,7.787Zm0,-15.557l-70.683,-0l0,-7.8l70.683,-0l0,7.8Zm0,-15.574l-70.683,-0l0,-7.79l70.683,-0l0,7.79Zm127.4,379.284l-7.336,-0l0,-383.184l7.334,-8.69l0.002,391.874Z" style="fill:#fcb61a;fill-rule:nonzero;"/><path id="Trazado_1187" d="M741.44,333.476l0,-274.243l-11.38,0l0,-27.747l-88.021,0l-0,27.747l-11.313,0l-0,344.768l-82.607,0l-0,-156.135l-120.3,-0l-0,204.883l-58.12,0l-0,-367l-118.49,-0l-0,281.962l-13.912,0l-0,-167.841l-21.428,0l-59.756,-34.276l-0,34.276l-13.073,0l-0,207.289l-29.014,0l-0,-280.718l-29.343,0l-0,-98.483l-4.017,0l-0,98.483l-29.342,0l-0,354.442l764.254,0l-0,-147.407l-74.138,0Zm-634.487,-26.655l-48.413,0l-0,-6.1l48.413,0l-0,6.1Zm-0,-14.117l-48.413,-0l-0,-6.1l48.413,-0l-0,6.1Zm-0,-14.136l-48.413,0l-0,-6.1l48.413,0l-0,6.1Zm-0,-14.117l-48.413,-0l-0,-6.1l48.413,-0l-0,6.1Zm-0,-14.117l-48.413,-0l-0,-6.1l48.413,-0l-0,6.1Zm-0,-14.139l-48.413,-0l-0,-6.1l48.413,-0l-0,6.1Zm-0,-14.117l-48.413,-0l-0,-6.1l48.413,-0l-0,6.1Zm-0,-14.117l-48.413,-0l-0,-6.1l48.413,-0l-0,6.1Zm-0,-14.136l-48.413,-0l-0,-6.1l48.413,-0l-0,6.1Zm-0,-14.117l-48.413,-0l-0,-6.1l48.413,-0l-0,6.1Zm-0,-14.117l-48.413,-0l-0,-6.1l48.413,-0l-0,6.1Zm-0,-14.136l-48.413,-0l-0,-6.1l48.413,-0l-0,6.1Zm-0,-14.117l-48.413,-0l-0,-6.1l48.413,-0l-0,6.1Zm169.779,84.069l-14.417,-0l-0,-15.635l14.417,-0l-0,15.635Zm-0,-26.083l-14.417,-0l-0,-15.653l14.417,-0l-0,15.653Zm-0,-26.1l-14.417,-0l-0,-15.634l14.417,-0l-0,15.634Zm-0,-26.081l-14.417,-0l-0,-15.655l14.417,-0l-0,15.655Zm-0,-26.1l-14.417,-0l-0,-15.656l14.417,-0l-0,15.656Zm27.38,104.367l-14.4,-0l-0,-15.638l14.4,-0l-0,15.638Zm-0,-26.083l-14.4,-0l-0,-15.656l14.4,-0l-0,15.656Zm-0,-26.1l-14.4,-0l-0,-15.637l14.4,-0l-0,15.637Zm-0,-26.081l-14.4,-0l-0,-15.658l14.4,-0l-0,15.658Zm-0,-26.1l-14.4,-0l-0,-15.659l14.4,-0l-0,15.659Zm27.4,104.367l-14.415,-0l0,-15.641l14.41,-0l0.005,15.641Zm-0,-26.083l-14.415,-0l0,-15.659l14.41,-0l0.005,15.659Zm-0,-26.1l-14.415,-0l0,-15.64l14.41,-0l0.005,15.64Zm-0,-26.081l-14.415,-0l0,-15.661l14.41,-0l0.005,15.661Zm-0,-26.1l-14.415,-0l0,-15.662l14.41,-0l0.005,15.662Zm27.38,104.367l-14.4,-0l0,-15.644l14.4,-0l0,15.644Zm0,-26.083l-14.4,-0l0,-15.662l14.4,-0l0,15.662Zm0,-26.1l-14.4,-0l0,-15.643l14.4,-0l0,15.643Zm0,-26.081l-14.4,-0l0,-15.664l14.4,-0l0,15.664Zm393.9,319.4l-14.98,-0l-0,-16.279l14.98,-0l-0,16.279Zm-0,-32.577l-14.98,-0l-0,-16.279l14.98,-0l-0,16.279Zm-0,-32.579l-14.98,-0l-0,-16.279l14.98,-0l-0,16.279Zm-0,-32.577l-14.98,-0l-0,-16.279l14.98,-0l-0,16.279Zm27.8,97.733l-14.98,-0l-0,-16.279l14.98,-0l-0,16.279Zm-0,-32.577l-14.98,-0l-0,-16.279l14.98,-0l-0,16.279Zm-0,-32.579l-14.98,-0l-0,-16.279l14.98,-0l-0,16.279Zm-0,-32.577l-14.98,-0l-0,-16.279l14.98,-0l-0,16.279Zm27.8,97.733l-15,-0l-0,-16.279l15,-0l-0,16.279Zm-0,-32.577l-15,-0l-0,-16.279l15,-0l-0,16.279Zm-0,-32.579l-15,-0l-0,-16.279l15,-0l-0,16.279Zm-0,-32.577l-15,-0l-0,-16.279l15,-0l-0,16.279Z" style="fill:#f7a500;fill-rule:nonzero;"/><path id="Trazado_1188" d="M1136.16,304.333l0,-245.1l-11.38,0l0,-27.747l-88.021,-0l0,27.747l-11.313,0l0,344.768l-82.607,0l0,-156.135l-120.3,-0l0,204.883l-58.119,-0l0,-367l-118.491,-0l0,281.962l-13.909,-0l0,-167.841l-21.434,-0l-59.756,-34.276l0,34.276l-13.07,-0l0,207.289l-29.014,-0l0,-280.718l-29.343,-0l0,-98.483l-4.017,-0l0,98.483l-29.342,-0l0,354.442l764.254,-0l0,-176.55l-74.138,-0Zm-634.487,2.483l-48.413,-0l0,-6.1l48.413,-0l0,6.1Zm0,-14.117l-48.413,-0l0,-6.1l48.413,-0l0,6.1Zm0,-14.136l-48.413,-0l0,-6.1l48.413,-0l0,6.1Zm0,-14.117l-48.413,-0l0,-6.1l48.413,-0l0,6.1Zm0,-14.117l-48.413,-0l0,-6.1l48.413,-0l0,6.1Zm0,-14.139l-48.413,-0l0,-6.1l48.413,-0l0,6.1Zm0,-14.117l-48.413,-0l0,-6.1l48.413,-0l0,6.1Zm0,-14.117l-48.413,-0l0,-6.1l48.413,-0l0,6.1Zm0,-14.136l-48.413,-0l0,-6.1l48.413,-0l0,6.1Zm0,-14.117l-48.413,-0l0,-6.1l48.413,-0l0,6.1Zm0,-14.117l-48.413,-0l0,-6.1l48.413,-0l0,6.1Zm0,-14.136l-48.413,-0l0,-6.1l48.413,-0l0,6.1Zm0,-14.117l-48.413,-0l0,-6.1l48.413,-0l0,6.1Zm169.779,84.069l-14.415,-0l0,-15.63l14.415,-0l0,15.63Zm0,-26.083l-14.415,-0l0,-15.648l14.415,-0l0,15.648Zm0,-26.1l-14.415,-0l0,-15.629l14.415,-0l0,15.629Zm0,-26.081l-14.415,-0l0,-15.65l14.415,-0l0,15.65Zm0,-26.1l-14.415,-0l0,-15.651l14.415,-0l0,15.651Zm27.38,104.367l-14.4,-0l0,-15.633l14.4,-0l0,15.633Zm0,-26.083l-14.4,-0l0,-15.651l14.4,-0l0,15.651Zm0,-26.1l-14.4,-0l0,-15.632l14.4,-0l0,15.632Zm0,-26.081l-14.4,-0l0,-15.653l14.4,-0l0,15.653Zm0,-26.1l-14.4,-0l0,-15.654l14.4,-0l0,15.654Zm27.4,104.367l-14.42,-0l0,-15.636l14.415,-0l0.005,15.636Zm0,-26.083l-14.42,-0l0,-15.654l14.415,-0l0.005,15.654Zm0,-26.1l-14.42,-0l0,-15.635l14.415,-0l0.005,15.635Zm0,-26.081l-14.42,-0l0,-15.656l14.415,-0l0.005,15.656Zm0,-26.1l-14.42,-0l0,-15.657l14.415,-0l0.005,15.657Zm27.38,104.367l-14.4,-0l0,-15.639l14.4,-0l0,15.639Zm0,-26.083l-14.4,-0l0,-15.657l14.4,-0l0,15.657Zm0,-26.1l-14.4,-0l0,-15.638l14.4,-0l0,15.638Zm0,-26.081l-14.4,-0l0,-15.659l14.4,-0l0,15.659Zm401.5,276.209l-12.942,-0l0,-14.045l12.933,-0l0.009,14.045Zm0,-28.124l-12.942,-0l0,-14.047l12.933,-0l0.009,14.047Zm0,-28.126l-12.942,-0l0,-14.045l12.933,-0l0.009,14.045Zm0,-28.124l-12.942,-0l0,-14.049l12.933,-0l0.009,14.049Zm24,84.374l-12.933,-0l0,-14.045l12.933,-0l0,14.045Zm0,-28.124l-12.933,-0l0,-14.047l12.933,-0l0,14.047Zm0,-28.126l-12.933,-0l0,-14.045l12.933,-0l0,14.045Zm0,-28.124l-12.933,-0l0,-14.049l12.933,-0l0,14.049Zm24,84.374l-12.962,-0l0,-14.045l12.947,-0l0.015,14.045Zm0,-28.124l-12.962,-0l0,-14.047l12.947,-0l0.015,14.047Zm0,-28.126l-12.962,-0l0,-14.045l12.947,-0l0.015,14.045Zm0,-28.124l-12.962,-0l0,-14.049l12.947,-0l0.015,14.049Z" style="fill:#f7a500;fill-rule:nonzero;"/><rect id="Rectángulo_2675" x="1210.3" y="366.515" width="51.325" height="114.368" style="fill:#fcb61a;"/></g></g></g></svg>