<svg xmlns="http://www.w3.org/2000/svg" width="52.463" height="40.869" viewBox="0 0 52.463 40.869">
  <g id="buscador-web" transform="translate(0 -56.571)">
    <g id="Grupo_26468" data-name="Grupo 26468" transform="translate(0 56.571)">
      <path id="Trazado_1286" data-name="Trazado 1286" d="M422.248,229.919a2.63,2.63,0,0,0,3.867,2.323l.7.7a.768.768,0,0,0,1.087-1.087l-.7-.7a2.631,2.631,0,1,0-4.954-1.236Zm3.726,0a1.089,1.089,0,0,1-.292.742l-.032.029c-.01.01-.019.021-.029.032a1.093,1.093,0,1,1,.353-.8Z" transform="translate(-378.982 -209.794)" fill="#ff9800"/>
      <path id="Trazado_1287" data-name="Trazado 1287" d="M51.694,70.751h-2.1a.768.768,0,1,0,0,1.537h1.335v9.435H41.491V72.288H46a.768.768,0,0,0,0-1.537h-.315a20.605,20.605,0,0,0-7.036-9.972,20.248,20.248,0,0,0-12.3-4.207c-.087,0,0,0-.246,0a20.418,20.418,0,0,0-10.374,2.9.769.769,0,0,0,.791,1.318,18.782,18.782,0,0,1,4.583-1.973,16.8,16.8,0,0,0-3.893,6.141H11.676a19.015,19.015,0,0,1,2.07-2.135.768.768,0,0,0-1.015-1.154,20.389,20.389,0,0,0-5.958,9.085h-6A.769.769,0,0,0,0,71.52V82.492a.769.769,0,0,0,.768.768h6a20.605,20.605,0,0,0,7.036,9.972,20.248,20.248,0,0,0,12.3,4.207c.04,0,.06,0,.246,0a20.248,20.248,0,0,0,12.3-4.207A20.605,20.605,0,0,0,45.69,83.26h6a.769.769,0,0,0,.768-.768V71.52A.769.769,0,0,0,51.694,70.751Zm-10.972,0h-3.9A31.191,31.191,0,0,0,35.8,66.492h6.131a18.657,18.657,0,0,1,2.142,4.259Zm-23.526,0a28.825,28.825,0,0,1,1.1-4.259h7.17v4.259ZM27,66.492h7.17a28.837,28.837,0,0,1,1.1,4.259H27Zm0-8.321c2.579.421,4.949,2.945,6.581,6.784H27Zm13.77,6.784H35.249a16.836,16.836,0,0,0-3.874-6.123,19.129,19.129,0,0,1,9.395,6.123ZM25.463,58.172v6.783H18.882C20.513,61.119,22.882,58.6,25.463,58.172Zm-14.936,8.32h6.14a31.187,31.187,0,0,0-1.032,4.259H8.4A18.791,18.791,0,0,1,10.527,66.492ZM9.208,81.723H1.537V72.288H39.954v9.435H12.794a.768.768,0,0,0,0,1.537h2.842a31.191,31.191,0,0,0,1.032,4.259H10.537A18.657,18.657,0,0,1,8.394,83.26h.813a.768.768,0,0,0,0-1.537Zm16.255,7.333V95.84c-2.579-.421-4.949-2.945-6.581-6.784Zm-7.17-1.537a28.838,28.838,0,0,1-1.1-4.259h8.266V87.52ZM27,95.839V89.057h6.581C31.95,92.893,29.581,95.416,27,95.839Zm0-8.32V83.26h8.266a28.825,28.825,0,0,1-1.1,4.259H27ZM11.693,89.057h5.521a16.836,16.836,0,0,0,3.874,6.123,19.129,19.129,0,0,1-9.395-6.123Zm19.68,6.124a16.828,16.828,0,0,0,3.876-6.124H40.77A19.128,19.128,0,0,1,31.372,95.181ZM41.926,87.52H35.8a31.187,31.187,0,0,0,1.032-4.259h7.241A18.659,18.659,0,0,1,41.926,87.52Z" transform="translate(0 -56.571)" fill="#ff9800"/>
    </g>
  </g>
</svg>
