<svg xmlns="http://www.w3.org/2000/svg" width="52.463" height="55.958" viewBox="0 0 52.463 55.958">
  <g id="monitor" transform="translate(0 0)">
    <path id="Trazado_1280" data-name="Trazado 1280" d="M52.253,216.737h8.288a1.093,1.093,0,0,0,0-2.186H52.253a1.093,1.093,0,0,0,0,2.186Zm0,0" transform="translate(-45.569 -191.102)" fill="#ff9800"/>
    <path id="Trazado_1281" data-name="Trazado 1281" d="M52.253,264.741H61.27a1.093,1.093,0,0,0,0-2.186H52.253a1.093,1.093,0,0,0,0,2.186Zm0,0" transform="translate(-45.569 -233.86)" fill="#ff9800"/>
    <path id="Trazado_1282" data-name="Trazado 1282" d="M176.011,264.737a1.093,1.093,0,1,0-.773-.32A1.1,1.1,0,0,0,176.011,264.737Zm0,0" transform="translate(-155.801 -233.856)" fill="#ff9800"/>
    <path id="Trazado_1283" data-name="Trazado 1283" d="M199.649,61.236a9.618,9.618,0,1,0-9.618-9.618A9.629,9.629,0,0,0,199.649,61.236Zm0-17.05a7.432,7.432,0,1,1-7.432,7.432A7.441,7.441,0,0,1,199.649,44.186Zm0,0" transform="translate(-169.262 -37.41)" fill="#ff9800"/>
    <path id="Trazado_1284" data-name="Trazado 1284" d="M51.379,29.96l-1.321-1.321V13.769A5.472,5.472,0,0,0,44.593,8.3H43.31a14.206,14.206,0,0,0-25.845,0h-12A5.471,5.471,0,0,0,0,13.769V41.311a5.471,5.471,0,0,0,5.465,5.465h14.1V49.4A5.47,5.47,0,0,0,14.2,54.865,1.093,1.093,0,0,0,15.3,55.957h19.46a1.093,1.093,0,0,0,1.093-1.093A5.47,5.47,0,0,0,30.49,49.4V46.777h14.1a5.471,5.471,0,0,0,5.465-5.465V36.052A3.708,3.708,0,0,0,51.38,29.96ZM44.593,10.49a3.283,3.283,0,0,1,3.279,3.279V26.452L42.7,21.285A14.2,14.2,0,0,0,44.1,10.49Zm-14.206-8.3A12.023,12.023,0,1,1,18.365,14.208,12.036,12.036,0,0,1,30.387,2.186ZM5.465,10.49H16.674a14.218,14.218,0,0,0,.078,7.712H6.685a1.093,1.093,0,1,0,0,2.186h10.91a14.2,14.2,0,0,0,19.869,6.138L46.138,35.2a3.684,3.684,0,0,0,1.734.979v.979H2.186V13.769A3.283,3.283,0,0,1,5.465,10.49Zm28.01,43.282h-16.9a3.284,3.284,0,0,1,3.092-2.186H30.383A3.285,3.285,0,0,1,33.475,53.772ZM28.3,49.4H21.746V46.777H28.3Zm16.289-4.809H5.465a3.283,3.283,0,0,1-3.279-3.279V39.344H47.872v1.967a3.283,3.283,0,0,1-3.279,3.279Zm5.24-10.936a1.522,1.522,0,0,1-2.15,0L39.3,25.268a14.292,14.292,0,0,0,2.15-2.15l8.387,8.387A1.522,1.522,0,0,1,49.834,33.655Zm0,0" transform="translate(0 0)" fill="#ff9800"/>
    <path id="Trazado_1285" data-name="Trazado 1285" d="M269.128,87.194a2.735,2.735,0,0,1,2.732,2.732,1.093,1.093,0,0,0,2.186,0,4.923,4.923,0,0,0-4.918-4.918,1.093,1.093,0,1,0,0,2.186Zm0,0" transform="translate(-238.741 -75.717)" fill="#ff9800"/>
  </g>
</svg>
