<svg xmlns="http://www.w3.org/2000/svg" xmlns:xlink="http://www.w3.org/1999/xlink" width="112" height="119" viewBox="0 0 112 119">
  <defs>
    <linearGradient id="linear-gradient" x1="0.5" x2="0.5" y2="1" gradientUnits="objectBoundingBox">
      <stop offset="0" stop-color="#ffb74d"/>
      <stop offset="1" stop-color="#ef6034"/>
    </linearGradient>
  </defs>
  <g id="Grupo_27999" data-name="Grupo 27999" transform="translate(-197 -1292)">
    <rect id="Rectángulo_3065" data-name="Rectángulo 3065" width="112" height="119" rx="10" transform="translate(197 1292)" fill="url(#linear-gradient)"/>
    <g id="Grupo_27659" data-name="Grupo 27659" transform="translate(-275.075 620.55)">
      <g id="Grupo_27633" data-name="Grupo 27633" transform="translate(489.929 704.117)">
        <g id="Grupo_27632" data-name="Grupo 27632" transform="translate(0)">
          <path id="Trazado_1966" data-name="Trazado 1966" d="M516.252,759.161H496.811a1.3,1.3,0,0,1-1.3-1.3V723.014l-4.936-2.909a1.3,1.3,0,0,1-.642-1.123v-13.56a1.3,1.3,0,0,1,1.3-1.3H498a1.3,1.3,0,0,1,1.3,1.3v2.528a1.265,1.265,0,1,0,2.529,0v-2.528a1.3,1.3,0,0,1,1.3-1.3h6.769a1.3,1.3,0,0,1,1.3,1.3v2.528a1.264,1.264,0,1,0,2.529,0v-2.528a1.3,1.3,0,0,1,1.3-1.3h6.785a1.3,1.3,0,0,1,1.3,1.3V719a1.3,1.3,0,0,1-.645,1.126l-4.936,2.89v34.839A1.3,1.3,0,0,1,516.252,759.161Zm-18.136-2.609h16.832V722.269a1.3,1.3,0,0,1,.645-1.126l4.936-2.89V706.726h-4.177v1.224a3.873,3.873,0,1,1-7.746,0v-1.224h-4.16v1.224a3.873,3.873,0,1,1-7.747,0v-1.224h-4.16v11.511l4.936,2.909a1.3,1.3,0,0,1,.642,1.123Z" transform="translate(-489.929 -704.117)" fill="#fff"/>
        </g>
      </g>
      <g id="Grupo_27635" data-name="Grupo 27635" transform="translate(495.506 720.964)">
        <g id="Grupo_27634" data-name="Grupo 27634" transform="translate(0 0)">
          <path id="Trazado_1967" data-name="Trazado 1967" d="M515.979,773.192h-2.742a1.3,1.3,0,0,1,0-2.609h2.742a1.3,1.3,0,0,1,0,2.609Z" transform="translate(-511.933 -770.583)" fill="#fff"/>
        </g>
      </g>
      <g id="Grupo_27637" data-name="Grupo 27637" transform="translate(512.206 720.964)">
        <g id="Grupo_27636" data-name="Grupo 27636" transform="translate(0 0)">
          <path id="Trazado_1968" data-name="Trazado 1968" d="M581.861,773.192H579.12a1.3,1.3,0,1,1,0-2.609h2.741a1.3,1.3,0,1,1,0,2.609Z" transform="translate(-577.816 -770.583)" fill="#fff"/>
        </g>
      </g>
      <g id="Grupo_27639" data-name="Grupo 27639" transform="translate(538.594 720.964)">
        <g id="Grupo_27638" data-name="Grupo 27638" transform="translate(0 0)">
          <path id="Trazado_1969" data-name="Trazado 1969" d="M685.964,773.192h-2.741a1.3,1.3,0,1,1,0-2.609h2.741a1.3,1.3,0,1,1,0,2.609Z" transform="translate(-681.919 -770.583)" fill="#fff"/>
        </g>
      </g>
      <g id="Grupo_27641" data-name="Grupo 27641" transform="translate(533.013 704.117)">
        <g id="Grupo_27640" data-name="Grupo 27640" transform="translate(0)">
          <path id="Trazado_1970" data-name="Trazado 1970" d="M686.228,759.161h-19.44a1.3,1.3,0,0,1-1.3-1.3V723.017l-4.936-2.89A1.3,1.3,0,0,1,659.9,719V705.421a1.3,1.3,0,0,1,1.3-1.3h6.785a1.3,1.3,0,0,1,1.3,1.3v2.528a1.265,1.265,0,1,0,2.529,0v-2.528a1.3,1.3,0,0,1,1.3-1.3H679.9a1.3,1.3,0,0,1,1.3,1.3v2.528a1.265,1.265,0,1,0,2.529,0v-2.528a1.3,1.3,0,0,1,1.3-1.3h6.769a1.3,1.3,0,0,1,1.3,1.3v13.56a1.3,1.3,0,0,1-.642,1.123l-4.935,2.909v34.842A1.3,1.3,0,0,1,686.228,759.161Zm-18.136-2.609h16.831V722.269a1.3,1.3,0,0,1,.642-1.123l4.936-2.909V706.726h-4.16v1.224a3.874,3.874,0,1,1-7.747,0v-1.224h-4.16v1.224a3.873,3.873,0,1,1-7.747,0v-1.224h-4.176v11.527l4.936,2.89a1.3,1.3,0,0,1,.645,1.126Z" transform="translate(-659.902 -704.117)" fill="#fff"/>
        </g>
      </g>
      <g id="Grupo_27643" data-name="Grupo 27643" transform="translate(555.293 720.964)">
        <g id="Grupo_27642" data-name="Grupo 27642" transform="translate(0 0)">
          <path id="Trazado_1971" data-name="Trazado 1971" d="M751.845,773.192H749.1a1.3,1.3,0,1,1,0-2.609h2.742a1.3,1.3,0,1,1,0,2.609Z" transform="translate(-747.799 -770.583)" fill="#fff"/>
        </g>
      </g>
      <g id="Grupo_27645" data-name="Grupo 27645" transform="translate(522.078 740.569)">
        <g id="Grupo_27644" data-name="Grupo 27644" transform="translate(0)">
          <path id="Trazado_1972" data-name="Trazado 1972" d="M627.452,866.515a1.3,1.3,0,0,1-1.3-1.3V853.923a3.388,3.388,0,1,0-6.775,0v11.288a1.3,1.3,0,0,1-2.609,0V853.923a6,6,0,1,1,11.993,0v11.288A1.3,1.3,0,0,1,627.452,866.515Z" transform="translate(-616.764 -847.926)" fill="#fff"/>
        </g>
      </g>
      <g id="Grupo_27647" data-name="Grupo 27647" transform="translate(514.947 756.552)">
        <g id="Grupo_27646" data-name="Grupo 27646" transform="translate(0)">
          <path id="Trazado_1973" data-name="Trazado 1973" d="M613.579,913.59H589.933a1.3,1.3,0,1,1,0-2.609h23.646a1.3,1.3,0,1,1,0,2.609Z" transform="translate(-588.628 -910.981)" fill="#fff"/>
        </g>
      </g>
      <g id="Grupo_27649" data-name="Grupo 27649" transform="translate(502.519 725.832)">
        <g id="Grupo_27648" data-name="Grupo 27648" transform="translate(0 0)">
          <path id="Trazado_1974" data-name="Trazado 1974" d="M543.613,800.173a4.018,4.018,0,0,1-4.013-4.013V793.8a4.013,4.013,0,1,1,8.027,0v2.36A4.018,4.018,0,0,1,543.613,800.173Zm0-7.778a1.407,1.407,0,0,0-1.4,1.4v2.36a1.4,1.4,0,0,0,2.81,0V793.8A1.407,1.407,0,0,0,543.613,792.395Z" transform="translate(-539.6 -789.786)" fill="#fff"/>
        </g>
      </g>
      <g id="Grupo_27651" data-name="Grupo 27651" transform="translate(545.603 725.832)">
        <g id="Grupo_27650" data-name="Grupo 27650" transform="translate(0 0)">
          <path id="Trazado_1975" data-name="Trazado 1975" d="M713.586,800.173a4.018,4.018,0,0,1-4.013-4.013V793.8a4.014,4.014,0,1,1,8.027,0v2.36A4.018,4.018,0,0,1,713.586,800.173Zm0-7.778a1.407,1.407,0,0,0-1.4,1.4v2.36a1.4,1.4,0,0,0,2.81,0V793.8A1.407,1.407,0,0,0,713.586,792.395Z" transform="translate(-709.573 -789.786)" fill="#fff"/>
        </g>
      </g>
      <g id="Grupo_27653" data-name="Grupo 27653" transform="translate(515.761 721.708)">
        <g id="Grupo_27652" data-name="Grupo 27652" transform="translate(0 0)">
          <path id="Trazado_1976" data-name="Trazado 1976" d="M615.162,781.017a1.3,1.3,0,0,1-.529-.113l-10.479-4.657L593.675,780.9a1.3,1.3,0,0,1-1.06-2.384l11.009-4.893a1.3,1.3,0,0,1,1.059,0l11.009,4.893a1.3,1.3,0,0,1-.531,2.5Z" transform="translate(-591.84 -773.515)" fill="#fff"/>
        </g>
      </g>
      <g id="Grupo_27658" data-name="Grupo 27658" transform="translate(522.674 731.018)">
        <g id="Grupo_27655" data-name="Grupo 27655" transform="translate(0 0)">
          <g id="Grupo_27654" data-name="Grupo 27654">
            <path id="Trazado_1977" data-name="Trazado 1977" d="M620.417,815.1a1.3,1.3,0,0,1-1.3-1.3v-2.242a1.3,1.3,0,0,1,2.609,0v2.242A1.3,1.3,0,0,1,620.417,815.1Z" transform="translate(-619.113 -810.245)" fill="#fff"/>
          </g>
        </g>
        <g id="Grupo_27657" data-name="Grupo 27657" transform="translate(8.193 0)">
          <g id="Grupo_27656" data-name="Grupo 27656">
            <path id="Trazado_1978" data-name="Trazado 1978" d="M652.74,815.1a1.3,1.3,0,0,1-1.3-1.3v-2.242a1.3,1.3,0,0,1,2.609,0v2.242A1.3,1.3,0,0,1,652.74,815.1Z" transform="translate(-651.436 -810.245)" fill="#fff"/>
          </g>
        </g>
      </g>
    </g>
  </g>
</svg>
