<?xml version="1.0" encoding="UTF-8" standalone="no"?><!DOCTYPE svg PUBLIC "-//W3C//DTD SVG 1.1//EN" "http://www.w3.org/Graphics/SVG/1.1/DTD/svg11.dtd"><svg width="100%" height="100%" viewBox="0 0 101 85" version="1.1" xmlns="http://www.w3.org/2000/svg" xmlns:xlink="http://www.w3.org/1999/xlink" xml:space="preserve" xmlns:serif="http://www.serif.com/" style="fill-rule:evenodd;clip-rule:evenodd;stroke-linejoin:round;stroke-miterlimit:2;"><g id="Grupo_27601"></g><g id="Grupo_27602"></g><rect id="Mesa-de-trabajo1" serif:id="Mesa de trabajo1" x="0" y="0" width="101" height="85" style="fill:none;"/><clipPath id="_clip1"><rect x="0" y="0" width="101" height="85"/></clipPath><g clip-path="url(#_clip1)"><path id="Trazado_1849" d="M71.254,43.496c-10.843,0 -19.766,8.993 -19.766,19.922c0,10.929 8.923,19.922 19.766,19.922c10.843,-0 19.766,-8.993 19.766,-19.922c-0,-10.929 -8.923,-19.922 -19.766,-19.922Z" style="fill:#eefaff;fill-rule:nonzero;"/><path id="Trazado_1850" d="M29.746,1.66c-10.843,0 -19.766,8.993 -19.766,19.922c0,10.929 8.923,19.922 19.766,19.922c10.843,-0 19.766,-8.993 19.766,-19.922c-0,-10.929 -8.923,-19.922 -19.766,-19.922Z" style="fill:#eefaff;fill-rule:nonzero;"/><path id="Trazado_1851" d="M83.443,22.578l-9.882,13.281l-9.883,-13.281l3.294,0l-0,-3.321c-0.001,-7.285 -5.949,-13.28 -13.177,-13.28l13.177,-0c7.228,0 13.176,5.995 13.176,13.28l0,3.32l3.295,0.001Z" style="fill:#b3f1ff;fill-rule:nonzero;"/><path id="Trazado_1852" d="M81.137,80.02l-0,0.654c-6.109,3.551 -13.657,3.551 -19.766,-0l0,-0.654c0,-5.465 4.461,-9.961 9.883,-9.961c5.421,-0 9.883,4.496 9.883,9.961Z" style="fill:#ff7b79;fill-rule:nonzero;"/><ellipse id="Elipse_382" cx="71.264" cy="60.134" rx="6.536" ry="6.782" style="fill:#fce8d0;"/><path id="Trazado_1853" d="M47.206,79.023l-13.177,0c-7.228,-0 -13.176,-5.995 -13.176,-13.28l-0,-3.32l-3.295,-0l9.882,-13.282l9.883,13.281l-3.294,-0l0,3.32c0,7.285 5.948,13.281 13.177,13.281Z" style="fill:#b3f1ff;fill-rule:nonzero;"/><path id="Trazado_1854" d="M39.629,38.184l-0,0.654c-6.109,3.551 -13.657,3.551 -19.766,0l0,-0.654c0,-5.464 4.462,-9.961 9.883,-9.961c5.422,0 9.883,4.497 9.883,9.961Z" style="fill:#ffda8f;fill-rule:nonzero;"/><ellipse id="Elipse_383" cx="29.737" cy="18.279" rx="6.536" ry="6.782" style="fill:#c3906d;"/><path id="Trazado_1855" d="M37.981,18.261c0,-4.553 -3.717,-8.3 -8.235,-8.3c-4.518,-0 -8.235,3.747 -8.235,8.3c-0,4.554 3.717,8.301 8.235,8.301c4.516,-0.006 8.23,-3.749 8.235,-8.301Zm-8.235,4.981c-2.711,-0 -4.941,-2.249 -4.941,-4.981c-0,-2.732 2.23,-4.98 4.941,-4.98c2.711,-0 4.941,2.248 4.941,4.98c-0.003,2.732 -2.232,4.978 -4.942,4.981l0.001,-0Z" style="fill-rule:nonzero;"/><path id="Trazado_1856" d="M29.746,43.164c11.747,0 21.413,-9.742 21.413,-21.582c0,-11.839 -9.666,-21.582 -21.413,-21.582c-11.747,-0 -21.413,9.743 -21.413,21.582c0.011,11.836 9.67,21.571 21.413,21.582Zm-8.227,-5.313c0.18,-4.421 3.837,-7.959 8.227,-7.959c4.39,0 8.048,3.538 8.228,7.959c-5.165,2.652 -11.29,2.652 -16.455,0Zm8.219,-34.531l0.02,-0c9.938,-0 18.115,8.242 18.115,18.258c0,5.556 -2.516,10.819 -6.828,14.281c-1.094,-5.388 -5.84,-9.292 -11.297,-9.292c-5.457,0 -10.203,3.904 -11.297,9.292c-4.312,-3.462 -6.828,-8.725 -6.828,-14.281c-0,-10.016 8.177,-18.258 18.115,-18.258Z" style="fill-rule:nonzero;"/><path id="Trazado_1857" d="M79.49,60.097c0,-4.554 -3.717,-8.301 -8.235,-8.301c-4.518,0 -8.235,3.747 -8.235,8.301c-0,4.553 3.717,8.3 8.235,8.3c4.516,-0.005 8.23,-3.749 8.235,-8.3Zm-8.235,4.98c-2.711,0 -4.942,-2.248 -4.942,-4.98c0,-2.732 2.231,-4.981 4.942,-4.981c2.711,0 4.941,2.249 4.941,4.981c-0.003,2.731 -2.232,4.978 -4.942,4.98l0.001,0Z" style="fill-rule:nonzero;"/><path id="Trazado_1858" d="M71.254,41.836c-11.747,-0 -21.413,9.742 -21.413,21.582c-0,11.839 9.666,21.582 21.413,21.582c11.747,0 21.413,-9.743 21.413,-21.582c-0.013,-11.835 -9.671,-21.569 -21.413,-21.582Zm-8.228,37.851c0.18,-4.421 3.838,-7.959 8.228,-7.959c4.39,-0 8.047,3.538 8.227,7.959c-5.165,2.651 -11.29,2.651 -16.455,-0Zm19.527,-1.992c-1.094,-5.388 -5.84,-9.292 -11.297,-9.292c-5.457,-0 -10.203,3.904 -11.297,9.292c-4.308,-3.463 -6.821,-8.724 -6.821,-14.277c-0,-10.018 8.179,-18.261 18.118,-18.261c9.939,-0 18.118,8.243 18.118,18.261c0,5.553 -2.513,10.814 -6.821,14.277Z" style="fill-rule:nonzero;"/><path id="Trazado_1859" d="M47.206,77.363c-6.323,-0.007 -11.523,-5.249 -11.53,-11.621l-0,-1.661l1.647,0c0.903,-0.001 1.646,-0.75 1.646,-1.66c0,-0.359 -0.115,-0.708 -0.328,-0.995l-9.883,-13.281c-0.311,-0.418 -0.8,-0.664 -1.318,-0.664c-0.518,-0 -1.007,0.246 -1.318,0.664l-9.883,13.281c-0.213,0.287 -0.329,0.637 -0.329,0.996c-0,0.91 0.743,1.66 1.647,1.66l1.647,0l0,1.661c0.009,8.193 6.695,14.932 14.824,14.941l13.178,-0c0.014,0 0.027,0 0.04,0c0.904,0 1.648,-0.749 1.648,-1.66c-0,-0.911 -0.744,-1.66 -1.648,-1.66c-0.013,-0 -0.026,-0 -0.04,0l0,-0.001Zm-13.177,0c-6.322,-0.007 -11.523,-5.249 -11.53,-11.621l0,-3.32c0,-0.911 -0.744,-1.661 -1.647,-1.661l6.588,-8.854l6.589,8.854c-0.903,0 -1.647,0.75 -1.647,1.661l-0,3.32c-0.001,4.512 2.03,8.79 5.516,11.621l-3.869,0Z" style="fill-rule:nonzero;"/><path id="Trazado_1860" d="M53.795,7.636c6.322,0.008 11.522,5.249 11.529,11.621l0,1.661l-1.647,-0c-0.904,0 -1.647,0.75 -1.647,1.66c0,0.359 0.116,0.709 0.329,0.996l9.883,13.281c0.311,0.418 0.8,0.664 1.318,0.664c0.518,0 1.007,-0.246 1.318,-0.664l9.883,-13.281c0.213,-0.287 0.329,-0.637 0.329,-0.996c0,-0.91 -0.743,-1.66 -1.647,-1.66l-1.647,-0l-0,-1.661c-0,-0.447 -0.02,-0.896 -0.059,-1.343c-0.063,-0.863 -0.785,-1.539 -1.643,-1.539c-0.904,-0 -1.648,0.749 -1.648,1.66c0,0.059 0.003,0.119 0.01,0.177c0.03,0.346 0.046,0.698 0.046,1.048l-0,3.32c0.002,0.91 0.745,1.658 1.647,1.658l-6.588,8.854l-6.589,-8.854c0.903,-0 1.647,-0.75 1.647,-1.661l0,-3.32c0.001,-4.512 -2.03,-8.79 -5.516,-11.621l3.869,-0c1.307,-0.002 2.604,0.221 3.837,0.658c0.172,0.06 0.352,0.09 0.534,0.09c0.904,-0 1.647,-0.75 1.647,-1.661c0,-0.696 -0.435,-1.322 -1.085,-1.56c-1.585,-0.563 -3.253,-0.849 -4.933,-0.847l-13.177,0c-0.014,-0 -0.027,-0 -0.04,-0c-0.904,-0 -1.648,0.749 -1.648,1.66c0,0.911 0.744,1.66 1.648,1.66c0.013,0 0.026,0 0.04,-0Z" style="fill-rule:nonzero;"/><ellipse id="Elipse_384" cx="77.415" cy="11.109" rx="1.538" ry="1.55"/></g></svg>