<?xml version="1.0" encoding="UTF-8" standalone="no"?><!DOCTYPE svg PUBLIC "-//W3C//DTD SVG 1.1//EN" "http://www.w3.org/Graphics/SVG/1.1/DTD/svg11.dtd"><svg width="100%" height="100%" viewBox="0 0 101 85" version="1.1" xmlns="http://www.w3.org/2000/svg" xmlns:xlink="http://www.w3.org/1999/xlink" xml:space="preserve" xmlns:serif="http://www.serif.com/" style="fill-rule:evenodd;clip-rule:evenodd;stroke-linejoin:round;stroke-miterlimit:2;"><g id="campana"></g><rect id="Mesa-de-trabajo1" serif:id="Mesa de trabajo1" x="0" y="0" width="101" height="85" style="fill:none;"/><clipPath id="_clip1"><rect x="0" y="0" width="101" height="85"/></clipPath><g clip-path="url(#_clip1)"><g><path id="Trazado_1869" d="M76.221,56.049l-53.273,-0l-9.047,15.672c-0.079,0.138 -0.121,0.295 -0.121,0.454c0,0.499 0.411,0.91 0.909,0.91l69.792,-0c0.499,-0 0.91,-0.411 0.91,-0.91c-0,-0.159 -0.042,-0.316 -0.122,-0.454l-9.048,-15.672Z" style="fill:#f6e266;fill-rule:nonzero;"/><path id="Trazado_1870" d="M76.221,56.049c-0.699,-1.211 -1.067,-2.585 -1.067,-3.983l0,-13.965c0.001,-11.018 -7.116,-20.855 -17.581,-24.3c-0.212,-0.067 -0.357,-0.265 -0.357,-0.488c-0,-0.082 0.02,-0.162 0.057,-0.235c0.514,-1.112 0.78,-2.323 0.78,-3.548c-0,-4.644 -3.822,-8.466 -8.466,-8.466c-4.645,0 -8.466,3.822 -8.466,8.466c-0,1.204 0.256,2.393 0.752,3.49c0.037,0.078 0.056,0.163 0.056,0.249c0,0.255 -0.167,0.482 -0.411,0.557c-10.423,3.47 -17.5,13.285 -17.5,24.271l0,13.968c-0.001,1.399 -0.371,2.773 -1.073,3.984l53.276,-0Zm-29.638,-46.518c0,-1.646 1.355,-3 3,-3c1.646,-0 3,1.354 3,3c0,1.646 -1.354,3 -3,3c-1.645,-0 -3,-1.354 -3,-3Z" style="fill:#f1d333;fill-rule:nonzero;"/><path id="Trazado_1871" d="M85.269,71.721l-9.048,-15.672l-4.734,-0l1.654,2.866c0.637,1.1 0.972,2.348 0.972,3.619c-0,3.966 -3.264,7.229 -7.229,7.229c-0.001,-0 -0.002,-0 -0.003,-0l-51.848,-0l-1.133,1.958c-0.079,0.138 -0.121,0.295 -0.121,0.454c0,0.499 0.411,0.91 0.909,0.91l69.794,-0c0.5,-0 0.91,-0.411 0.91,-0.91c0,-0.16 -0.042,-0.317 -0.122,-0.455l-0.001,0.001Z" style="fill:#f4dd45;fill-rule:nonzero;"/><path id="Trazado_1872" d="M57.556,13.799c6.855,4.775 10.948,12.621 10.942,20.975l0,13.965c0.001,1.398 0.369,2.772 1.067,3.983l1.921,3.327l4.734,-0c-0.699,-1.211 -1.067,-2.585 -1.067,-3.983l0,-13.964c0.001,-11.018 -7.116,-20.855 -17.581,-24.3l-0.016,-0.003Z" style="fill:#ecc32e;fill-rule:nonzero;"/><circle id="Elipse_385" cx="74.724" cy="17.663" r="12.499" style="fill:#da4a54;"/><path id="Trazado_1873" d="M76.731,5.321c2.451,2.356 3.837,5.612 3.837,9.011c0,6.857 -5.642,12.499 -12.499,12.5c-0.672,0 -1.343,-0.053 -2.007,-0.16c2.328,2.236 5.433,3.486 8.661,3.486c6.858,0 12.5,-5.642 12.5,-12.5c0,-6.102 -4.468,-11.357 -10.492,-12.337Z" style="fill:#d82e3d;fill-rule:nonzero;"/><path id="Trazado_1874" d="M55.026,73.086l-10.883,-0l-0.6,3.492c-0.059,0.345 -0.089,0.694 -0.089,1.044c-0,3.364 2.769,6.133 6.133,6.133c3.364,-0 6.133,-2.769 6.133,-6.133c-0,-0.35 -0.03,-0.699 -0.09,-1.044l-0.604,-3.492Z" style="fill:#f1d333;fill-rule:nonzero;"/><path id="Trazado_1875" d="M55.6,76.413l-0.574,-3.327l-10.883,-0l-0.574,3.327l12.031,-0Z" style="fill:#ecc32e;fill-rule:nonzero;"/><path id="Trazado_1876" d="M78.089,17.783c-0.031,-0.032 -0.049,-0.074 -0.049,-0.119c0,-0.045 0.018,-0.088 0.049,-0.119l3.451,-3.451c0.157,-0.156 0.244,-0.368 0.244,-0.588c0,-0.221 -0.087,-0.432 -0.244,-0.588l-2.069,-2.069c-0.155,-0.156 -0.367,-0.244 -0.588,-0.244c-0.22,0 -0.432,0.088 -0.588,0.244l-3.451,3.451c-0.031,0.031 -0.074,0.049 -0.119,0.049c-0.044,0 -0.087,-0.018 -0.119,-0.049l-3.451,-3.451c-0.155,-0.156 -0.367,-0.244 -0.588,-0.244c-0.22,0 -0.432,0.088 -0.588,0.244l-2.069,2.069c-0.156,0.156 -0.243,0.367 -0.243,0.588c-0,0.22 0.087,0.432 0.243,0.588l3.451,3.451c0.032,0.031 0.05,0.074 0.05,0.119c-0,0.045 -0.018,0.087 -0.05,0.119l-3.451,3.451c-0.156,0.156 -0.243,0.367 -0.243,0.588c-0,0.22 0.087,0.432 0.243,0.588l2.069,2.069c0.156,0.156 0.368,0.244 0.588,0.244c0.221,-0 0.433,-0.088 0.588,-0.244l3.451,-3.451c0.066,-0.065 0.173,-0.065 0.238,-0l3.451,3.451c0.156,0.156 0.368,0.244 0.588,0.244c0.221,-0 0.433,-0.088 0.588,-0.244l2.069,-2.069c0.157,-0.156 0.244,-0.368 0.244,-0.588c0,-0.221 -0.087,-0.432 -0.244,-0.588l-3.451,-3.451Z" style="fill:#f6f9f9;fill-rule:nonzero;"/><path id="Trazado_1877" d="M78.294,24.479c0.156,0.156 0.368,0.244 0.588,0.244c0.221,-0 0.433,-0.088 0.588,-0.244l2.069,-2.067c0.157,-0.156 0.244,-0.368 0.244,-0.588c0,-0.221 -0.087,-0.432 -0.244,-0.588l-1.977,-1.977c-0.62,1.445 -1.507,2.759 -2.614,3.876l1.346,1.344Z" style="fill:#e7ecf1;fill-rule:nonzero;"/><path id="Trazado_1878" d="M80.282,11.66c0.192,0.879 0.288,1.776 0.287,2.676c0,0.252 -0.007,0.502 -0.022,0.751l0.993,-0.993c0.157,-0.156 0.244,-0.368 0.244,-0.588c0,-0.221 -0.087,-0.432 -0.244,-0.588l-1.258,-1.258Z" style="fill:#e7ecf1;fill-rule:nonzero;"/><path id="Trazado_1879" d="M49.585,13.779c2.33,-0.001 4.247,-1.918 4.247,-4.248c0,-2.331 -1.917,-4.248 -4.248,-4.248c-2.33,-0 -4.247,1.917 -4.248,4.247c0.003,2.33 1.919,4.247 4.249,4.249Zm0,-6c0.962,0 1.752,0.792 1.752,1.753c0,0.962 -0.791,1.753 -1.753,1.753c-0.961,-0 -1.753,-0.791 -1.753,-1.753c0,-0 0,-0.001 0,-0.001c0.001,-0.962 0.793,-1.753 1.754,-1.753l0,0.001Z" style="fill-rule:nonzero;"/><path id="Trazado_1880" d="M25.262,38.101c-0.006,-3.254 0.645,-6.475 1.913,-9.471c0.065,-0.154 0.099,-0.319 0.099,-0.486c-0,-0.685 -0.564,-1.249 -1.249,-1.249c-0.5,0 -0.955,0.302 -1.15,0.763c-1.398,3.304 -2.116,6.856 -2.11,10.444l0,13.964c0,1.166 -0.303,2.312 -0.88,3.326l-0.02,0.034l-3.568,6.179c-0.101,0.184 -0.154,0.391 -0.154,0.602c-0,0.684 0.563,1.248 1.248,1.248c0.436,-0 0.842,-0.229 1.067,-0.602l3.207,-5.555l37.93,-0c0.686,-0 1.25,-0.564 1.25,-1.25c0,-0.686 -0.564,-1.25 -1.25,-1.25l-36.748,-0c0.275,-0.886 0.415,-1.808 0.415,-2.736l0,-13.961Z" style="fill-rule:nonzero;"/><path id="Trazado_1881" d="M44.74,16.586c-0.301,0.615 -0.043,1.368 0.571,1.67c2.683,1.311 5.825,1.317 8.513,0.017c0.419,-0.212 0.684,-0.644 0.684,-1.113c-0,-0.685 -0.563,-1.248 -1.248,-1.248c-0.182,-0 -0.361,0.039 -0.526,0.116c-1.996,0.965 -4.33,0.96 -6.323,-0.012c-0.614,-0.302 -1.368,-0.044 -1.67,0.571l-0.001,-0.001Z" style="fill-rule:nonzero;"/><path id="Trazado_1882" d="M74.725,3.917c-6.18,0.008 -11.633,4.174 -13.266,10.135c-0.895,-0.444 -1.815,-0.837 -2.755,-1.177c0.393,-1.071 0.594,-2.204 0.594,-3.345c0,-5.329 -4.385,-9.714 -9.714,-9.714c-5.328,0 -9.713,4.385 -9.714,9.714c-0.002,1.141 0.199,2.273 0.593,3.344c-5.014,1.807 -9.375,5.075 -12.517,9.381c-0.146,0.209 -0.225,0.459 -0.225,0.715c0,0.684 0.564,1.248 1.248,1.248c0.388,-0 0.753,-0.18 0.989,-0.487c2.979,-4.08 7.159,-7.127 11.954,-8.714c0.754,-0.244 1.268,-0.95 1.268,-1.742c-0,-0.263 -0.057,-0.524 -0.168,-0.764c-0.427,-0.936 -0.648,-1.953 -0.647,-2.981c0,-0 0,-0 0,-0.001c0,-3.959 3.259,-7.218 7.218,-7.218c3.96,0 7.218,3.259 7.218,7.218c0,1.047 -0.227,2.081 -0.667,3.031c-0.215,0.462 -0.223,0.995 -0.022,1.464c0.203,0.459 0.593,0.81 1.07,0.965c1.323,0.435 2.606,0.984 3.833,1.641c-0.536,7.234 4.734,13.715 11.925,14.665c0.643,2.211 0.968,4.503 0.965,6.806l0,13.964c0.001,0.928 0.141,1.85 0.416,2.736l-6.9,-0c-0.685,-0 -1.25,0.564 -1.25,1.25c0,0.686 0.565,1.25 1.25,1.25l8.079,-0l8.4,14.541l-68.627,-0l2.251,-3.9c0.116,-0.194 0.178,-0.415 0.178,-0.641c-0,-0.685 -0.564,-1.248 -1.248,-1.248c-0.451,-0 -0.868,0.244 -1.089,0.637l-2.547,4.407c-0.189,0.328 -0.289,0.7 -0.289,1.079c0,1.183 0.974,2.157 2.157,2.157l27.979,-0l-0.35,2.031c-0.071,0.414 -0.107,0.834 -0.107,1.255c-0,4.049 3.332,7.381 7.381,7.381c4.049,0 7.381,-3.332 7.381,-7.381c-0,-0.421 -0.036,-0.841 -0.108,-1.255l-0.35,-2.032l27.97,-0c1.183,-0 2.157,-0.974 2.157,-2.157c-0,-0.379 -0.1,-0.751 -0.29,-1.079c-10.392,-18 -8.9,-15.414 -9.048,-15.672c-0.589,-1.022 -0.9,-2.181 -0.9,-3.36l0,-13.963c0.002,-2.265 -0.283,-4.522 -0.849,-6.715c7.216,-0.436 12.919,-6.493 12.919,-13.722c-0,-7.541 -6.205,-13.746 -13.746,-13.747Zm-20.327,72.872c0.048,0.274 0.071,0.552 0.071,0.83c0,2.68 -2.205,4.885 -4.885,4.885c-2.679,-0 -4.885,-2.205 -4.885,-4.885c0,-0.278 0.024,-0.556 0.071,-0.83l0.424,-2.456l8.781,-0l0.423,2.456Zm20.327,-47.872c-6.171,-0.001 -11.25,-5.079 -11.25,-11.251c0,-6.172 5.079,-11.251 11.251,-11.251c6.173,-0 11.251,5.079 11.251,11.251c-0.007,6.17 -5.082,11.244 -11.252,11.251Z" style="fill-rule:nonzero;"/><path id="Trazado_1883" d="M83.034,13.506c0.002,-0.552 -0.217,-1.081 -0.609,-1.47l-2.069,-2.069c-0.389,-0.39 -0.919,-0.61 -1.47,-0.61c-0.551,0 -1.081,0.22 -1.471,0.61l-2.687,2.687l-2.694,-2.688c-0.389,-0.39 -0.919,-0.609 -1.47,-0.609c-0.551,-0 -1.081,0.219 -1.471,0.609l-2.069,2.069c-0.39,0.39 -0.609,0.919 -0.609,1.47c0,0.552 0.219,1.081 0.609,1.471l2.688,2.688l-2.688,2.688c-0.805,0.807 -0.805,2.133 0,2.94l2.069,2.069c0.39,0.39 0.92,0.61 1.471,0.61c0.551,-0 1.081,-0.22 1.47,-0.61l2.687,-2.688l2.688,2.688c0.808,0.805 2.134,0.805 2.941,-0l2.069,-2.069c0.39,-0.39 0.61,-0.919 0.61,-1.471c-0,-0.551 -0.22,-1.08 -0.61,-1.47l-2.685,-2.687l2.688,-2.688c0.392,-0.389 0.611,-0.919 0.609,-1.47l0.003,-0Zm-5.824,3.156c-0.546,0.549 -0.546,1.45 0,2l3.157,3.156l-1.48,1.48l-3.156,-3.156c-0.549,-0.548 -1.451,-0.548 -2,-0l-3.156,3.156l-1.48,-1.48l3.157,-3.156c0.547,-0.55 0.547,-1.451 0,-2l-3.157,-3.156l1.48,-1.48l3.156,3.156c0.55,0.546 1.451,0.546 2,-0l3.156,-3.156l1.48,1.48l-3.157,3.156Z" style="fill-rule:nonzero;"/></g></g></svg>