<svg xmlns="http://www.w3.org/2000/svg" xmlns:xlink="http://www.w3.org/1999/xlink" width="112" height="119" viewBox="0 0 112 119">
  <defs>
    <linearGradient id="linear-gradient" x1="0.5" x2="0.5" y2="1" gradientUnits="objectBoundingBox">
      <stop offset="0" stop-color="#ffb74d"/>
      <stop offset="1" stop-color="#ef6034"/>
    </linearGradient>
  </defs>
  <g id="Grupo_28010" data-name="Grupo 28010" transform="translate(-719 -1292)">
    <rect id="Rectángulo_3118" data-name="Rectángulo 3118" width="112" height="119" rx="10" transform="translate(719 1292)" fill="url(#linear-gradient)"/>
    <g id="Grupo_27706" data-name="Grupo 27706" transform="translate(-1453.783 736.001)">
      <g id="Grupo_27661" data-name="Grupo 27661" transform="translate(2190.783 605.915)">
        <g id="Grupo_27660" data-name="Grupo 27660">
          <path id="Trazado_1979" data-name="Trazado 1979" d="M2215.032,754.824h-17.909a1.2,1.2,0,0,1-1.2-1.2v-32.1l-4.547-2.68a1.2,1.2,0,0,1-.591-1.035V705.319a1.2,1.2,0,0,1,1.2-1.2h6.236a1.2,1.2,0,0,1,1.2,1.2v2.329a1.165,1.165,0,1,0,2.33,0v-2.329a1.2,1.2,0,0,1,1.2-1.2h6.236a1.2,1.2,0,0,1,1.2,1.2v2.329a1.165,1.165,0,1,0,2.331,0v-2.329a1.2,1.2,0,0,1,1.2-1.2h6.25a1.2,1.2,0,0,1,1.2,1.2v12.51a1.2,1.2,0,0,1-.594,1.037l-4.547,2.662v32.095A1.2,1.2,0,0,1,2215.032,754.824Zm-16.707-2.4h15.505V720.839a1.2,1.2,0,0,1,.594-1.037l4.547-2.662V706.52h-3.847v1.128a3.568,3.568,0,1,1-7.137,0V706.52h-3.833v1.128a3.568,3.568,0,1,1-7.136,0V706.52h-3.833v10.6l4.547,2.68a1.2,1.2,0,0,1,.591,1.035Z" transform="translate(-2190.783 -704.117)" fill="#fff"/>
        </g>
      </g>
      <g id="Grupo_27663" data-name="Grupo 27663" transform="translate(2195.921 621.436)">
        <g id="Grupo_27662" data-name="Grupo 27662" transform="translate(0)">
          <path id="Trazado_1980" data-name="Trazado 1980" d="M2216.517,772.986h-2.526a1.2,1.2,0,1,1,0-2.4h2.526a1.2,1.2,0,1,1,0,2.4Z" transform="translate(-2212.789 -770.583)" fill="#fff"/>
        </g>
      </g>
      <g id="Grupo_27665" data-name="Grupo 27665" transform="translate(2211.305 621.436)">
        <g id="Grupo_27664" data-name="Grupo 27664" transform="translate(0)">
          <path id="Trazado_1981" data-name="Trazado 1981" d="M2282.4,772.986h-2.525a1.2,1.2,0,1,1,0-2.4h2.525a1.2,1.2,0,1,1,0,2.4Z" transform="translate(-2278.67 -770.583)" fill="#fff"/>
        </g>
      </g>
      <g id="Grupo_27667" data-name="Grupo 27667" transform="translate(2241.624 621.436)">
        <g id="Grupo_27666" data-name="Grupo 27666" transform="translate(0)">
          <path id="Trazado_1982" data-name="Trazado 1982" d="M2412.239,772.986h-2.525a1.2,1.2,0,0,1,0-2.4h2.525a1.2,1.2,0,1,1,0,2.4Z" transform="translate(-2408.512 -770.583)" fill="#fff"/>
        </g>
      </g>
      <g id="Grupo_27669" data-name="Grupo 27669" transform="translate(2236.483 605.915)">
        <g id="Grupo_27668" data-name="Grupo 27668" transform="translate(0)">
          <path id="Trazado_1983" data-name="Trazado 1983" d="M2410.747,754.824h-17.908a1.2,1.2,0,0,1-1.2-1.2V721.528l-4.547-2.662a1.2,1.2,0,0,1-.594-1.037v-12.51a1.2,1.2,0,0,1,1.2-1.2h6.25a1.2,1.2,0,0,1,1.2,1.2v2.329a1.165,1.165,0,1,0,2.33,0v-2.329a1.2,1.2,0,0,1,1.2-1.2h6.235a1.2,1.2,0,0,1,1.2,1.2v2.329a1.165,1.165,0,1,0,2.33,0v-2.329a1.2,1.2,0,0,1,1.2-1.2h6.236a1.2,1.2,0,0,1,1.2,1.2v12.492a1.2,1.2,0,0,1-.592,1.035l-4.547,2.68v32.1A1.2,1.2,0,0,1,2410.747,754.824Zm-16.707-2.4h15.506V720.839a1.2,1.2,0,0,1,.591-1.035l4.547-2.68v-10.6h-3.833v1.128a3.568,3.568,0,1,1-7.137,0V706.52h-3.832v1.128a3.568,3.568,0,1,1-7.136,0V706.52H2388.9v10.619l4.547,2.662a1.2,1.2,0,0,1,.594,1.037Z" transform="translate(-2386.495 -704.117)" fill="#fff"/>
        </g>
      </g>
      <g id="Grupo_27671" data-name="Grupo 27671" transform="translate(2257.008 621.436)">
        <g id="Grupo_27670" data-name="Grupo 27670">
          <path id="Trazado_1984" data-name="Trazado 1984" d="M2478.119,772.986h-2.525a1.2,1.2,0,1,1,0-2.4h2.525a1.2,1.2,0,1,1,0,2.4Z" transform="translate(-2474.393 -770.583)" fill="#fff"/>
        </g>
      </g>
      <g id="Grupo_27673" data-name="Grupo 27673" transform="translate(2223.406 639.496)">
        <g id="Grupo_27672" data-name="Grupo 27672" transform="translate(0)">
          <path id="Trazado_1985" data-name="Trazado 1985" d="M2340.337,865.051a1.2,1.2,0,0,1-1.2-1.2v-10.4a3.121,3.121,0,1,0-6.241,0v10.4a1.2,1.2,0,1,1-2.4,0v-10.4a5.524,5.524,0,1,1,11.048,0v10.4A1.2,1.2,0,0,1,2340.337,865.051Z" transform="translate(-2330.49 -847.926)" fill="#fff"/>
        </g>
      </g>
      <g id="Grupo_27675" data-name="Grupo 27675" transform="translate(2213.83 654.219)">
        <g id="Grupo_27674" data-name="Grupo 27674" transform="translate(0)">
          <path id="Trazado_1986" data-name="Trazado 1986" d="M2318.479,913.384h-27.794a1.2,1.2,0,0,1,0-2.4h27.794a1.2,1.2,0,1,1,0,2.4Z" transform="translate(-2289.484 -910.981)" fill="#fff"/>
        </g>
      </g>
      <g id="Grupo_27684" data-name="Grupo 27684" transform="translate(2194.536 575.999)">
        <g id="Grupo_27677" data-name="Grupo 27677" transform="translate(10.341 0)">
          <g id="Grupo_27676" data-name="Grupo 27676">
            <path id="Trazado_1987" data-name="Trazado 1987" d="M2252.344,587.3a1.2,1.2,0,0,1-1.2-1.2v-8.9a1.2,1.2,0,0,1,1.723-1.084l6.779,3.258a1.2,1.2,0,0,1,.016,2.159l-6.115,3.058v1.5A1.2,1.2,0,0,1,2252.344,587.3Zm1.2-8.186V581.9l2.847-1.423Z" transform="translate(-2251.142 -575.999)" fill="#fff"/>
          </g>
        </g>
        <g id="Grupo_27679" data-name="Grupo 27679" transform="translate(0 9.816)">
          <g id="Grupo_27678" data-name="Grupo 27678">
            <path id="Trazado_1988" data-name="Trazado 1988" d="M2228.742,633.1h-20.684a1.2,1.2,0,0,1-1.2-1.2v-6.631a1.2,1.2,0,0,1,.6-1.038l10.341-6.03a1.2,1.2,0,0,1,1.212,0l10.343,6.03a1.2,1.2,0,0,1,.6,1.038V631.9A1.2,1.2,0,0,1,2228.742,633.1Zm-19.482-2.4h18.28v-4.739l-9.141-5.328-9.139,5.328Z" transform="translate(-2206.857 -618.035)" fill="#fff"/>
          </g>
        </g>
        <g id="Grupo_27681" data-name="Grupo 27681" transform="translate(1.659 23.039)">
          <g id="Grupo_27680" data-name="Grupo 27680">
            <path id="Trazado_1989" data-name="Trazado 1989" d="M2215.164,683.806a1.2,1.2,0,0,1-1.2-1.2v-6.739a1.2,1.2,0,0,1,2.4,0V682.6A1.2,1.2,0,0,1,2215.164,683.806Z" transform="translate(-2213.963 -674.664)" fill="#fff"/>
          </g>
        </g>
        <g id="Grupo_27683" data-name="Grupo 27683" transform="translate(19.024 23.039)">
          <g id="Grupo_27682" data-name="Grupo 27682">
            <path id="Trazado_1990" data-name="Trazado 1990" d="M2289.53,683.806a1.2,1.2,0,0,1-1.2-1.2v-6.739a1.2,1.2,0,0,1,2.4,0V682.6A1.2,1.2,0,0,1,2289.53,683.806Z" transform="translate(-2288.328 -674.664)" fill="#fff"/>
          </g>
        </g>
      </g>
      <g id="Grupo_27695" data-name="Grupo 27695" transform="translate(2227.728 575.999)">
        <g id="Grupo_27686" data-name="Grupo 27686" transform="translate(22.849 0)">
          <g id="Grupo_27685" data-name="Grupo 27685">
            <path id="Trazado_1991" data-name="Trazado 1991" d="M2448.055,587.3a1.2,1.2,0,0,1-1.2-1.2v-8.9a1.2,1.2,0,0,1,1.722-1.084l6.779,3.258a1.2,1.2,0,0,1,.016,2.159l-6.114,3.058v1.5A1.2,1.2,0,0,1,2448.055,587.3Zm1.2-8.186V581.9l2.847-1.423Z" transform="translate(-2446.854 -575.999)" fill="#fff"/>
          </g>
        </g>
        <g id="Grupo_27688" data-name="Grupo 27688" transform="translate(0 9.816)">
          <g id="Grupo_27687" data-name="Grupo 27687">
            <path id="Trazado_1992" data-name="Trazado 1992" d="M2350.2,630.837a1.2,1.2,0,0,1-1.2-1.2v-10.4a1.2,1.2,0,0,1,1.722-1.083l6.779,3.258a1.2,1.2,0,0,1,.016,2.158l-6.114,3.057v3.008A1.2,1.2,0,0,1,2350.2,630.837Zm1.2-9.688v2.791l2.846-1.423Z" transform="translate(-2349.001 -618.036)" fill="#fff"/>
          </g>
        </g>
        <g id="Grupo_27690" data-name="Grupo 27690" transform="translate(12.508 9.816)">
          <g id="Grupo_27689" data-name="Grupo 27689">
            <path id="Trazado_1993" data-name="Trazado 1993" d="M2424.45,633.1h-20.682a1.2,1.2,0,0,1-1.2-1.2v-6.631a1.2,1.2,0,0,1,.6-1.038l10.341-6.03a1.2,1.2,0,0,1,1.212,0l10.342,6.03a1.2,1.2,0,0,1,.6,1.038V631.9A1.2,1.2,0,0,1,2424.45,633.1Zm-19.48-2.4h18.279v-4.739l-9.139-5.328-9.139,5.328Z" transform="translate(-2402.567 -618.035)" fill="#fff"/>
          </g>
        </g>
        <g id="Grupo_27692" data-name="Grupo 27692" transform="translate(14.168 23.039)">
          <g id="Grupo_27691" data-name="Grupo 27691">
            <path id="Trazado_1994" data-name="Trazado 1994" d="M2410.875,683.806a1.2,1.2,0,0,1-1.2-1.2v-6.739a1.2,1.2,0,0,1,2.4,0V682.6A1.2,1.2,0,0,1,2410.875,683.806Z" transform="translate(-2409.674 -674.664)" fill="#fff"/>
          </g>
        </g>
        <g id="Grupo_27694" data-name="Grupo 27694" transform="translate(31.532 23.039)">
          <g id="Grupo_27693" data-name="Grupo 27693">
            <path id="Trazado_1995" data-name="Trazado 1995" d="M2485.24,683.806a1.2,1.2,0,0,1-1.2-1.2v-6.739a1.2,1.2,0,1,1,2.4,0V682.6A1.2,1.2,0,0,1,2485.24,683.806Z" transform="translate(-2484.039 -674.664)" fill="#fff"/>
          </g>
        </g>
      </g>
      <g id="Grupo_27697" data-name="Grupo 27697" transform="translate(2202.625 626.269)">
        <g id="Grupo_27696" data-name="Grupo 27696" transform="translate(0 0)">
          <path id="Trazado_1996" data-name="Trazado 1996" d="M2244.952,800.151a3.457,3.457,0,0,1-3.454-3.454v-1.963a3.454,3.454,0,0,1,6.909,0V796.7A3.458,3.458,0,0,1,2244.952,800.151Zm0-6.466a1.052,1.052,0,0,0-1.051,1.05V796.7a1.051,1.051,0,0,0,2.1,0v-1.963A1.053,1.053,0,0,0,2244.952,793.684Z" transform="translate(-2241.498 -791.281)" fill="#fff"/>
        </g>
      </g>
      <g id="Grupo_27699" data-name="Grupo 27699" transform="translate(2248.325 626.269)">
        <g id="Grupo_27698" data-name="Grupo 27698" transform="translate(0 0)">
          <path id="Trazado_1997" data-name="Trazado 1997" d="M2440.662,800.151a3.457,3.457,0,0,1-3.454-3.454v-1.963a3.454,3.454,0,1,1,6.907,0V796.7A3.457,3.457,0,0,1,2440.662,800.151Zm0-6.466a1.052,1.052,0,0,0-1.051,1.05V796.7a1.051,1.051,0,0,0,2.1,0v-1.963A1.051,1.051,0,0,0,2440.662,793.684Z" transform="translate(-2437.208 -791.281)" fill="#fff"/>
        </g>
      </g>
      <g id="Grupo_27701" data-name="Grupo 27701" transform="translate(2225.232 625.92)">
        <g id="Grupo_27700" data-name="Grupo 27700" transform="translate(0)">
          <path id="Trazado_1998" data-name="Trazado 1998" d="M2342.01,799.354a3.7,3.7,0,0,1-3.7-3.7v-2.174a3.7,3.7,0,0,1,7.395,0v2.174A3.7,3.7,0,0,1,2342.01,799.354Zm0-7.165a1.3,1.3,0,0,0-1.294,1.294v2.174a1.294,1.294,0,1,0,2.588,0v-2.174A1.3,1.3,0,0,0,2342.01,792.189Z" transform="translate(-2338.313 -789.786)" fill="#fff"/>
        </g>
      </g>
      <g id="Grupo_27703" data-name="Grupo 27703" transform="translate(2219.307 610.392)">
        <g id="Grupo_27702" data-name="Grupo 27702" transform="translate(0)">
          <path id="Trazado_1999" data-name="Trazado 1999" d="M2331.313,729.773a1.2,1.2,0,0,1-.515-.117l-8.071-3.835-8.071,3.835a1.2,1.2,0,0,1-1.033-2.172l8.588-4.08a1.2,1.2,0,0,1,1.033,0l8.588,4.08a1.2,1.2,0,0,1-.518,2.288Z" transform="translate(-2312.938 -723.288)" fill="#fff"/>
        </g>
      </g>
      <g id="Grupo_27705" data-name="Grupo 27705" transform="translate(2213.799 597.211)">
        <g id="Grupo_27704" data-name="Grupo 27704" transform="translate(0)">
          <path id="Trazado_2000" data-name="Trazado 2000" d="M2290.553,675.944a1.2,1.2,0,0,1-.518-2.288l14.1-6.7a1.2,1.2,0,0,1,1.033,0l14.1,6.7a1.2,1.2,0,0,1-1.033,2.171l-13.581-6.453-13.579,6.453A1.2,1.2,0,0,1,2290.553,675.944Z" transform="translate(-2289.349 -666.841)" fill="#fff"/>
        </g>
      </g>
    </g>
  </g>
</svg>
