<svg xmlns="http://www.w3.org/2000/svg" width="101.137" height="85.334" viewBox="0 0 101.137 85.334">
  <g id="confirmacion" transform="translate(0 0)">
    <path id="Trazado_1841" data-name="Trazado 1841" d="M169.406,118.906l11.607,9.489V174.7a4.073,4.073,0,0,1-4.073,4.073H106.072A4.073,4.073,0,0,1,102,174.7V128.4l11.607-9.489Zm0,0" transform="translate(-81.851 -95.419)" fill="#79b2ff"/>
    <path id="Trazado_1842" data-name="Trazado 1842" d="M160.762,50.178v-36.1A4.073,4.073,0,0,1,164.835,10h47.651a4.073,4.073,0,0,1,4.073,4.073v36.1l-27.9,21.051Zm0,0" transform="translate(-129.006 -8.026)" fill="#f9fceb"/>
    <path id="Trazado_1843" data-name="Trazado 1843" d="M258.969,87.91a14.051,14.051,0,1,1-14.051-14.051A14.052,14.052,0,0,1,258.969,87.91Zm0,0" transform="translate(-185.264 -59.27)" fill="#cbe558"/>
    <path id="Trazado_1844" data-name="Trazado 1844" d="M130.1,31.447l-10.882-8.9V6.048A6.055,6.055,0,0,0,113.172,0H97.248a1.975,1.975,0,0,0,0,3.951h15.924a2.1,2.1,0,0,1,2.1,2.1v35.06L89.346,60.818,63.423,41.108V6.047a2.1,2.1,0,0,1,2.1-2.1H81.445a1.975,1.975,0,1,0,0-3.951H65.521a6.055,6.055,0,0,0-6.049,6.048v16.5l-10.882,8.9a1.975,1.975,0,0,0-.725,1.529v21.93H38.976a1.975,1.975,0,1,0,0,3.951h8.889V79.286a6.055,6.055,0,0,0,6.048,6.048H124.78a6.055,6.055,0,0,0,6.048-6.048V32.977a1.975,1.975,0,0,0-.725-1.529Zm-3.225,46.94L103.505,55.016l23.372-17.769Zm-7.657-50.734,6.624,5.415L119.221,38.1ZM89.346,65.275a1.974,1.974,0,0,0,1.2-.4l9.789-7.443,23.954,23.954H54.407L78.361,57.429l9.79,7.443a1.97,1.97,0,0,0,1.2.4ZM51.815,37.246,75.187,55.015,51.815,78.387Zm7.657.858-6.624-5.036,6.624-5.415Zm0,0" transform="translate(-29.692)"/>
    <path id="Trazado_1845" data-name="Trazado 1845" d="M12.642,341.965H1.975a1.975,1.975,0,1,0,0,3.951H12.642a1.975,1.975,0,1,0,0-3.951Zm0,0" transform="translate(0 -274.416)"/>
    <path id="Trazado_1846" data-name="Trazado 1846" d="M293.975,3.951a1.976,1.976,0,0,0,1.975-1.975,1.975,1.975,0,1,0-3.372,1.4A1.991,1.991,0,0,0,293.975,3.951Zm0,0" transform="translate(-234.321 0)"/>
    <path id="Trazado_1847" data-name="Trazado 1847" d="M220.867,79.886a16.026,16.026,0,1,0,16.026-16.026A16.045,16.045,0,0,0,220.867,79.886Zm28.1,0A12.076,12.076,0,1,1,236.893,67.81,12.089,12.089,0,0,1,248.969,79.886Zm0,0" transform="translate(-177.239 -51.245)"/>
    <path id="Trazado_1848" data-name="Trazado 1848" d="M272.724,122.715a1.975,1.975,0,0,0-2.793,2.793l3.487,3.487a1.975,1.975,0,0,0,2.793,0l6.119-6.119a1.975,1.975,0,0,0-2.794-2.793l-4.721,4.721Zm0,0" transform="translate(-216.146 -95.898)"/>
  </g>
</svg>
