<svg id="reserva3" xmlns="http://www.w3.org/2000/svg" width="49.58" height="49.58" viewBox="0 0 49.58 49.58">
  <g id="Grupo_26415" data-name="Grupo 26415">
    <g id="Grupo_26414" data-name="Grupo 26414">
      <path id="Trazado_1219" data-name="Trazado 1219" d="M45.448,6.611h-.826V2.479A2.482,2.482,0,0,0,42.143,0H40.49a2.482,2.482,0,0,0-2.479,2.479V6.611H11.569V2.479A2.482,2.482,0,0,0,9.09,0H7.437A2.482,2.482,0,0,0,4.958,2.479V6.611H4.132A4.136,4.136,0,0,0,0,10.742V45.448A4.136,4.136,0,0,0,4.132,49.58H45.448a4.136,4.136,0,0,0,4.132-4.132V10.742A4.136,4.136,0,0,0,45.448,6.611Zm-5.784.826V2.479a.827.827,0,0,1,.826-.826h1.653a.827.827,0,0,1,.826.826v8.263a.827.827,0,0,1-.826.826H40.49a.827.827,0,0,1-.826-.826Zm-33.053,0V2.479a.827.827,0,0,1,.826-.826H9.09a.827.827,0,0,1,.826.826v8.263a.827.827,0,0,1-.826.826H7.437a.827.827,0,0,1-.826-.826ZM47.927,45.448a2.482,2.482,0,0,1-2.479,2.479H4.132a2.482,2.482,0,0,1-2.479-2.479V21.484H47.927Zm0-25.616H1.653v-9.09A2.482,2.482,0,0,1,4.132,8.263h.826v2.479a2.482,2.482,0,0,0,2.479,2.479H9.09a2.482,2.482,0,0,0,2.479-2.479V8.263H38.011v2.479a2.482,2.482,0,0,0,2.479,2.479h1.653a2.482,2.482,0,0,0,2.479-2.479V8.263h.826a2.482,2.482,0,0,1,2.479,2.479Z" fill="#ff9800"/>
    </g>
  </g>
  <g id="Grupo_26417" data-name="Grupo 26417" transform="translate(14.874 10.742)">
    <g id="Grupo_26416" data-name="Grupo 26416">
      <path id="Trazado_1220" data-name="Trazado 1220" d="M163.006,104H144.826a.826.826,0,0,0-.826.826v4.958a.826.826,0,0,0,.826.826h18.179a.826.826,0,0,0,.826-.826v-4.958A.826.826,0,0,0,163.006,104Zm-.826,4.958H145.653v-3.305h16.527Z" transform="translate(-144 -104)" fill="#ff9800"/>
    </g>
  </g>
  <g id="Grupo_26419" data-name="Grupo 26419" transform="translate(4.958 23.963)">
    <g id="Grupo_26418" data-name="Grupo 26418">
      <path id="Trazado_1221" data-name="Trazado 1221" d="M53.784,232H48.826a.826.826,0,0,0-.826.826v4.132a.826.826,0,0,0,.826.826h4.958a.826.826,0,0,0,.826-.826v-4.132A.826.826,0,0,0,53.784,232Zm-.826,4.132H49.653v-2.479h3.305Z" transform="translate(-48 -232)" fill="#ff9800"/>
    </g>
  </g>
  <g id="Grupo_26421" data-name="Grupo 26421" transform="translate(15.7 23.963)">
    <g id="Grupo_26420" data-name="Grupo 26420">
      <path id="Trazado_1222" data-name="Trazado 1222" d="M157.784,232h-4.958a.826.826,0,0,0-.826.826v4.132a.826.826,0,0,0,.826.826h4.958a.826.826,0,0,0,.826-.826v-4.132A.826.826,0,0,0,157.784,232Zm-.826,4.132h-3.305v-2.479h3.305Z" transform="translate(-152 -232)" fill="#ff9800"/>
    </g>
  </g>
  <g id="Grupo_26423" data-name="Grupo 26423" transform="translate(27.269 23.963)">
    <g id="Grupo_26422" data-name="Grupo 26422">
      <path id="Trazado_1223" data-name="Trazado 1223" d="M269.784,232h-4.958a.826.826,0,0,0-.826.826v4.132a.826.826,0,0,0,.826.826h4.958a.826.826,0,0,0,.826-.826v-4.132A.826.826,0,0,0,269.784,232Zm-.826,4.132h-3.305v-2.479h3.305Z" transform="translate(-264 -232)" fill="#ff9800"/>
    </g>
  </g>
  <g id="Grupo_26425" data-name="Grupo 26425" transform="translate(38.011 23.963)">
    <g id="Grupo_26424" data-name="Grupo 26424">
      <path id="Trazado_1224" data-name="Trazado 1224" d="M373.784,232h-4.958a.826.826,0,0,0-.826.826v4.132a.826.826,0,0,0,.826.826h4.958a.826.826,0,0,0,.826-.826v-4.132A.826.826,0,0,0,373.784,232Zm-.826,4.132h-3.305v-2.479h3.305Z" transform="translate(-368 -232)" fill="#ff9800"/>
    </g>
  </g>
  <g id="Grupo_26427" data-name="Grupo 26427" transform="translate(4.958 32.227)">
    <g id="Grupo_26426" data-name="Grupo 26426">
      <path id="Trazado_1225" data-name="Trazado 1225" d="M53.784,312H48.826a.826.826,0,0,0-.826.826v4.132a.826.826,0,0,0,.826.826h4.958a.826.826,0,0,0,.826-.826v-4.132A.826.826,0,0,0,53.784,312Zm-.826,4.132H49.653v-2.479h3.305Z" transform="translate(-48 -312)" fill="#ff9800"/>
    </g>
  </g>
  <g id="Grupo_26429" data-name="Grupo 26429" transform="translate(15.7 32.227)">
    <g id="Grupo_26428" data-name="Grupo 26428">
      <path id="Trazado_1226" data-name="Trazado 1226" d="M157.784,312h-4.958a.826.826,0,0,0-.826.826v4.132a.826.826,0,0,0,.826.826h4.958a.826.826,0,0,0,.826-.826v-4.132A.826.826,0,0,0,157.784,312Zm-.826,4.132h-3.305v-2.479h3.305Z" transform="translate(-152 -312)" fill="#ff9800"/>
    </g>
  </g>
  <g id="Grupo_26431" data-name="Grupo 26431" transform="translate(27.269 32.227)">
    <g id="Grupo_26430" data-name="Grupo 26430">
      <path id="Trazado_1227" data-name="Trazado 1227" d="M269.784,312h-4.958a.826.826,0,0,0-.826.826v4.132a.826.826,0,0,0,.826.826h4.958a.826.826,0,0,0,.826-.826v-4.132A.826.826,0,0,0,269.784,312Zm-.826,4.132h-3.305v-2.479h3.305Z" transform="translate(-264 -312)" fill="#ff9800"/>
    </g>
  </g>
  <g id="Grupo_26433" data-name="Grupo 26433" transform="translate(38.011 32.227)">
    <g id="Grupo_26432" data-name="Grupo 26432">
      <path id="Trazado_1228" data-name="Trazado 1228" d="M373.784,312h-4.958a.826.826,0,0,0-.826.826v4.132a.826.826,0,0,0,.826.826h4.958a.826.826,0,0,0,.826-.826v-4.132A.826.826,0,0,0,373.784,312Zm-.826,4.132h-3.305v-2.479h3.305Z" transform="translate(-368 -312)" fill="#ff9800"/>
    </g>
  </g>
  <g id="Grupo_26435" data-name="Grupo 26435" transform="translate(4.958 40.49)">
    <g id="Grupo_26434" data-name="Grupo 26434">
      <path id="Trazado_1229" data-name="Trazado 1229" d="M53.784,392H48.826a.826.826,0,0,0-.826.826v4.132a.826.826,0,0,0,.826.826h4.958a.826.826,0,0,0,.826-.826v-4.132A.826.826,0,0,0,53.784,392Zm-.826,4.132H49.653v-2.479h3.305Z" transform="translate(-48 -392)" fill="#ff9800"/>
    </g>
  </g>
  <g id="Grupo_26437" data-name="Grupo 26437" transform="translate(15.7 40.49)">
    <g id="Grupo_26436" data-name="Grupo 26436">
      <path id="Trazado_1230" data-name="Trazado 1230" d="M157.784,392h-4.958a.826.826,0,0,0-.826.826v4.132a.826.826,0,0,0,.826.826h4.958a.826.826,0,0,0,.826-.826v-4.132A.826.826,0,0,0,157.784,392Zm-.826,4.132h-3.305v-2.479h3.305Z" transform="translate(-152 -392)" fill="#ff9800"/>
    </g>
  </g>
  <g id="Grupo_26439" data-name="Grupo 26439" transform="translate(26.685 39.961)">
    <g id="Grupo_26438" data-name="Grupo 26438">
      <path id="Trazado_1231" data-name="Trazado 1231" d="M264.9,386.88l-3.552,4.263-1.839-1.839-1.168,1.168,2.479,2.479a.821.821,0,0,0,.584.242h.037a.832.832,0,0,0,.6-.3l4.132-4.958Z" transform="translate(-258.344 -386.88)" fill="#ff9800"/>
    </g>
  </g>
  <g id="Grupo_26441" data-name="Grupo 26441" transform="translate(36.6 39.961)">
    <g id="Grupo_26440" data-name="Grupo 26440">
      <path id="Trazado_1232" data-name="Trazado 1232" d="M360.9,386.88l-3.552,4.263-1.839-1.839-1.168,1.168,2.479,2.479a.821.821,0,0,0,.584.242h.037a.832.832,0,0,0,.6-.3l4.132-4.958Z" transform="translate(-354.344 -386.88)" fill="#ff9800"/>
    </g>
  </g>
</svg>
