<?xml version="1.0" encoding="UTF-8" standalone="no"?><!DOCTYPE svg PUBLIC "-//W3C//DTD SVG 1.1//EN" "http://www.w3.org/Graphics/SVG/1.1/DTD/svg11.dtd"><svg width="100%" height="100%" viewBox="0 0 101 85" version="1.1" xmlns="http://www.w3.org/2000/svg" xmlns:xlink="http://www.w3.org/1999/xlink" xml:space="preserve" xmlns:serif="http://www.serif.com/" style="fill-rule:evenodd;clip-rule:evenodd;stroke-linejoin:round;stroke-miterlimit:2;"><g id="error"></g><rect id="Mesa-de-trabajo1" serif:id="Mesa de trabajo1" x="0" y="0" width="101" height="85" style="fill:none;"/><g><path id="Trazado_1861" d="M20.245,1.654l43.234,-0l17.275,17.27l-0,64.416l-60.509,0l-0,-81.686Z" style="fill:#b5f2ff;"/><path id="Trazado_1862" d="M63.484,1.654l-0,17.27l17.271,0l-17.271,-17.27Z" style="fill:#00d8ff;"/><path id="Trazado_1863" d="M31.613,39.796l7.219,-7.22l11.668,11.667l11.667,-11.667l7.22,7.22l-11.667,11.668l11.667,11.667l-7.22,7.22l-11.667,-11.667l-11.668,11.666l-7.219,-7.22l11.666,-11.667l-11.666,-11.667Z" style="fill:#ff5d5d;"/><path id="Trazado_1864" d="M80.755,35.527c-0.911,-0 -1.661,0.749 -1.661,1.66l0,44.493l-57.189,-0l0,-3.322c-0.022,-0.895 -0.764,-1.619 -1.66,-1.619c-0.895,-0 -1.638,0.724 -1.66,1.619l0,4.981c0,0.911 0.75,1.661 1.661,1.661l60.509,-0c0.911,-0 1.66,-0.75 1.66,-1.661l0,-46.153c-0,-0.91 -0.75,-1.659 -1.66,-1.659Z"/><path id="Trazado_1865" d="M82.412,18.868l0,-0.057c-0.004,-0.07 -0.012,-0.14 -0.025,-0.208c-0.014,-0.07 -0.033,-0.138 -0.056,-0.206c-0.006,-0.017 -0.012,-0.034 -0.019,-0.051c-0.024,-0.064 -0.051,-0.126 -0.082,-0.187l-0.005,-0.012c-0.034,-0.063 -0.072,-0.124 -0.114,-0.182l-0.033,-0.045c-0.045,-0.058 -0.093,-0.114 -0.145,-0.166l-17.276,-17.275c-0.052,-0.052 -0.108,-0.1 -0.167,-0.144l-0.044,-0.033c-0.058,-0.041 -0.119,-0.077 -0.182,-0.11l-0.012,-0.01c-0.06,-0.031 -0.122,-0.058 -0.185,-0.081l-0.056,-0.019c-0.065,-0.023 -0.132,-0.042 -0.199,-0.057l-0.005,-0c-0.069,-0.013 -0.138,-0.021 -0.207,-0.025l-43.355,-0c-0.908,0.001 -1.656,0.746 -1.66,1.654l0,63.422c-0,0.014 -0,0.028 -0,0.041c-0,0.911 0.749,1.661 1.66,1.661c0.911,-0 1.661,-0.75 1.661,-1.661c-0,-0.013 -0,-0.027 -0.001,-0.041l0,-61.763l39.914,0l0,15.607c0,0.911 0.75,1.661 1.661,1.661l15.61,0l0,3.32c-0,0.014 -0,0.027 -0,0.041c-0,0.911 0.749,1.661 1.66,1.661c0.911,-0 1.661,-0.75 1.661,-1.661c-0,-0.014 -0,-0.027 -0.001,-0.041l0,-5.036l0.002,0.003Zm-17.267,-1.604l-0,-11.603l11.601,11.603l-11.601,-0Z"/><path id="Trazado_1866" d="M30.439,64.304l7.22,7.22c0.311,0.311 0.734,0.486 1.174,0.486c0.44,0 0.863,-0.175 1.174,-0.486l10.493,-10.493l10.493,10.493c0.311,0.311 0.733,0.486 1.174,0.486c0.44,0 0.862,-0.175 1.174,-0.486l7.22,-7.22c0.643,-0.644 0.643,-1.703 -0,-2.348l-10.492,-10.492l10.493,-10.493c0.644,-0.644 0.644,-1.704 -0,-2.348l-7.221,-7.219c-0.644,-0.644 -1.703,-0.644 -2.347,-0l-10.494,10.491l-10.494,-10.492c-0.644,-0.644 -1.704,-0.644 -2.348,-0l-7.22,7.219c-0.644,0.644 -0.644,1.704 -0,2.348l10.492,10.493l-10.491,10.493c-0.644,0.645 -0.644,1.704 -0,2.348Zm14.015,-11.667c0.311,-0.311 0.486,-0.734 0.486,-1.174c0,-0.44 -0.175,-0.863 -0.486,-1.174l-10.494,-10.493l4.872,-4.872l10.493,10.489c0.645,0.643 1.704,0.643 2.348,-0l10.493,-10.493l4.872,4.872l-10.492,10.502c-0.312,0.311 -0.487,0.734 -0.487,1.174c0,0.44 0.175,0.863 0.487,1.174l10.496,10.489l-4.872,4.872l-10.496,-10.493c-0.644,-0.643 -1.704,-0.643 -2.348,0l-10.494,10.493l-4.872,-4.872l10.494,-10.494Z"/><path id="Trazado_1867" d="M20.246,73.378c0.911,-0 1.66,-0.75 1.66,-1.661c0,-0.911 -0.749,-1.661 -1.66,-1.661c-0.911,0 -1.661,0.75 -1.661,1.661c0,0 0,0.001 0,0.001c0.002,0.91 0.751,1.658 1.661,1.66Z"/><path id="Trazado_1868" d="M80.755,28.885c-0.911,0 -1.661,0.75 -1.661,1.661c0,0.911 0.75,1.66 1.661,1.66c0.911,0 1.66,-0.749 1.66,-1.66c-0.001,-0.911 -0.75,-1.659 -1.66,-1.661Z"/></g></svg>