<svg xmlns="http://www.w3.org/2000/svg" width="69" height="69" viewBox="0 0 69 69">
  <g id="Grupo_28012" data-name="Grupo 28012" transform="translate(-189 -1897)">
    <circle id="Elipse_386" data-name="Elipse 386" cx="34.5" cy="34.5" r="34.5" transform="translate(189 1897)" fill="#ffb74d"/>
    <g id="tarjeta-de-credito" transform="translate(204 1911.742)">
      <g id="Grupo_27708" data-name="Grupo 27708" transform="translate(0 0.243)">
        <g id="Grupo_27707" data-name="Grupo 27707" transform="translate(0 0)">
          <path id="Trazado_2006" data-name="Trazado 2006" d="M38.728,14.233,34.371,2.9A4.156,4.156,0,0,0,29,.522l-.093.037L7.131,9.585a4.136,4.136,0,0,0-2.3,5.293l.6,1.6H4.058A4.063,4.063,0,0,0,0,20.534v14.61A4.063,4.063,0,0,0,4.058,39.2h27.6a4.063,4.063,0,0,0,4.058-4.058V20.534a3.99,3.99,0,0,0-.058-.657l.754-.305A4.171,4.171,0,0,0,38.728,14.233ZM4.058,17.775h27.6a2.756,2.756,0,0,1,2.744,2.6H1.315A2.756,2.756,0,0,1,4.058,17.775Zm6.527-3.912,4.34-2.171.892,2.232-4.34,2.17ZM34.416,35.145a2.763,2.763,0,0,1-2.76,2.76H4.058a2.763,2.763,0,0,1-2.76-2.76V26.866H34.416Zm0-9.578H1.3v-3.9H34.416Zm1.507-7.195-.679.275a4.06,4.06,0,0,0-3.588-2.171H13.618l3.315-1.658A.649.649,0,0,0,17.246,14l-1.377-3.442a.649.649,0,0,0-.844-.362l-.049.022L9.47,12.97a.649.649,0,0,0-.312.822l1.074,2.684H6.818l-.769-2.051a2.843,2.843,0,0,1,1.579-3.636L29.4,1.763A2.853,2.853,0,0,1,33.13,3.306l.027.068L37.515,14.7A2.867,2.867,0,0,1,35.923,18.372Z" transform="translate(0 -0.243)" fill="#111e61"/>
          <path id="Trazado_2007" data-name="Trazado 2007" d="M265.819,359.495a3.9,3.9,0,0,0,3.914,0,3.9,3.9,0,1,0,0-6.738,3.9,3.9,0,1,0-3.914,6.738Zm5-5.808a2.6,2.6,0,1,1,0,4.878A3.881,3.881,0,0,0,270.819,353.687Zm-1.086.739a2.55,2.55,0,0,1,0,3.4A2.55,2.55,0,0,1,269.733,354.426Zm-1.948-.9a2.57,2.57,0,0,1,.862.158,3.881,3.881,0,0,0,0,4.878,2.571,2.571,0,0,1-.862.158,2.6,2.6,0,1,1,0-5.195Z" transform="translate(-242.461 -323.659)" fill="#111e61"/>
          <rect id="Rect치ngulo_3121" data-name="Rect치ngulo 3121" width="1.299" height="6.779" transform="translate(27.919 14.588) rotate(-113.966)" fill="#111e61"/>
          <rect id="Rect치ngulo_3122" data-name="Rect치ngulo 3122" width="9.855" height="1.298" transform="matrix(0.908, -0.419, 0.419, 0.908, 23.256, 12.028)" fill="#111e61"/>
        </g>
      </g>
    </g>
  </g>
</svg>
