<svg xmlns="http://www.w3.org/2000/svg" width="69" height="69" viewBox="0 0 69 69">
  <g id="Grupo_28015" data-name="Grupo 28015" transform="translate(-189 -2188)">
    <circle id="Elipse_389" data-name="Elipse 389" cx="34.5" cy="34.5" r="34.5" transform="translate(189 2188)" fill="#ffb74d"/>
    <g id="check-out" transform="translate(204 2207.249)">
      <path id="Trazado_2624" data-name="Trazado 2624" d="M143.962.279h-3.681V-1.127a.745.745,0,0,0-.744-.744.744.744,0,0,0-.744.744V.279H126.22V-1.127a.744.744,0,0,0-.744-.744.744.744,0,0,0-.744.744V.279H120.8a4.058,4.058,0,0,0-4.053,4.053V16.74a.744.744,0,1,0,1.489,0v-4.88h28.288V28.32a2.567,2.567,0,0,1-2.564,2.564H120.8a2.567,2.567,0,0,1-2.564-2.564v-4.3a.744.744,0,1,0-1.489,0v4.3a4.058,4.058,0,0,0,4.053,4.053h23.16a4.057,4.057,0,0,0,4.053-4.053V4.332A4.057,4.057,0,0,0,143.962.279ZM118.238,10.37V4.332A2.567,2.567,0,0,1,120.8,1.768h3.929V3.789a2.4,2.4,0,1,0,1.489,0V1.768h12.573V3.789a2.4,2.4,0,1,0,1.489,0V1.768h3.681a2.567,2.567,0,0,1,2.564,2.564V10.37Zm7.237-5.211a.91.91,0,1,1-.91.91A.91.91,0,0,1,125.476,5.16Zm14.062,0a.91.91,0,1,1-.91.91A.91.91,0,0,1,139.537,5.16Zm0,0" transform="translate(-109.016)" fill="#111e61"/>
      <path id="Trazado_2625" data-name="Trazado 2625" d="M2.542,269.47H17.2a.744.744,0,0,0,0-1.489H2.542l2.617-2.617a.744.744,0,0,0-1.053-1.053L.218,268.2a.744.744,0,0,0,0,1.053l3.888,3.888a.744.744,0,1,0,1.053-1.053Zm0,0" transform="translate(0 -248.347)" fill="#111e61"/>
    </g>
  </g>
</svg>
