<svg xmlns="http://www.w3.org/2000/svg" width="46" height="46" viewBox="0 0 46 46">
  <g id="agente-de-viajes" transform="translate(-16 -16)">
    <path id="Trazado_1239" data-name="Trazado 1239" d="M16.767,58.733h.767v2.3h1.533v-2.3H40.533V57.2h-23V49.533H41.3V48H16.767a.767.767,0,0,0-.767.767v9.2A.767.767,0,0,0,16.767,58.733Z" transform="translate(0 -28.934)" fill="#ff9800"/>
    <path id="Trazado_1240" data-name="Trazado 1240" d="M379.5,48h-.767v9.2H368v1.533h9.2v23h1.533v-23h.767a.767.767,0,0,0,.767-.767v-9.2A.767.767,0,0,0,379.5,48Z" transform="translate(-318.266 -28.934)" fill="#ff9800"/>
    <path id="Trazado_1241" data-name="Trazado 1241" d="M61.234,209.3h-.767v-3.067H58.934V209.3H37.467V184.767A.767.767,0,0,0,36.7,184H21.367a.767.767,0,0,0-.767.767V209.3H19.067V185.533H17.533V209.3h-.767a.767.767,0,0,0-.767.767v3.067a.767.767,0,0,0,.767.767H61.234a.767.767,0,0,0,.767-.767v-3.067A.767.767,0,0,0,61.234,209.3Zm-39.1-23.767h13.8V209.3h-13.8Zm38.334,26.833H17.533v-1.533H60.467Z" transform="translate(0 -151.9)" fill="#ff9800"/>
    <path id="Trazado_1242" data-name="Trazado 1242" d="M264,25.908a.767.767,0,0,0,.257.66l4.146,3.637a.767.767,0,0,0,.935.059l12.713-8.588a.766.766,0,0,0,.242-.264l1.637-2.962a.772.772,0,0,0,.056-.128A1.792,1.792,0,0,0,282.384,16a.769.769,0,0,0-.165.012l-2.737.5h0a2.327,2.327,0,0,0-1.335.413L276.307,18.2l-6.707-.921a.767.767,0,0,0-.581.16l-2.1,1.667a.767.767,0,0,0,.144,1.291l4.527,2.183-2.479,2.342-2.743-.487a.765.765,0,0,0-.5.083l-1.472.807A.767.767,0,0,0,264,25.908Zm2.366.079,2.857.507a.767.767,0,0,0,.66-.2l3.569-3.371a.767.767,0,0,0-.193-1.248l-4.43-2.136.883-.7,6.678.917a.767.767,0,0,0,.541-.129l2.082-1.444a.809.809,0,0,1,.5-.139.784.784,0,0,0,.165-.012l2.693-.49a.275.275,0,0,1,.118.1.268.268,0,0,1,.051.153l-1.5,2.712-12.07,8.154L266.1,26.137Z" transform="translate(-224.233)" fill="#ff9800"/>
    <path id="Trazado_1243" data-name="Trazado 1243" d="M56.767,80a.767.767,0,0,0-.767.767v3.067a.767.767,0,0,0,.767.767H73.633a.767.767,0,0,0,.767-.767V80.767A.767.767,0,0,0,73.633,80Zm16.1,3.067H57.533V81.533H72.867Z" transform="translate(-36.167 -57.867)" fill="#ff9800"/>
    <path id="Trazado_1244" data-name="Trazado 1244" d="M256,184.767v20.7a.767.767,0,0,0,.767.767h16.867a.767.767,0,0,0,.767-.767v-20.7a.767.767,0,0,0-.767-.767H256.767A.767.767,0,0,0,256,184.767ZM272.867,204.7H257.533v-1.533h15.333Zm0-19.167v16.1H257.533v-16.1Z" transform="translate(-217 -151.9)" fill="#ff9800"/>
    <path id="Trazado_1245" data-name="Trazado 1245" d="M105.967,220.6h-.408l-3.6-4.324a.767.767,0,0,0-1.178,0l-3.6,4.324h-.408a.767.767,0,0,0-.767.767v4.6a.767.767,0,0,0,.767.767h9.2a.767.767,0,0,0,.767-.767v-4.6A.767.767,0,0,0,105.967,220.6Zm-4.6-2.635,2.2,2.635H99.17ZM105.2,225.2H97.533v-3.067H105.2Z" transform="translate(-72.333 -180.833)" fill="#ff9800"/>
    <path id="Trazado_1246" data-name="Trazado 1246" d="M96,344h1.533v3.067H96Z" transform="translate(-72.333 -296.567)" fill="#ff9800"/>
  </g>
</svg>
