<svg id="campana" xmlns="http://www.w3.org/2000/svg" width="79.2" height="88.833" viewBox="0 0 79.2 88.833">
  <path id="Trazado_1869" data-name="Trazado 1869" d="M100.4,337.986H44.84L35.4,354.33a.949.949,0,0,0,.822,1.423H109.01a.949.949,0,0,0,.822-1.423Z" transform="translate(-33.972 -279.344)" fill="#f6e266"/>
  <path id="Trazado_1870" data-name="Trazado 1870" d="M145.958,64.84a8.307,8.307,0,0,1-1.113-4.154V46.123a26.677,26.677,0,0,0-18.334-25.338.533.533,0,0,1-.317-.754,8.828,8.828,0,1,0-16.055-.06.608.608,0,0,1-.37.84A26.676,26.676,0,0,0,91.516,46.123V60.686A8.308,8.308,0,0,1,90.4,64.84ZM115.051,16.328a3.13,3.13,0,1,1,3.13,3.129A3.13,3.13,0,0,1,115.051,16.328Z" transform="translate(-79.534 -6.199)" fill="#f1d333"/>
  <path id="Trazado_1871" data-name="Trazado 1871" d="M109.833,354.33,100.4,337.986H95.46l1.725,2.988a7.539,7.539,0,0,1-6.529,11.308H36.587L35.4,354.33a.949.949,0,0,0,.822,1.423h72.785a.949.949,0,0,0,.822-1.423Z" transform="translate(-33.973 -279.344)" fill="#f4dd45"/>
  <path id="Trazado_1872" data-name="Trazado 1872" d="M298.419,84.037a26.635,26.635,0,0,1,11.411,21.874v14.563a8.31,8.31,0,0,0,1.113,4.154l2,3.47h4.937a8.307,8.307,0,0,1-1.113-4.154V109.381a26.677,26.677,0,0,0-18.334-25.338Z" transform="translate(-251.459 -69.456)" fill="#ecc32e"/>
  <circle id="Elipse_385" data-name="Elipse 385" cx="13.035" cy="13.035" r="13.035" transform="translate(51.829 5.577)" fill="#da4a54"/>
  <path id="Trazado_1873" data-name="Trazado 1873" d="M360.673,33.1a13.035,13.035,0,0,1-9.033,22.432,13.142,13.142,0,0,1-2.093-.167A13.035,13.035,0,1,0,360.673,33.1Z" transform="translate(-293.717 -27.36)" fill="#d82e3d"/>
  <path id="Trazado_1874" data-name="Trazado 1874" d="M225.7,440.386h-11.35l-.628,3.641a6.4,6.4,0,1,0,12.605,0Z" transform="translate(-181.38 -363.978)" fill="#f1d333"/>
  <path id="Trazado_1875" data-name="Trazado 1875" d="M226.893,443.856l-.6-3.47h-11.35l-.6,3.47Z" transform="translate(-181.973 -363.978)" fill="#ecc32e"/>
  <path id="Trazado_1876" data-name="Trazado 1876" d="M370.053,72.328a.175.175,0,0,1,0-.248l3.6-3.6a.867.867,0,0,0,0-1.226L371.494,65.1a.867.867,0,0,0-1.226,0l-3.6,3.6a.176.176,0,0,1-.248,0l-3.6-3.6a.867.867,0,0,0-1.226,0l-2.158,2.158a.867.867,0,0,0,0,1.226l3.6,3.6a.176.176,0,0,1,0,.248l-3.6,3.6a.867.867,0,0,0,0,1.226l2.158,2.158a.867.867,0,0,0,1.226,0l3.6-3.6a.176.176,0,0,1,.248,0l3.6,3.6a.867.867,0,0,0,1.226,0l2.158-2.158a.867.867,0,0,0,0-1.226Z" transform="translate(-301.681 -53.593)" fill="#f6f9f9"/>
  <path id="Trazado_1877" data-name="Trazado 1877" d="M416.382,122.29a.867.867,0,0,0,1.226,0l2.158-2.158a.867.867,0,0,0,0-1.226l-2.061-2.061a13.055,13.055,0,0,1-2.726,4.042Z" transform="translate(-347.796 -96.572)" fill="#e7ecf1"/>
  <path id="Trazado_1878" data-name="Trazado 1878" d="M435.01,71.182a13.09,13.09,0,0,1,.3,2.791q0,.394-.023.783l1.036-1.035a.867.867,0,0,0,0-1.226Z" transform="translate(-364.351 -58.832)" fill="#e7ecf1"/>
  <path id="Trazado_1879" data-name="Trazado 1879" d="M229.4,41.711a4.43,4.43,0,1,0-4.431-4.431A4.435,4.435,0,0,0,229.4,41.711Zm0-6.258a1.828,1.828,0,1,1-1.829,1.827A1.829,1.829,0,0,1,229.4,35.453Z" transform="translate(-190.75 -27.15)"/>
  <path id="Trazado_1880" data-name="Trazado 1880" d="M68.894,174.444a25.212,25.212,0,0,1,1.995-9.877,1.3,1.3,0,0,0-2.4-1.014,27.8,27.8,0,0,0-2.2,10.891v14.562a7.023,7.023,0,0,1-.917,3.469l-.021.035-3.72,6.444a1.3,1.3,0,0,0,2.254,1.3l3.345-5.793h39.555a1.3,1.3,0,0,0,0-2.6H68.461a9.627,9.627,0,0,0,.433-2.853Z" transform="translate(-55.611 -134.519)"/>
  <path id="Trazado_1881" data-name="Trazado 1881" d="M220.75,97.318a1.3,1.3,0,0,0,.6,1.741,10.15,10.15,0,0,0,8.877.018,1.3,1.3,0,0,0-1.137-2.341,7.547,7.547,0,0,1-6.594-.013,1.3,1.3,0,0,0-1.741.6Z" transform="translate(-187.156 -79.831)"/>
  <path id="Trazado_1882" data-name="Trazado 1882" d="M92.625,4.275a14.362,14.362,0,0,0-13.834,10.57,27.831,27.831,0,0,0-2.873-1.228,10.13,10.13,0,1,0-19.64-3.488,10.037,10.037,0,0,0,.619,3.488A27.847,27.847,0,0,0,43.842,23.4a1.3,1.3,0,1,0,2.1,1.539,25.261,25.261,0,0,1,12.465-9.091,1.908,1.908,0,0,0,1.144-2.613,7.453,7.453,0,0,1-.671-3.105,7.528,7.528,0,1,1,14.359,3.16,1.867,1.867,0,0,0-.023,1.527,1.84,1.84,0,0,0,1.116,1.006,25.185,25.185,0,0,1,4,1.712A14.356,14.356,0,0,0,90.763,32.827a25.362,25.362,0,0,1,1.007,7.1V54.487A9.62,9.62,0,0,0,92.2,57.34h-7.2a1.3,1.3,0,0,0,0,2.6h8.425l8.755,15.164H30.625l2.348-4.067a1.3,1.3,0,1,0-2.254-1.3l-2.653,4.6a2.25,2.25,0,0,0,1.948,3.375H59.187l-.365,2.118a7.7,7.7,0,1,0,15.17,0l-.365-2.119H102.8a2.25,2.25,0,0,0,1.948-3.375c-10.838-18.771-9.28-16.074-9.436-16.344a7.01,7.01,0,0,1-.939-3.5V39.925a28,28,0,0,0-.885-7,14.336,14.336,0,0,0-.863-28.646Zm-21.2,76a5.095,5.095,0,1,1-10.041,0l.442-2.561h9.157Zm21.2-49.925a11.733,11.733,0,1,1,11.734-11.733A11.747,11.747,0,0,1,92.625,30.345Z" transform="translate(-27.761)"/>
  <path id="Trazado_1883" data-name="Trazado 1883" d="M369.008,61.667a2.154,2.154,0,0,0-.635-1.533l-2.158-2.158a2.167,2.167,0,0,0-3.067,0l-2.8,2.8-2.8-2.8a2.168,2.168,0,0,0-3.067,0l-2.158,2.158a2.169,2.169,0,0,0,0,3.067l2.8,2.8-2.8,2.8a2.169,2.169,0,0,0,0,3.066l2.158,2.158a2.167,2.167,0,0,0,3.067,0l2.8-2.8,2.8,2.8a2.171,2.171,0,0,0,3.067,0l2.158-2.158a2.168,2.168,0,0,0,0-3.067l-2.8-2.8,2.8-2.8A2.154,2.154,0,0,0,369.008,61.667Zm-6.074,3.292a1.479,1.479,0,0,0,0,2.089l3.292,3.292-1.544,1.544-3.292-3.292a1.477,1.477,0,0,0-2.089,0l-3.292,3.292-1.544-1.544,3.292-3.292a1.479,1.479,0,0,0,0-2.089l-3.292-3.292,1.544-1.544,3.292,3.292a1.479,1.479,0,0,0,2.089,0l3.292-3.292,1.544,1.544Z" transform="translate(-295.482 -47.391)"/>
</svg>
