<svg xmlns="http://www.w3.org/2000/svg" width="69" height="69" viewBox="0 0 69 69">
  <g id="Grupo_28014" data-name="Grupo 28014" transform="translate(-189 -2091)">
    <circle id="Elipse_388" data-name="Elipse 388" cx="34.5" cy="34.5" r="34.5" transform="translate(189 2091)" fill="#ffb74d"/>
    <g id="archivo" transform="translate(203.977 2104)">
      <path id="Trazado_2012" data-name="Trazado 2012" d="M25.023,13H36.565v1.443H25.023Zm0,0" transform="translate(-6.966 -3.623)" fill="#111e61"/>
      <path id="Trazado_2013" data-name="Trazado 2013" d="M25.023,18H36.565v1.443H25.023Zm0,0" transform="translate(-6.966 -5.016)" fill="#111e61"/>
      <path id="Trazado_2014" data-name="Trazado 2014" d="M5.023,26H17.286v1.443H5.023Zm0,0" transform="translate(-1.393 -7.245)" fill="#111e61"/>
      <path id="Trazado_2015" data-name="Trazado 2015" d="M5.023,31H14.4v1.443H5.023Zm0,0" transform="translate(-1.393 -8.638)" fill="#111e61"/>
      <path id="Trazado_2016" data-name="Trazado 2016" d="M17.286,10H5.023v8.656H17.286Zm-1.443,7.213H6.466V11.443h9.377Zm0,0" transform="translate(-1.393 -2.787)" fill="#111e61"/>
      <path id="Trazado_2017" data-name="Trazado 2017" d="M33.205,20.617V5.049h2.22l-.13-.837A4.922,4.922,0,0,0,33.89,1.485,4.983,4.983,0,0,0,30.32,0H5.073A5.054,5.054,0,0,0,.023,5.049V41.116H19.759a12.262,12.262,0,1,0,13.446-20.5ZM30.32,1.443a3.637,3.637,0,0,1,3.311,2.164H9.911A4.821,4.821,0,0,0,8.643,1.485c-.017-.014-.034-.031-.051-.042ZM1.466,39.674V5.049A3.606,3.606,0,0,1,7.626,2.5,3.5,3.5,0,0,1,8.62,4.444l.1.606H31.762v14.8A12.257,12.257,0,0,0,18.034,39.674Zm31.739,0c-.231.166-.462.332-.707.485-.13.079-.259.158-.4.237a10,10,0,0,1-1.507.721,10.824,10.824,0,0,1-10.372-1.443c-.166-.121-.327-.254-.476-.383A10.819,10.819,0,0,1,26.713,20.2a10.634,10.634,0,0,1,5.049,1.248l.042.023a10.821,10.821,0,0,1,1.4,18.205Zm0,0" transform="translate(0 0)" fill="#111e61"/>
      <path id="Trazado_2018" data-name="Trazado 2018" d="M37.946,39.849l4.083-4.083-4.074-4.074-4.083,4.083-4.083-4.083-4.077,4.074,4.083,4.083-4.083,4.083,4.077,4.074,4.083-4.083,4.083,4.083,4.074-4.074Zm.008,6.123-4.083-4.08-4.083,4.08-2.043-2.04,4.083-4.083-4.083-4.083,2.043-2.04,4.083,4.083,4.083-4.083,2.04,2.04-4.083,4.083,4.083,4.083Zm0,0" transform="translate(-7.158 -8.831)" fill="#111e61"/>
      <path id="Trazado_2019" data-name="Trazado 2019" d="M5.023,36H14.4v1.443H5.023Zm0,0" transform="translate(-1.393 -10.032)" fill="#111e61"/>
    </g>
  </g>
</svg>
