<svg xmlns="http://www.w3.org/2000/svg" width="49.58" height="44.31" viewBox="0 0 49.58 44.31">
  <g id="reserva-en-linea" transform="translate(0 -27.19)">
    <path id="Trazado_1209" data-name="Trazado 1209" d="M48.672,156.658H47.595v-17.8a.727.727,0,0,0-1.454,0v17.8H9.848a.727.727,0,1,0,0,1.454H48.126v.674a2.052,2.052,0,0,1-2.05,2.05H3.5a2.052,2.052,0,0,1-2.05-2.05v-.674h5.3a.727.727,0,1,0,0-1.454H3.438v-25.3a2.185,2.185,0,0,1,2.183-2.183h8.266a.727.727,0,0,0,0-1.454H5.621a3.641,3.641,0,0,0-3.636,3.636v25.3H.907a.908.908,0,0,0-.907.907v1.22a3.507,3.507,0,0,0,3.5,3.5H46.076a3.507,3.507,0,0,0,3.5-3.5v-1.22A.908.908,0,0,0,48.672,156.658Z" transform="translate(0 -90.789)" fill="#ff9800"/>
    <path id="Trazado_1210" data-name="Trazado 1210" d="M362.548,129.175h8.169a2.185,2.185,0,0,1,2.183,2.183v4.408a.727.727,0,1,0,1.454,0v-4.408a3.641,3.641,0,0,0-3.636-3.636h-8.169a.727.727,0,0,0,0,1.454Z" transform="translate(-326.759 -90.789)" fill="#ff9800"/>
    <path id="Trazado_1211" data-name="Trazado 1211" d="M50.482,158.45v23.121a.727.727,0,0,0,.727.727H89.551a.727.727,0,0,0,.727-.727l0-23.123a.727.727,0,0,0-.727-.727H80.539a.727.727,0,0,0,0,1.454h8.283l0,21.669H51.936V159.177h8.383a.727.727,0,1,0,0-1.454H51.209A.727.727,0,0,0,50.482,158.45Z" transform="translate(-45.59 -117.882)" fill="#ff9800"/>
    <path id="Trazado_1212" data-name="Trazado 1212" d="M173.519,44.959a8.894,8.894,0,0,0,8.884-8.884,8.787,8.787,0,0,0-.969-4.032.727.727,0,1,0-1.295.661,7.347,7.347,0,0,1,.81,3.372,7.436,7.436,0,1,1-2.562-5.611.727.727,0,1,0,.953-1.1,8.883,8.883,0,1,0-5.822,15.592Z" transform="translate(-148.681)" fill="#ff9800"/>
    <path id="Trazado_1213" data-name="Trazado 1213" d="M203.681,70.739a.959.959,0,0,0-1.354,0l-3.952,3.952-1.37-1.37a.959.959,0,0,0-1.354,0l-1.729,1.729a.957.957,0,0,0,0,1.354l2.912,2.911a2.18,2.18,0,0,0,3.084,0l5.493-5.494a.957.957,0,0,0,0-1.354Zm-4.792,7.55a.727.727,0,0,1-1.028,0L195.3,75.728l1.028-1.028,1.37,1.37a.959.959,0,0,0,1.354,0L203,72.118l1.028,1.028Z" transform="translate(-174.877 -39.077)" fill="#ff9800"/>
    <path id="Trazado_1214" data-name="Trazado 1214" d="M166.363,319.539h14.316a1.728,1.728,0,0,0,1.726-1.726v-2.2a1.728,1.728,0,0,0-1.726-1.726h-9.736a.727.727,0,1,0,0,1.454h9.736a.273.273,0,0,1,.273.273v2.2a.273.273,0,0,1-.273.273H166.363a.273.273,0,0,1-.273-.273v-2.2a.273.273,0,0,1,.273-.273h1.482a.727.727,0,1,0,0-1.454h-1.482a1.728,1.728,0,0,0-1.726,1.726v2.2A1.728,1.728,0,0,0,166.363,319.539Z" transform="translate(-148.683 -258.917)" fill="#ff9800"/>
    <path id="Trazado_1215" data-name="Trazado 1215" d="M97.158,211.82a4.617,4.617,0,1,0-4.617,4.616A4.622,4.622,0,0,0,97.158,211.82Zm-4.617,3.163A3.163,3.163,0,1,1,95.7,211.82,3.166,3.166,0,0,1,92.541,214.983Z" transform="translate(-79.405 -162.57)" fill="#ff9800"/>
    <path id="Trazado_1216" data-name="Trazado 1216" d="M206.957,236.649h1.126a.727.727,0,0,0,0-1.454h-1.126a.727.727,0,0,0,0,1.454Z" transform="translate(-186.245 -187.848)" fill="#ff9800"/>
    <path id="Trazado_1217" data-name="Trazado 1217" d="M263.9,235.2H249.041a.727.727,0,0,0,0,1.454H263.9a.727.727,0,0,0,0-1.454Z" transform="translate(-224.251 -187.848)" fill="#ff9800"/>
    <path id="Trazado_1218" data-name="Trazado 1218" d="M226.62,267.082a.727.727,0,0,0-.727-.727H206.957a.727.727,0,1,0,0,1.454h18.936A.727.727,0,0,0,226.62,267.082Z" transform="translate(-186.245 -215.989)" fill="#ff9800"/>
  </g>
</svg>
