<svg xmlns="http://www.w3.org/2000/svg" width="49.58" height="49.58" viewBox="0 0 49.58 49.58">
  <g id="datos" transform="translate(-16 -16)">
    <path id="Trazado_1247" data-name="Trazado 1247" d="M121.653,18.892a1.241,1.241,0,0,1,1.239-1.239H145.2a1.241,1.241,0,0,1,1.239,1.239v.413H148.1v-.413A2.9,2.9,0,0,0,145.2,16H122.892A2.9,2.9,0,0,0,120,18.892v.413h1.653Z" transform="translate(-93.258)" fill="#ff9800"/>
    <path id="Trazado_1248" data-name="Trazado 1248" d="M146.442,399.85a1.241,1.241,0,0,1-1.24,1.24H122.892a1.241,1.241,0,0,1-1.239-1.24V392H120v7.85a2.9,2.9,0,0,0,2.892,2.892H145.2a2.9,2.9,0,0,0,2.892-2.892V392h-1.653Z" transform="translate(-93.258 -337.163)" fill="#ff9800"/>
    <path id="Trazado_1249" data-name="Trazado 1249" d="M195.982,406.611a2.9,2.9,0,0,0,2.892-2.892v-.826A2.9,2.9,0,0,0,195.982,400h-9.09A2.9,2.9,0,0,0,184,402.892v.826a2.9,2.9,0,0,0,2.892,2.892Zm-10.329-2.892v-.826a1.241,1.241,0,0,1,1.24-1.24h9.09a1.241,1.241,0,0,1,1.239,1.24v.826a1.241,1.241,0,0,1-1.239,1.24h-9.09A1.241,1.241,0,0,1,185.653,403.718Z" transform="translate(-150.647 -344.336)" fill="#ff9800"/>
    <path id="Trazado_1250" data-name="Trazado 1250" d="M63.927,173.278a.207.207,0,0,1-.207.207H17.859a.207.207,0,0,1-.207-.207V152H16v21.278a1.861,1.861,0,0,0,1.859,1.859H63.72a1.861,1.861,0,0,0,1.859-1.859v-4.751H63.927Z" transform="translate(0 -121.952)" fill="#ff9800"/>
    <path id="Trazado_1251" data-name="Trazado 1251" d="M63.72,64H17.859A1.861,1.861,0,0,0,16,65.859v5.578h1.653V65.859a.207.207,0,0,1,.207-.207H63.72a.207.207,0,0,1,.207.207v22.1H65.58v-22.1A1.861,1.861,0,0,0,63.72,64Z" transform="translate(0 -43.042)" fill="#ff9800"/>
    <path id="Trazado_1252" data-name="Trazado 1252" d="M48,96h1.653v1.653H48Z" transform="translate(-28.695 -71.737)" fill="#ff9800"/>
    <path id="Trazado_1253" data-name="Trazado 1253" d="M48,328h1.653v1.653H48Z" transform="translate(-28.695 -279.773)" fill="#ff9800"/>
    <path id="Trazado_1254" data-name="Trazado 1254" d="M448,96h1.653v1.653H448Z" transform="translate(-387.378 -71.737)" fill="#ff9800"/>
    <path id="Trazado_1255" data-name="Trazado 1255" d="M448,328h1.653v1.653H448Z" transform="translate(-387.378 -279.773)" fill="#ff9800"/>
    <path id="Trazado_1256" data-name="Trazado 1256" d="M73.09,96v2.479H70.611a.826.826,0,0,0-.826.826v.267l-3.612,1.445a.826.826,0,0,0-.519.767v12.395H64v1.653h1.653v4.958a.826.826,0,0,0,.826.826H81.353a.826.826,0,0,0,.826-.826v-4.958h1.653v-1.653H82.179V101.784a.826.826,0,0,0-.519-.767l-3.612-1.445v-.267a.826.826,0,0,0-.826-.826H74.742V96Zm-5.784,6.344,2.479-.992v12.827H67.305Zm0,13.488h2.479v4.132H67.305Zm4.132,0h4.958v4.132H74.742v-2.479H73.09v2.479H71.437Zm9.09,4.132H78.048v-4.132h2.479Zm0-17.62v11.835H78.048V101.352Zm-4.132,11.835H71.437V100.132h4.958Z" transform="translate(-43.042 -71.737)" fill="#ff9800"/>
    <path id="Trazado_1257" data-name="Trazado 1257" d="M152,152h1.653v1.653H152Z" transform="translate(-121.952 -121.952)" fill="#ff9800"/>
    <path id="Trazado_1258" data-name="Trazado 1258" d="M152,184h1.653v1.653H152Z" transform="translate(-121.952 -150.647)" fill="#ff9800"/>
    <path id="Trazado_1259" data-name="Trazado 1259" d="M152,216h1.653v1.653H152Z" transform="translate(-121.952 -179.342)" fill="#ff9800"/>
    <path id="Trazado_1260" data-name="Trazado 1260" d="M152,248h1.653v1.653H152Z" transform="translate(-121.952 -208.037)" fill="#ff9800"/>
    <path id="Trazado_1261" data-name="Trazado 1261" d="M290.254,104H279.511a.826.826,0,0,0-.627.289l-4.958,5.784,1.255,1.075,4.711-5.5h10.362Z" transform="translate(-231.285 -78.91)" fill="#ff9800"/>
    <path id="Trazado_1262" data-name="Trazado 1262" d="M336,136h9.916v1.653H336Z" transform="translate(-286.947 -107.605)" fill="#ff9800"/>
    <path id="Trazado_1263" data-name="Trazado 1263" d="M287.859,192.088a.826.826,0,0,0-.739,0l-6.608,3.305a.826.826,0,0,0-.441.9l.55,2.8a11.555,11.555,0,0,0,4.8,7.28l1.6,1.126a.826.826,0,0,0,.946,0l1.527-1.059a11.553,11.553,0,0,0,4.858-7.318l.557-2.829a.826.826,0,0,0-.441-.9Zm4.87,6.718a9.914,9.914,0,0,1-4.177,6.275l-1.054.73-1.131-.794a9.914,9.914,0,0,1-4.124-6.242l-.429-2.184,5.676-2.839,5.676,2.839Z" transform="translate(-236.78 -157.822)" fill="#ff9800"/>
    <path id="Trazado_1264" data-name="Trazado 1264" d="M323.512,243.467l-1.169,1.169L324,246.288a.826.826,0,0,0,1.1.061l4.132-3.305-1.033-1.29-3.554,2.843Z" transform="translate(-274.701 -202.435)" fill="#ff9800"/>
    <path id="Trazado_1265" data-name="Trazado 1265" d="M376,168h5.784v1.653H376Z" transform="translate(-322.815 -136.3)" fill="#ff9800"/>
  </g>
</svg>
