<svg id="hotel_3_" data-name="hotel (3)" xmlns="http://www.w3.org/2000/svg" width="49.58" height="49.58" viewBox="0 0 49.58 49.58">
  <g id="Grupo_26443" data-name="Grupo 26443">
    <g id="Grupo_26442" data-name="Grupo 26442">
      <path id="Trazado_1233" data-name="Trazado 1233" d="M45.448,0H4.132A4.136,4.136,0,0,0,0,4.132V37.185a4.136,4.136,0,0,0,4.132,4.132h15.7v3.305H15.7a4.136,4.136,0,0,0-4.132,4.132.827.827,0,0,0,.826.826h24.79a.827.827,0,0,0,.826-.826,4.136,4.136,0,0,0-4.132-4.132H29.748V41.316h15.7a4.136,4.136,0,0,0,4.132-4.132V4.132A4.136,4.136,0,0,0,45.448,0ZM33.879,46.274a2.484,2.484,0,0,1,2.338,1.653H13.363A2.484,2.484,0,0,1,15.7,46.274H33.879ZM21.484,44.622V41.316H28.1v3.305Zm26.442-7.437a2.482,2.482,0,0,1-2.479,2.479H4.132a2.482,2.482,0,0,1-2.479-2.479v-.826H47.927Zm0-2.479H1.653V4.132A2.482,2.482,0,0,1,4.132,1.653H45.448a2.482,2.482,0,0,1,2.479,2.479Z" fill="#ff9800"/>
    </g>
  </g>
  <g id="Grupo_26445" data-name="Grupo 26445" transform="translate(13.221 7.437)">
    <g id="Grupo_26444" data-name="Grupo 26444">
      <path id="Trazado_1234" data-name="Trazado 1234" d="M150.311,76.958h-1.653a1.654,1.654,0,0,0-1.653,1.653v.826h-9.09V77.784a1.654,1.654,0,0,0-1.653-1.653h-3.305V73.653A1.654,1.654,0,0,0,131.305,72h-1.653A1.654,1.654,0,0,0,128,73.653V86.048a.827.827,0,0,0,.826.826h3.305a.827.827,0,0,0,.826-.826V84.395h14.048v1.653a.827.827,0,0,0,.826.826h3.305a.827.827,0,0,0,.826-.826V78.611A1.654,1.654,0,0,0,150.311,76.958Zm-17.353.826h3.305v1.653h-3.305Zm17.353,7.437h-1.653V83.569a.827.827,0,0,0-.826-.826h-15.7a.827.827,0,0,0-.826.826v1.653h-1.653V73.653h1.653v6.611a.827.827,0,0,0,.826.826h15.7a.827.827,0,0,0,.826-.826V78.611h1.653Z" transform="translate(-128 -72)" fill="#ff9800"/>
    </g>
  </g>
  <g id="Grupo_26447" data-name="Grupo 26447" transform="translate(18.179 23.963)">
    <g id="Grupo_26446" data-name="Grupo 26446">
      <path id="Trazado_1235" data-name="Trazado 1235" d="M186.742,232h-8.263A2.482,2.482,0,0,0,176,234.479v1.653a2.482,2.482,0,0,0,2.479,2.479h8.263a2.482,2.482,0,0,0,2.479-2.479v-1.653A2.482,2.482,0,0,0,186.742,232Zm.826,4.132a.828.828,0,0,1-.826.826h-8.263a.828.828,0,0,1-.826-.826v-1.653a.828.828,0,0,1,.826-.826h8.263a.828.828,0,0,1,.826.826Z" transform="translate(-176 -232)" fill="#ff9800"/>
    </g>
  </g>
  <g id="Grupo_26449" data-name="Grupo 26449" transform="translate(33.053 23.964)">
    <g id="Grupo_26448" data-name="Grupo 26448">
      <path id="Trazado_1236" data-name="Trazado 1236" d="M326.127,236.959l1.895-1.895a.826.826,0,0,0-.383-1.386l-6.611-1.653a.826.826,0,0,0-1,1l1.653,6.611a.825.825,0,0,0,.581.6.839.839,0,0,0,.221.03.826.826,0,0,0,.584-.242l1.895-1.895,3.547,3.547,1.168-1.168Zm-3.2.863-.964-3.858,3.858.964Z" transform="translate(-320.001 -232.001)" fill="#ff9800"/>
    </g>
  </g>
  <g id="Grupo_26451" data-name="Grupo 26451" transform="translate(23.712 9.7)">
    <g id="Grupo_26450" data-name="Grupo 26450" transform="translate(0 0)">
      <rect id="Rectángulo_2689" data-name="Rectángulo 2689" width="2" height="2" transform="translate(0.288 -0.121)" fill="#ff9800"/>
    </g>
  </g>
  <g id="Grupo_26453" data-name="Grupo 26453" transform="translate(21.815 6.611)">
    <g id="Grupo_26452" data-name="Grupo 26452">
      <path id="Trazado_1237" data-name="Trazado 1237" d="M214.175,64a5,5,0,0,0-2.975.992l.992,1.322a3.305,3.305,0,0,1,3.966,0l.992-1.322A5,5,0,0,0,214.175,64Z" transform="translate(-211.2 -64)" fill="#ff9800"/>
    </g>
  </g>
  <g id="Grupo_26455" data-name="Grupo 26455" transform="translate(20.088 3.305)">
    <g id="Grupo_26454" data-name="Grupo 26454">
      <path id="Trazado_1238" data-name="Trazado 1238" d="M199.182,32a6.911,6.911,0,0,0-4.7,1.881l1.14,1.2a5.165,5.165,0,0,1,7.124,0l1.14-1.2A6.911,6.911,0,0,0,199.182,32Z" transform="translate(-194.48 -32)" fill="#ff9800"/>
    </g>
  </g>
  <g id="Grupo_26457" data-name="Grupo 26457" transform="translate(40.957 16.167)">
    <g id="Grupo_26456" data-name="Grupo 26456" transform="translate(0 0)">
      <rect id="Rectángulo_2690" data-name="Rectángulo 2690" width="2" height="1" transform="translate(0.043 0.412)" fill="#ff9800"/>
    </g>
  </g>
  <g id="Grupo_26459" data-name="Grupo 26459" transform="translate(40.957 10.778)">
    <g id="Grupo_26458" data-name="Grupo 26458" transform="translate(0 0)">
      <rect id="Rectángulo_2691" data-name="Rectángulo 2691" width="2" height="3" transform="translate(0.043 -0.199)" fill="#ff9800"/>
    </g>
  </g>
  <g id="Grupo_26461" data-name="Grupo 26461" transform="translate(40.957 5.389)">
    <g id="Grupo_26460" data-name="Grupo 26460" transform="translate(0 0)">
      <rect id="Rectángulo_2692" data-name="Rectángulo 2692" width="2" height="3" transform="translate(0.043 0.19)" fill="#ff9800"/>
    </g>
  </g>
  <g id="Grupo_26463" data-name="Grupo 26463" transform="translate(6.467 16.167)">
    <g id="Grupo_26462" data-name="Grupo 26462" transform="translate(0 0)">
      <rect id="Rectángulo_2693" data-name="Rectángulo 2693" width="3" height="1" transform="translate(-0.467 0.412)" fill="#ff9800"/>
    </g>
  </g>
  <g id="Grupo_26465" data-name="Grupo 26465" transform="translate(6.467 10.778)">
    <g id="Grupo_26464" data-name="Grupo 26464" transform="translate(0 0)">
      <rect id="Rectángulo_2694" data-name="Rectángulo 2694" width="3" height="3" transform="translate(-0.467 -0.199)" fill="#ff9800"/>
    </g>
  </g>
  <g id="Grupo_26467" data-name="Grupo 26467" transform="translate(6.467 5.389)">
    <g id="Grupo_26466" data-name="Grupo 26466" transform="translate(0 0)">
      <rect id="Rectángulo_2695" data-name="Rectángulo 2695" width="3" height="3" transform="translate(-0.467 0.19)" fill="#ff9800"/>
    </g>
  </g>
</svg>
