<svg xmlns="http://www.w3.org/2000/svg" width="51.512" height="57.602" viewBox="0 0 51.512 57.602">
  <g id="llamada-telefonica" transform="translate(4.063 7.897) rotate(-20)">
    <path id="Trazado_1266" data-name="Trazado 1266" d="M21.8,41.615,15.07,35.159a4.467,4.467,0,0,0-5.77-.39l-.009.007-.03.022a.116.116,0,0,1-.092.024.087.087,0,0,1-.062-.042A22.722,22.722,0,0,1,6.1,18.053.077.077,0,0,1,6.136,18a.1.1,0,0,1,.083-.009L6.265,18a4.475,4.475,0,0,0,5.289-2.386l4.408-9.127A3.333,3.333,0,0,0,15.3,2.667a8.709,8.709,0,0,0-1.22-1.02,9.168,9.168,0,0,0-12.5,1.919c-.185.242-.358.5-.524.752l0,0A22.445,22.445,0,0,0-.286,6.592l-.1.177a36.307,36.307,0,0,0-3.273,8.21A37.691,37.691,0,0,0-3.4,30.334,32.387,32.387,0,0,0,3.364,44.05a1.012,1.012,0,0,0,1.547-1.3A30.373,30.373,0,0,1-1.434,29.879a35.653,35.653,0,0,1-.233-14.524A34.994,34.994,0,0,1,1.4,7.731l.1-.182c.391-.727.8-1.428,1.252-2.12l.007-.011q.2-.322.434-.624a7.147,7.147,0,0,1,9.739-1.487,6.635,6.635,0,0,1,.939.785l.012.012a1.312,1.312,0,0,1,.263,1.508L9.733,14.738a2.46,2.46,0,0,1-2.9,1.325L6.8,16.052a2.112,2.112,0,0,0-2.678,1.587A24.745,24.745,0,0,0,7.4,35.856a2.119,2.119,0,0,0,1.406.953,2.149,2.149,0,0,0,1.676-.4l.028-.02a2.451,2.451,0,0,1,3.165.227l6.734,6.456a2.561,2.561,0,0,1,.3,3.062A6.906,6.906,0,0,1,15.977,49.2a7.121,7.121,0,0,1-5.28-1.179,1.012,1.012,0,0,0-1.153,1.661,9.126,9.126,0,0,0,5.221,1.643,9.278,9.278,0,0,0,1.55-.131,8.923,8.923,0,0,0,6.143-4.046l.023-.04a4.584,4.584,0,0,0-.676-5.488Zm0,0" transform="translate(0 0)" fill="#ff9800"/>
    <path id="Trazado_1267" data-name="Trazado 1267" d="M222.1,114.4a10.883,10.883,0,0,0-10.764,12.451l-1.8,5.858a1.029,1.029,0,0,0,.913,1.307l5.59.293A10.878,10.878,0,1,0,222.1,114.4Zm0,19.734a8.8,8.8,0,0,1-5.138-1.642,1.008,1.008,0,0,0-.534-.186l-4.582-.24,1.491-4.842a7.3,7.3,0,0,0-.093-1.945,8.856,8.856,0,1,1,8.855,8.856Zm0,0" transform="translate(-131.84 -174.278) rotate(21)" fill="#ff9800"/>
    <path id="Trazado_1268" data-name="Trazado 1268" d="M309.171,240.762a1.011,1.011,0,1,0,1.009,1.055A1.022,1.022,0,0,0,309.171,240.762Zm0,0" transform="translate(-174.912 -315.287) rotate(21)" fill="#ff9800"/>
    <path id="Trazado_1269" data-name="Trazado 1269" d="M122.851,565.2a1.011,1.011,0,1,0,1.009,1.055A1.023,1.023,0,0,0,122.851,565.2Zm0,0" transform="translate(-116.027 -519.788)" fill="#ff9800"/>
    <path id="Trazado_1270" data-name="Trazado 1270" d="M358.675,240.762a1.011,1.011,0,1,0,1.008,1.055A1.021,1.021,0,0,0,358.675,240.762Zm0,0" transform="translate(-217.414 -331.602) rotate(21)" fill="#ff9800"/>
    <path id="Trazado_1271" data-name="Trazado 1271" d="M408.163,240.762a1.011,1.011,0,1,0,1.009,1.055A1.022,1.022,0,0,0,408.163,240.762Zm0,0" transform="translate(-259.903 -347.912) rotate(21)" fill="#ff9800"/>
  </g>
</svg>
