<svg xmlns="http://www.w3.org/2000/svg" width="49.58" height="35.465" viewBox="0 0 49.58 35.465">
  <g id="email" transform="translate(0 5.75)">
    <path id="Trazado_1272" data-name="Trazado 1272" d="M49.58,1.926A7.675,7.675,0,0,0,34.292.955H.971A.982.982,0,0,0,0,1.926V28.744a.981.981,0,0,0,.971.971H6.158a.972.972,0,0,0,0-1.942H3.281L14.633,16.189l5.713,5.405a1.96,1.96,0,0,0,2.669,0l5.713-5.405L40.079,27.773H14.07a.972.972,0,0,0,0,1.942H42.39a.981.981,0,0,0,.971-.971V9.461A7.687,7.687,0,0,0,49.58,1.926ZM1.941,26.366V4.181L13.222,14.854ZM21.68,20.184,3.409,2.9H34.292a7.638,7.638,0,0,0,1.622,3.82ZM37.308,8.07a7.636,7.636,0,0,0,4.11,1.515V26.366L30.138,14.854Zm4.6-.41a5.734,5.734,0,1,1,5.734-5.734A5.74,5.74,0,0,1,41.9,7.66Zm0,0" fill="#ff9800"/>
    <path id="Trazado_1273" data-name="Trazado 1273" d="M118.681,426.984a.971.971,0,1,0,.687.284A.978.978,0,0,0,118.681,426.984Zm0,0" transform="translate(-108.592 -399.211)" fill="#ff9800"/>
  </g>
</svg>
