<svg xmlns="http://www.w3.org/2000/svg" width="52.463" height="46.928" viewBox="0 0 52.463 46.928">
  <g id="www" transform="translate(0 -0.5)">
    <path id="Trazado_1274" data-name="Trazado 1274" d="M231.021,168.5a9.017,9.017,0,1,0,9.017,9.017A9.027,9.027,0,0,0,231.021,168.5Zm0,15.985a6.968,6.968,0,1,1,6.968-6.968A6.976,6.976,0,0,1,231.021,184.485Zm0,0" transform="translate(-199.256 -150.786)" fill="#ff9800"/>
    <path id="Trazado_1275" data-name="Trazado 1275" d="M301.029,211.5a1.025,1.025,0,0,0,0,2.049,2.564,2.564,0,0,1,2.561,2.561,1.025,1.025,0,0,0,2.049,0A4.616,4.616,0,0,0,301.029,211.5Zm0,0" transform="translate(-269.264 -189.383)" fill="#ff9800"/>
    <path id="Trazado_1276" data-name="Trazado 1276" d="M44.7,71.05a1.025,1.025,0,1,0-1.82.942l2.758,5.328a1.025,1.025,0,0,0,1.834-.028l1.67-3.477,1.814,3.5a1.026,1.026,0,0,0,.91.554h.015a1.026,1.026,0,0,0,.909-.581l2.559-5.328a1.025,1.025,0,1,0-1.847-.887l-1.67,3.477-1.814-3.5a1.025,1.025,0,0,0-1.834.028L46.51,74.555Zm0,0" transform="translate(-38.38 -62.824)" fill="#ff9800"/>
    <path id="Trazado_1277" data-name="Trazado 1277" d="M117.013,2.549a1.026,1.026,0,1,0-.724-.3A1.032,1.032,0,0,0,117.013,2.549Zm0,0" transform="translate(-104.103)" fill="#ff9800"/>
    <path id="Trazado_1278" data-name="Trazado 1278" d="M52.462,18.124V4.6a4.1,4.1,0,0,0-4.1-4.1H17.213a1.025,1.025,0,1,0,0,2.049H48.364A2.052,2.052,0,0,1,50.413,4.6V18.124a2.052,2.052,0,0,1-2.049,2.049H43.445c-.03,0-.058,0-.087,0a13.392,13.392,0,0,0-7.2-6.023l1.519-3.162,1.814,3.5a1.024,1.024,0,0,0,.91.554h.016a1.025,1.025,0,0,0,.908-.581l2.559-5.328a1.025,1.025,0,0,0-1.847-.887L40.364,11.73l-1.814-3.5a1.025,1.025,0,0,0-1.834.028l-1.67,3.477-1.814-3.5a1.025,1.025,0,0,0-1.82.942l2.268,4.381a13.341,13.341,0,0,0-5.551.366l2.293-4.774a1.025,1.025,0,0,0-1.847-.887l-1.67,3.477-1.814-3.5a1.025,1.025,0,0,0-1.834.028L21.589,11.73l-1.814-3.5a1.025,1.025,0,0,0-1.82.942L20.713,14.5a1.025,1.025,0,0,0,1.834-.028l1.67-3.476,1.814,3.5a1,1,0,0,0,.108.163,13.41,13.41,0,0,0-5.964,5.514H4.1a2.052,2.052,0,0,1-2.049-2.049V4.6A2.052,2.052,0,0,1,4.1,2.549H8.3A1.025,1.025,0,0,0,8.3.5H4.1A4.1,4.1,0,0,0,0,4.6V18.124a4.1,4.1,0,0,0,4.1,4.1H19.23A13.318,13.318,0,0,0,38.4,38.28l8.132,8.132A3.475,3.475,0,0,0,51.445,41.5l-3.2-3.2A1.025,1.025,0,0,0,46.8,39.752l3.2,3.2a1.425,1.425,0,0,1-2.015,2.016L40.117,37.1A13.308,13.308,0,0,0,44.3,22.223h4.065a4.1,4.1,0,0,0,4.1-4.1ZM31.765,38A11.271,11.271,0,1,1,43.036,26.731,11.284,11.284,0,0,1,31.765,38Zm0,0" fill="#ff9800"/>
    <path id="Trazado_1279" data-name="Trazado 1279" d="M430.39,343.082a1.024,1.024,0,1,0,.724-.3A1.032,1.032,0,0,0,430.39,343.082Zm0,0" transform="translate(-386.021 -307.209)" fill="#ff9800"/>
  </g>
</svg>
