<svg id="confirmacion" xmlns="http://www.w3.org/2000/svg" width="103.344" height="87.196" viewBox="0 0 103.344 87.196">
  <path id="Trazado_1841" data-name="Trazado 1841" d="M170.877,118.906l11.86,9.7v47.32a4.161,4.161,0,0,1-4.161,4.161H106.161A4.161,4.161,0,0,1,102,175.922V128.6l11.861-9.7Zm0,0" transform="translate(-81.412 -94.906)" fill="#79b2ff"/>
  <path id="Trazado_1842" data-name="Trazado 1842" d="M160.762,51.055V14.162A4.162,4.162,0,0,1,164.924,10h48.691a4.162,4.162,0,0,1,4.162,4.161V51.055L189.27,72.565Zm0,0" transform="translate(-128.313 -7.982)" fill="#f9fceb"/>
  <path id="Trazado_1843" data-name="Trazado 1843" d="M259.583,88.217a14.358,14.358,0,1,1-14.358-14.358A14.358,14.358,0,0,1,259.583,88.217Zm0,0" transform="translate(-184.268 -58.951)" fill="#cbe558"/>
  <path id="Trazado_1844" data-name="Trazado 1844" d="M132.135,32.134l-11.12-9.091V6.18A6.187,6.187,0,0,0,114.835,0H98.563a2.018,2.018,0,0,0,0,4.037h16.272a2.146,2.146,0,0,1,2.144,2.143V42.005l-26.49,20.14L64,42.005V6.179a2.146,2.146,0,0,1,2.144-2.143H82.415a2.018,2.018,0,1,0,0-4.037H66.143a6.187,6.187,0,0,0-6.181,6.18V23.043l-11.12,9.091A2.018,2.018,0,0,0,48.1,33.7V56.105H39.019a2.018,2.018,0,0,0,0,4.037H48.1V81.016a6.187,6.187,0,0,0,6.18,6.18H126.7a6.187,6.187,0,0,0,6.18-6.18V33.7a2.018,2.018,0,0,0-.741-1.563Zm-3.3,47.965L104.957,56.216l23.882-18.157Zm-7.824-51.841,6.768,5.533-6.768,5.145ZM90.489,66.7a2.017,2.017,0,0,0,1.222-.412l10-7.605,24.477,24.477h-71.4L79.264,58.682l10,7.605a2.013,2.013,0,0,0,1.221.412ZM52.139,38.059,76.021,56.216,52.139,80.1Zm7.824.877L53.194,33.79l6.768-5.533Zm0,0" transform="translate(-29.532 0)"/>
  <path id="Trazado_1845" data-name="Trazado 1845" d="M12.918,341.965H2.018a2.018,2.018,0,1,0,0,4.037h10.9a2.018,2.018,0,1,0,0-4.037Zm0,0" transform="translate(0 -272.942)"/>
  <path id="Trazado_1846" data-name="Trazado 1846" d="M294.018,4.037a2.019,2.019,0,0,0,2.018-2.018,2.018,2.018,0,1,0-3.446,1.427A2.035,2.035,0,0,0,294.018,4.037Zm0,0" transform="translate(-233.062 0)"/>
  <path id="Trazado_1847" data-name="Trazado 1847" d="M220.867,80.235a16.376,16.376,0,1,0,16.376-16.376A16.395,16.395,0,0,0,220.867,80.235Zm28.715,0A12.339,12.339,0,1,1,237.243,67.9,12.353,12.353,0,0,1,249.582,80.235Zm0,0" transform="translate(-176.286 -50.97)"/>
  <path id="Trazado_1848" data-name="Trazado 1848" d="M272.8,122.785a2.018,2.018,0,1,0-2.854,2.854l3.563,3.563a2.018,2.018,0,0,0,2.854,0l6.252-6.252a2.018,2.018,0,1,0-2.855-2.854l-4.825,4.825Zm0,0" transform="translate(-214.985 -95.383)"/>
</svg>
