<svg xmlns="http://www.w3.org/2000/svg" width="350.94" height="149" viewBox="0 0 350.94 149">
  <g id="Grupo_54235" data-name="Grupo 54235" transform="translate(-180 -4530)">
    <rect id="Rectángulo_5288" data-name="Rectángulo 5288" width="295" height="149" transform="translate(180 4530)" fill="#fa9500" opacity="0.31"/>
    <g id="error" transform="translate(419.06 4530)">
      <path id="Trazado_1861" data-name="Trazado 1861" d="M10,10H85.788l30.271,30.271V153.18H10Zm0,0" transform="translate(-7.09 -7.09)" fill="#b5f2ff" fill-rule="evenodd"/>
      <path id="Trazado_1862" data-name="Trazado 1862" d="M270.426,10V40.271H300.7Zm0,0" transform="translate(-191.728 -7.09)" fill="#00d8ff" fill-rule="evenodd"/>
      <path id="Trazado_1863" data-name="Trazado 1863" d="M78.469,208.9l12.655-12.656,20.45,20.45,20.45-20.45L144.678,208.9l-20.45,20.449,20.45,20.45-12.656,12.656-20.45-20.449-20.45,20.449L78.469,249.8l20.45-20.45Zm0,0" transform="translate(-55.633 -139.135)" fill="#ff5d5d" fill-rule="evenodd"/>
      <path id="Trazado_1864" data-name="Trazado 1864" d="M108.969,214.02a2.91,2.91,0,0,0-2.91,2.91v77.986H5.82V289.1a2.91,2.91,0,1,0-5.82,0v8.732a2.91,2.91,0,0,0,2.91,2.91H108.969a2.91,2.91,0,0,0,2.91-2.91v-80.9A2.91,2.91,0,0,0,108.969,214.02Zm0,0" transform="translate(0 -151.737)" fill-rule="evenodd"/>
      <path id="Trazado_1865" data-name="Trazado 1865" d="M111.875,33.084c0-.033,0-.066-.006-.1a2.989,2.989,0,0,0-.044-.365.022.022,0,0,1,0-.008,3.023,3.023,0,0,0-.1-.36c-.01-.031-.022-.061-.033-.091a3.08,3.08,0,0,0-.143-.326l-.009-.02a2.838,2.838,0,0,0-.2-.319q-.027-.039-.058-.078a2.905,2.905,0,0,0-.252-.292L80.755.853A2.684,2.684,0,0,0,80.462.6c-.025-.02-.051-.039-.077-.058a2.9,2.9,0,0,0-.319-.2l-.02-.009A2.588,2.588,0,0,0,79.72.189L79.628.156a3.019,3.019,0,0,0-.36-.1h-.009A2.98,2.98,0,0,0,78.9.01L78.794,0c-.032,0-.064,0-.1,0H2.91A2.91,2.91,0,0,0,0,2.91V114.077a2.91,2.91,0,0,0,5.82,0V5.82H75.788V33.181a2.91,2.91,0,0,0,2.91,2.91h27.361v5.82a2.91,2.91,0,1,0,5.82,0v-8.73c0-.033,0-.065,0-.1ZM81.608,30.271V9.936l20.336,20.336Zm0,0" transform="translate(0 0)" fill-rule="evenodd"/>
      <path id="Trazado_1866" data-name="Trazado 1866" d="M69.32,244.77l12.656,12.655a2.909,2.909,0,0,0,4.115,0l18.392-18.391,18.392,18.391a2.909,2.909,0,0,0,4.115,0l12.656-12.655a2.913,2.913,0,0,0,0-4.116l-18.392-18.391,18.392-18.392a2.91,2.91,0,0,0,0-4.116L126.989,187.1a2.91,2.91,0,0,0-4.115,0l-18.392,18.392L86.09,187.1a2.91,2.91,0,0,0-4.115,0L69.32,199.755a2.912,2.912,0,0,0,0,4.116l18.392,18.392L69.32,240.654A2.913,2.913,0,0,0,69.32,244.77Zm24.566-20.45a2.909,2.909,0,0,0,0-4.115L75.493,201.813l8.539-8.539,18.392,18.392a2.913,2.913,0,0,0,4.116,0l18.391-18.392,8.541,8.54-18.392,18.392a2.909,2.909,0,0,0,0,4.115l18.392,18.392-8.541,8.54-18.391-18.391a2.91,2.91,0,0,0-4.116,0L84.033,251.253l-8.539-8.541Zm0,0" transform="translate(-48.542 -132.047)" fill-rule="evenodd"/>
      <path id="Trazado_1867" data-name="Trazado 1867" d="M2.91,427.816A2.91,2.91,0,1,0,0,424.906,2.915,2.915,0,0,0,2.91,427.816Zm0,0" transform="translate(0 -299.189)" fill-rule="evenodd"/>
      <path id="Trazado_1868" data-name="Trazado 1868" d="M367.355,174.02a2.91,2.91,0,1,0,2.91,2.91A2.916,2.916,0,0,0,367.355,174.02Zm0,0" transform="translate(-258.386 -123.377)" fill-rule="evenodd"/>
    </g>
  </g>
</svg>
