<svg id="error" xmlns="http://www.w3.org/2000/svg" width="66.703" height="88.834" viewBox="0 0 66.703 88.834">
  <path id="Trazado_1861" data-name="Trazado 1861" d="M10,10H55.185L73.233,28.048V95.364H10Zm0,0" transform="translate(-8.265 -8.265)" fill="#b5f2ff" fill-rule="evenodd"/>
  <path id="Trazado_1862" data-name="Trazado 1862" d="M270.426,10V28.048h18.048Zm0,0" transform="translate(-223.506 -8.265)" fill="#00d8ff" fill-rule="evenodd"/>
  <path id="Trazado_1863" data-name="Trazado 1863" d="M78.469,203.791l7.545-7.545,12.192,12.192L110.4,196.246l7.545,7.545-12.192,12.192,12.192,12.192-7.545,7.545L98.206,223.529,86.014,235.721l-7.545-7.545,12.192-12.192Zm0,0" transform="translate(-64.854 -162.196)" fill="#ff5d5d" fill-rule="evenodd"/>
  <path id="Trazado_1864" data-name="Trazado 1864" d="M64.968,214.02a1.735,1.735,0,0,0-1.735,1.735v46.5H3.47V258.78a1.735,1.735,0,0,0-3.47,0v5.206a1.735,1.735,0,0,0,1.735,1.735H64.968a1.735,1.735,0,0,0,1.735-1.735V215.755A1.735,1.735,0,0,0,64.968,214.02Zm0,0" transform="translate(0 -176.887)" fill-rule="evenodd"/>
  <path id="Trazado_1865" data-name="Trazado 1865" d="M66.7,19.725c0-.02,0-.039,0-.059a1.784,1.784,0,0,0-.026-.218.013.013,0,0,1,0,0,1.8,1.8,0,0,0-.06-.215c-.006-.018-.013-.037-.02-.054a1.835,1.835,0,0,0-.085-.195l-.005-.012a1.694,1.694,0,0,0-.12-.19l-.035-.047a1.733,1.733,0,0,0-.15-.174L48.147.508a1.6,1.6,0,0,0-.175-.15c-.015-.012-.03-.023-.046-.035a1.73,1.73,0,0,0-.19-.12L47.723.2a1.543,1.543,0,0,0-.194-.085l-.055-.02a1.8,1.8,0,0,0-.215-.06h-.005a1.776,1.776,0,0,0-.216-.026l-.06,0L46.92,0H1.735A1.735,1.735,0,0,0,0,1.735V68.013a1.735,1.735,0,0,0,3.47,0V3.47H45.185V19.783a1.735,1.735,0,0,0,1.735,1.735H63.233v3.47a1.735,1.735,0,1,0,3.47,0V19.783c0-.02,0-.039,0-.058ZM48.655,18.048V5.924L60.779,18.048Zm0,0" transform="translate(0 0)" fill-rule="evenodd"/>
  <path id="Trazado_1866" data-name="Trazado 1866" d="M68.976,221.139l7.545,7.545a1.734,1.734,0,0,0,2.453,0L89.94,217.719l10.965,10.965a1.734,1.734,0,0,0,2.453,0l7.545-7.545a1.736,1.736,0,0,0,0-2.454L99.939,207.72,110.9,196.755a1.735,1.735,0,0,0,0-2.454l-7.545-7.545a1.735,1.735,0,0,0-2.453,0L89.94,197.721,78.974,186.756a1.735,1.735,0,0,0-2.453,0L68.976,194.3a1.736,1.736,0,0,0,0,2.454L79.941,207.72,68.976,218.685A1.736,1.736,0,0,0,68.976,221.139Zm14.646-12.192a1.734,1.734,0,0,0,0-2.453L72.656,195.528l5.091-5.091L88.713,201.4a1.736,1.736,0,0,0,2.454,0l10.965-10.965,5.092,5.091L96.259,206.493a1.734,1.734,0,0,0,0,2.453l10.965,10.965L102.132,225,91.167,214.039a1.735,1.735,0,0,0-2.454,0L77.748,225l-5.091-5.092Zm0,0" transform="translate(-56.588 -153.933)" fill-rule="evenodd"/>
  <path id="Trazado_1867" data-name="Trazado 1867" d="M1.735,425.466A1.735,1.735,0,1,0,0,423.731,1.738,1.738,0,0,0,1.735,425.466Zm0,0" transform="translate(0 -348.778)" fill-rule="evenodd"/>
  <path id="Trazado_1868" data-name="Trazado 1868" d="M366.18,174.02a1.735,1.735,0,1,0,1.735,1.735A1.738,1.738,0,0,0,366.18,174.02Zm0,0" transform="translate(-301.212 -143.827)" fill-rule="evenodd"/>
</svg>
