<svg xmlns="http://www.w3.org/2000/svg" width="361.421" height="149" viewBox="0 0 361.421 149">
  <g id="Grupo_54236" data-name="Grupo 54236" transform="translate(-180 -4929)">
    <rect id="Rectángulo_5289" data-name="Rectángulo 5289" width="295" height="149" transform="translate(180 4929)" fill="#fa9500" opacity="0.31"/>
    <g id="campana" transform="translate(408.579 4929)">
      <path id="Trazado_1869" data-name="Trazado 1869" d="M144.5,337.986H51.318L35.491,365.4a1.591,1.591,0,0,0,1.378,2.387H158.95a1.591,1.591,0,0,0,1.378-2.387Z" transform="translate(-33.089 -239.627)" fill="#f6e266"/>
      <path id="Trazado_1870" data-name="Trazado 1870" d="M183.586,103.677a13.933,13.933,0,0,1-1.867-6.967V72.283a44.745,44.745,0,0,0-30.752-42.5.894.894,0,0,1-.532-1.264,14.77,14.77,0,0,0,1.309-7.534c-.517-5.922-5.58-13.485-14.731-13.485a14.806,14.806,0,0,0-13.507,20.918,1.019,1.019,0,0,1-.62,1.409A44.743,44.743,0,0,0,92.27,72.282V96.709a13.934,13.934,0,0,1-1.867,6.968ZM131.745,22.308a5.249,5.249,0,1,1,5.249,5.249A5.249,5.249,0,0,1,131.745,22.308Z" transform="translate(-72.173 -5.317)" fill="#f1d333"/>
      <path id="Trazado_1871" data-name="Trazado 1871" d="M160.329,365.4,144.5,337.986h-8.28L139.116,343a12.645,12.645,0,0,1-10.951,18.967H37.474L35.492,365.4a1.591,1.591,0,0,0,1.378,2.387H158.951a1.591,1.591,0,0,0,1.378-2.387Z" transform="translate(-33.089 -239.627)" fill="#f4dd45"/>
      <path id="Trazado_1872" data-name="Trazado 1872" d="M298.419,84.037a44.674,44.674,0,0,1,19.14,36.689v24.426a13.939,13.939,0,0,0,1.867,6.967l3.36,5.82h8.28a13.933,13.933,0,0,1-1.867-6.967V126.546a44.746,44.746,0,0,0-30.752-42.5Z" transform="translate(-219.653 -59.581)" fill="#ecc32e"/>
      <circle id="Elipse_385" data-name="Elipse 385" cx="21.863" cy="21.863" r="21.863" transform="translate(86.932 9.354)" fill="#da4a54"/>
      <path id="Trazado_1873" data-name="Trazado 1873" d="M368.209,33.1A21.863,21.863,0,0,1,353.058,70.73a22.044,22.044,0,0,1-3.51-.28A21.864,21.864,0,1,0,368.209,33.1Z" transform="translate(-255.903 -23.47)" fill="#d82e3d"/>
      <path id="Trazado_1874" data-name="Trazado 1874" d="M233.878,440.386H214.841l-1.053,6.107a10.728,10.728,0,1,0,21.143,0Z" transform="translate(-159.538 -312.227)" fill="#f1d333"/>
      <path id="Trazado_1875" data-name="Trazado 1875" d="M235.39,446.206l-1-5.82H215.35l-1,5.82Z" transform="translate(-160.047 -312.227)" fill="#ecc32e"/>
      <path id="Trazado_1876" data-name="Trazado 1876" d="M377.415,77.4a.294.294,0,0,1,0-.417l6.036-6.036a1.454,1.454,0,0,0,0-2.057l-3.619-3.619a1.454,1.454,0,0,0-2.057,0l-6.036,6.036a.294.294,0,0,1-.417,0l-6.036-6.036a1.454,1.454,0,0,0-2.057,0l-3.619,3.619a1.454,1.454,0,0,0,0,2.057l6.036,6.036a.294.294,0,0,1,0,.417l-6.036,6.036a1.454,1.454,0,0,0,0,2.057l3.619,3.619a1.454,1.454,0,0,0,2.057,0l6.036-6.036a.3.3,0,0,1,.417,0l6.036,6.036a1.454,1.454,0,0,0,2.057,0l3.619-3.619a1.454,1.454,0,0,0,0-2.057Z" transform="translate(-262.735 -45.973)" fill="#f6f9f9"/>
      <path id="Trazado_1877" data-name="Trazado 1877" d="M417.332,125.979a1.454,1.454,0,0,0,2.057,0l3.619-3.619a1.454,1.454,0,0,0,0-2.057l-3.457-3.458a21.9,21.9,0,0,1-4.572,6.78Z" transform="translate(-302.293 -82.841)" fill="#e7ecf1"/>
      <path id="Trazado_1878" data-name="Trazado 1878" d="M435.01,71.182a21.954,21.954,0,0,1,.5,4.681q0,.661-.039,1.313l1.737-1.737a1.454,1.454,0,0,0,0-2.057Z" transform="translate(-316.494 -50.467)" fill="#e7ecf1"/>
      <path id="Trazado_1879" data-name="Trazado 1879" d="M232.4,47.712a7.431,7.431,0,1,0-7.433-7.433A7.439,7.439,0,0,0,232.4,47.712Zm0-10.5a3.066,3.066,0,1,1-3.067,3.064A3.068,3.068,0,0,1,232.4,37.215Z" transform="translate(-167.576 -23.29)"/>
      <path id="Trazado_1880" data-name="Trazado 1880" d="M73.93,182.359a42.288,42.288,0,0,1,3.346-16.567,2.183,2.183,0,0,0-4.02-1.7,46.628,46.628,0,0,0-3.691,18.268v24.425a11.779,11.779,0,0,1-1.539,5.819l-.035.059-6.24,10.808a2.183,2.183,0,0,0,3.78,2.183l5.61-9.717h66.346a2.183,2.183,0,0,0,0-4.365H73.2a16.148,16.148,0,0,0,.727-4.786Z" transform="translate(-51.652 -115.393)"/>
      <path id="Trazado_1881" data-name="Trazado 1881" d="M220.84,97.811a2.183,2.183,0,0,0,1,2.921,17.025,17.025,0,0,0,14.89.029,2.183,2.183,0,0,0-1.907-3.927,12.659,12.659,0,0,1-11.061-.022,2.183,2.183,0,0,0-2.921,1Z" transform="translate(-164.493 -68.48)"/>
      <path id="Trazado_1882" data-name="Trazado 1882" d="M136.557,7.171a24.089,24.089,0,0,0-23.2,17.729,46.679,46.679,0,0,0-4.82-2.059,16.991,16.991,0,1,0-32.942-5.851,16.835,16.835,0,0,0,1.038,5.85A46.707,46.707,0,0,0,54.734,39.248a2.183,2.183,0,1,0,3.52,2.582A42.37,42.37,0,0,1,79.162,26.581,3.2,3.2,0,0,0,81.081,22.2a12.5,12.5,0,0,1-1.126-5.208A12.649,12.649,0,0,1,92.6,4.365c7.968,0,12.139,6.721,12.557,11.493a12.672,12.672,0,0,1-1.118,6.432A3.131,3.131,0,0,0,104,24.851a3.086,3.086,0,0,0,1.872,1.688,42.242,42.242,0,0,1,6.705,2.871A24.079,24.079,0,0,0,133.435,55.06a42.539,42.539,0,0,1,1.688,11.9V91.39a16.136,16.136,0,0,0,.727,4.786H123.782a2.183,2.183,0,0,0,0,4.365h14.131L152.6,125.976H32.565l3.938-6.821a2.183,2.183,0,0,0-3.78-2.183l-4.45,7.708a3.774,3.774,0,0,0,3.268,5.661H80.472l-.613,3.553a12.911,12.911,0,1,0,25.445,0l-.613-3.554h48.931a3.774,3.774,0,0,0,3.268-5.661C138.713,93.2,141.326,97.72,141.064,97.268a11.758,11.758,0,0,1-1.575-5.877V66.966A46.962,46.962,0,0,0,138,55.219a24.046,24.046,0,0,0-1.448-48.048ZM101,134.637a8.545,8.545,0,1,1-16.841,0l.741-4.3h15.36ZM136.557,50.9a19.681,19.681,0,1,1,19.681-19.681A19.7,19.7,0,0,1,136.557,50.9Z" transform="translate(-27.761)"/>
      <path id="Trazado_1883" data-name="Trazado 1883" d="M380.742,64.6a3.612,3.612,0,0,0-1.065-2.572l-3.619-3.619a3.635,3.635,0,0,0-5.144,0l-4.7,4.7-4.7-4.7a3.636,3.636,0,0,0-5.144,0l-3.619,3.619a3.637,3.637,0,0,0,0,5.144l4.7,4.7-4.7,4.7a3.637,3.637,0,0,0,0,5.143l3.619,3.619a3.635,3.635,0,0,0,5.144,0l4.7-4.7,4.7,4.7a3.642,3.642,0,0,0,5.144,0l3.619-3.619a3.637,3.637,0,0,0,0-5.144l-4.7-4.7,4.7-4.7a3.613,3.613,0,0,0,1.065-2.572Zm-10.188,5.521a2.481,2.481,0,0,0,0,3.5l5.521,5.521-2.589,2.589-5.521-5.521a2.477,2.477,0,0,0-3.5,0l-5.521,5.521-2.589-2.589,5.521-5.521a2.481,2.481,0,0,0,0-3.5L356.351,64.6l2.589-2.589,5.521,5.521a2.481,2.481,0,0,0,3.5,0l5.521-5.521,2.589,2.589Z" transform="translate(-257.417 -40.653)"/>
    </g>
  </g>
</svg>
