<svg id="cambio" xmlns="http://www.w3.org/2000/svg" width="88.834" height="88.834" viewBox="0 0 88.834 88.834">
  <g id="Grupo_27601" data-name="Grupo 27601" transform="translate(1.735 1.735)">
    <path id="Trazado_1849" data-name="Trazado 1849" d="M282.82,262a20.82,20.82,0,1,0,20.82,20.82A20.821,20.821,0,0,0,282.82,262Z" transform="translate(-218.277 -218.277)" fill="#eefaff"/>
    <path id="Trazado_1850" data-name="Trazado 1850" d="M30.82,10a20.82,20.82,0,1,0,20.82,20.82A20.821,20.821,0,0,0,30.82,10Z" transform="translate(-10 -10)" fill="#eefaff"/>
    <path id="Trazado_1851" data-name="Trazado 1851" d="M307.231,53.35l-10.41,13.88L286.41,53.35h3.47V49.88A13.881,13.881,0,0,0,276,36h13.88a13.881,13.881,0,0,1,13.88,13.88v3.47Z" transform="translate(-229.848 -31.489)" fill="#b3f1ff"/>
    <path id="Trazado_1852" data-name="Trazado 1852" d="M342.82,432.41v.684a20.839,20.839,0,0,1-20.82,0v-.684a10.41,10.41,0,1,1,20.82,0Z" transform="translate(-267.867 -350.516)" fill="#ff7b79"/>
    <ellipse id="Elipse_382" data-name="Elipse 382" cx="6.885" cy="7.088" rx="6.885" ry="7.088" transform="translate(57.668 54.022)" fill="#fce8d0"/>
    <path id="Trazado_1853" data-name="Trazado 1853" d="M87.231,327.231H73.35a13.881,13.881,0,0,1-13.88-13.88v-3.47H56L66.41,296l10.41,13.88H73.35v3.47A13.881,13.881,0,0,0,87.231,327.231Z" transform="translate(-48.019 -246.378)" fill="#b3f1ff"/>
    <path id="Trazado_1854" data-name="Trazado 1854" d="M90.82,180.41v.684a20.84,20.84,0,0,1-20.82,0v-.684a10.41,10.41,0,0,1,20.82,0Z" transform="translate(-59.59 -142.239)" fill="#ffda8f"/>
    <ellipse id="Elipse_383" data-name="Elipse 383" cx="6.885" cy="7.088" rx="6.885" ry="7.088" transform="translate(13.926 10.28)" fill="#c3906d"/>
  </g>
  <g id="Grupo_27602" data-name="Grupo 27602">
    <path id="Trazado_1855" data-name="Trazado 1855" d="M97.35,68.675a8.675,8.675,0,1,0-8.675,8.675A8.685,8.685,0,0,0,97.35,68.675ZM88.675,73.88a5.205,5.205,0,1,1,5.205-5.205A5.211,5.211,0,0,1,88.675,73.88Z" transform="translate(-66.12 -49.59)"/>
    <path id="Trazado_1856" data-name="Trazado 1856" d="M22.555,45.111A22.555,22.555,0,1,0,0,22.555,22.576,22.576,0,0,0,22.555,45.111Zm-8.667-5.55a8.673,8.673,0,0,1,17.333,0,19.1,19.1,0,0,1-17.333,0ZM22.555,3.47a19.082,19.082,0,0,1,11.9,34,12.147,12.147,0,0,0-23.8,0,19.082,19.082,0,0,1,11.9-34Z"/>
    <path id="Trazado_1857" data-name="Trazado 1857" d="M349.35,320.675a8.675,8.675,0,1,0-8.675,8.675A8.685,8.685,0,0,0,349.35,320.675Zm-8.675,5.205a5.205,5.205,0,1,1,5.205-5.205A5.211,5.211,0,0,1,340.675,325.88Z" transform="translate(-274.397 -257.867)"/>
    <path id="Trazado_1858" data-name="Trazado 1858" d="M274.556,252a22.556,22.556,0,1,0,22.556,22.556A22.581,22.581,0,0,0,274.556,252Zm-8.667,39.561a8.673,8.673,0,0,1,17.333,0,19.1,19.1,0,0,1-17.333,0Zm20.566-2.089a12.147,12.147,0,0,0-23.8,0,19.085,19.085,0,1,1,23.8,0Z" transform="translate(-208.277 -208.277)"/>
    <path id="Trazado_1859" data-name="Trazado 1859" d="M78.966,317.231A12.159,12.159,0,0,1,66.82,305.085V303.35h1.735a1.735,1.735,0,0,0,1.388-2.776l-10.41-13.88a1.735,1.735,0,0,0-2.776,0l-10.41,13.88a1.735,1.735,0,0,0,1.388,2.776H49.47v1.735A15.633,15.633,0,0,0,65.085,320.7h13.88a1.735,1.735,0,1,0,0-3.47Zm-13.88,0A12.159,12.159,0,0,1,52.94,305.085v-3.47A1.735,1.735,0,0,0,51.2,299.88l6.94-9.254,6.94,9.254a1.735,1.735,0,0,0-1.735,1.735v3.47a15.593,15.593,0,0,0,5.811,12.145Z" transform="translate(-38.019 -236.378)"/>
    <path id="Trazado_1860" data-name="Trazado 1860" d="M267.735,29.47A12.159,12.159,0,0,1,279.88,41.615V43.35h-1.735a1.735,1.735,0,0,0-1.388,2.776l10.41,13.88a1.735,1.735,0,0,0,2.776,0l10.41-13.88a1.735,1.735,0,0,0-1.388-2.776h-1.735V41.615c0-.468-.021-.94-.062-1.4a1.735,1.735,0,1,0-3.456.309c.032.362.049.73.049,1.1v3.47A1.735,1.735,0,0,0,295.5,46.82l-6.94,9.253-6.94-9.253a1.735,1.735,0,0,0,1.735-1.735v-3.47A15.593,15.593,0,0,0,277.54,29.47h4.076a12.112,12.112,0,0,1,4.042.688,1.735,1.735,0,0,0,1.155-3.272,15.574,15.574,0,0,0-5.2-.886h-13.88a1.735,1.735,0,1,0,0,3.47Z" transform="translate(-219.848 -21.489)"/>
    <circle id="Elipse_384" data-name="Elipse 384" cx="1.62" cy="1.62" r="1.62" transform="translate(71.148 9.99)"/>
  </g>
</svg>
