<svg xmlns="http://www.w3.org/2000/svg" width="372" height="151" viewBox="0 0 372 151">
  <g id="Grupo_54234" data-name="Grupo 54234" transform="translate(-180 -4199)">
    <rect id="Rectángulo_5287" data-name="Rectángulo 5287" width="295" height="149" transform="translate(180 4199)" fill="#fa9500" opacity="0.31"/>
    <g id="cambio" transform="translate(403.333 4201.333)">
      <g id="Grupo_27601" data-name="Grupo 27601" transform="translate(2.904 2.904)">
        <path id="Trazado_1849" data-name="Trazado 1849" d="M296.844,262a34.844,34.844,0,1,0,34.844,34.844A34.845,34.845,0,0,0,296.844,262Z" transform="translate(-188.828 -188.828)" fill="#eefaff"/>
        <path id="Trazado_1850" data-name="Trazado 1850" d="M44.844,10A34.844,34.844,0,1,0,79.687,44.844,34.845,34.845,0,0,0,44.844,10Z" transform="translate(-10 -10)" fill="#eefaff"/>
        <path id="Trazado_1851" data-name="Trazado 1851" d="M328.266,65.036,310.844,88.266,293.422,65.036h5.807V59.229A23.23,23.23,0,0,0,276,36h23.229a23.23,23.23,0,0,1,23.229,23.229v5.807Z" transform="translate(-198.763 -28.451)" fill="#b3f1ff"/>
        <path id="Trazado_1852" data-name="Trazado 1852" d="M356.844,439.422v1.144a34.875,34.875,0,0,1-34.844,0v-1.144a17.422,17.422,0,1,1,34.844,0Z" transform="translate(-231.406 -302.37)" fill="#ff7b79"/>
        <ellipse id="Elipse_382" data-name="Elipse 382" cx="11.523" cy="11.862" rx="11.523" ry="11.862" transform="translate(96.509 90.408)" fill="#fce8d0"/>
        <path id="Trazado_1853" data-name="Trazado 1853" d="M108.266,348.266H85.036a23.23,23.23,0,0,1-23.229-23.229v-5.807H56L73.422,296l17.422,23.229H85.036v5.807A23.23,23.23,0,0,0,108.266,348.266Z" transform="translate(-42.643 -212.956)" fill="#b3f1ff"/>
        <path id="Trazado_1854" data-name="Trazado 1854" d="M104.844,187.422v1.144a34.876,34.876,0,0,1-34.844,0v-1.144a17.422,17.422,0,1,1,34.844,0Z" transform="translate(-52.578 -123.542)" fill="#ffda8f"/>
        <ellipse id="Elipse_383" data-name="Elipse 383" cx="11.523" cy="11.862" rx="11.523" ry="11.862" transform="translate(23.305 17.205)" fill="#c3906d"/>
      </g>
      <g id="Grupo_27602" data-name="Grupo 27602">
        <path id="Trazado_1855" data-name="Trazado 1855" d="M109.036,74.518A14.518,14.518,0,1,0,94.518,89.036,14.535,14.535,0,0,0,109.036,74.518ZM94.518,83.229a8.711,8.711,0,1,1,8.711-8.711A8.721,8.721,0,0,1,94.518,83.229Z" transform="translate(-56.771 -42.578)"/>
        <path id="Trazado_1856" data-name="Trazado 1856" d="M37.747,75.495A37.747,37.747,0,1,0,0,37.747,37.782,37.782,0,0,0,37.747,75.495Zm-14.5-9.288a14.515,14.515,0,0,1,29.007,0,31.957,31.957,0,0,1-29.007,0Zm14.5-60.4a31.934,31.934,0,0,1,19.915,56.9,20.328,20.328,0,0,0-39.83,0,31.934,31.934,0,0,1,19.915-56.9Z"/>
        <path id="Trazado_1857" data-name="Trazado 1857" d="M361.036,326.518a14.518,14.518,0,1,0-14.518,14.518A14.535,14.535,0,0,0,361.036,326.518Zm-14.518,8.711a8.711,8.711,0,1,1,8.711-8.711A8.721,8.721,0,0,1,346.518,335.229Z" transform="translate(-235.599 -221.407)"/>
        <path id="Trazado_1858" data-name="Trazado 1858" d="M289.747,252a37.747,37.747,0,1,0,37.747,37.747A37.79,37.79,0,0,0,289.747,252Zm-14.5,66.207a14.515,14.515,0,0,1,29.007,0,31.957,31.957,0,0,1-29.007,0Zm34.419-3.5a20.328,20.328,0,0,0-39.83,0,31.94,31.94,0,1,1,39.83,0Z" transform="translate(-178.828 -178.828)"/>
        <path id="Trazado_1859" data-name="Trazado 1859" d="M101.169,338.266A20.348,20.348,0,0,1,80.844,317.94v-2.9h2.9a2.9,2.9,0,0,0,2.323-4.646L68.648,287.162a2.9,2.9,0,0,0-4.646,0L46.581,310.391a2.9,2.9,0,0,0,2.323,4.646h2.9v2.9A26.162,26.162,0,0,0,77.94,344.073h23.229a2.9,2.9,0,0,0,0-5.807Zm-23.229,0A20.348,20.348,0,0,1,57.614,317.94v-5.807a2.9,2.9,0,0,0-2.9-2.9l11.615-15.486L77.94,309.229a2.9,2.9,0,0,0-2.9,2.9v5.807a26.1,26.1,0,0,0,9.725,20.326Z" transform="translate(-32.643 -202.956)"/>
        <path id="Trazado_1860" data-name="Trazado 1860" d="M268.9,31.807a20.348,20.348,0,0,1,20.326,20.325v2.9h-2.9A2.9,2.9,0,0,0,284,59.682l17.422,23.229a2.9,2.9,0,0,0,4.646,0l17.422-23.229a2.9,2.9,0,0,0-2.323-4.646h-2.9v-2.9c0-.783-.035-1.573-.1-2.35a2.9,2.9,0,1,0-5.784.517c.054.605.081,1.222.081,1.833V57.94a2.9,2.9,0,0,0,2.9,2.9L303.747,76.329,292.133,60.844a2.9,2.9,0,0,0,2.9-2.9V52.133a26.1,26.1,0,0,0-9.725-20.325h6.821a20.269,20.269,0,0,1,6.764,1.152,2.9,2.9,0,0,0,1.933-5.477,26.064,26.064,0,0,0-8.7-1.483H268.9a2.9,2.9,0,0,0,0,5.807Z" transform="translate(-188.763 -18.451)"/>
        <circle id="Elipse_384" data-name="Elipse 384" cx="2.711" cy="2.711" r="2.711" transform="translate(119.069 16.719)"/>
      </g>
    </g>
  </g>
</svg>
