<svg xmlns="http://www.w3.org/2000/svg" width="49" height="49" viewBox="0 0 49 49">
  <g id="Grupo_53867" data-name="Grupo 53867" transform="translate(-189 -1849.25)">
    <circle id="Elipse_379" data-name="Elipse 379" cx="24.5" cy="24.5" r="24.5" transform="translate(189 1849.25)" fill="#fa9500"/>
    <g id="datos-personales" transform="translate(199.763 1856.169)">
      <path id="Trazado_2001" data-name="Trazado 2001" d="M89.119,101.014H88V92.507l.479-.07a23.689,23.689,0,0,0,5.468-1.488l.421,1.038a24.88,24.88,0,0,1-5.248,1.483Zm0,0" transform="translate(-85.761 -84.62)" fill="#fff"/>
      <path id="Trazado_2002" data-name="Trazado 2002" d="M189.223,405.532l-5.023-3.347.621-.931,4.4,2.933,4.4-2.933.621.931Zm0,0" transform="translate(-175.23 -373.216)" fill="#fff"/>
      <path id="Trazado_2003" data-name="Trazado 2003" d="M408,120.156h1.119v8.022H408Zm0,0" transform="translate(-383.373 -111.785)" fill="#fff"/>
      <path id="Trazado_2004" data-name="Trazado 2004" d="M76.3,4.617A21.254,21.254,0,0,1,70.368.838L69.992.5l-.374.336A21.471,21.471,0,0,1,56.845,6.268L56,6.328V16.894a17.317,17.317,0,0,0,7.724,14.437l6.269,4.176,6.269-4.178a17.318,17.318,0,0,0,7.724-14.436V6.328l-.844-.056A21.218,21.218,0,0,1,76.3,4.617Zm6.565,12.277A16.2,16.2,0,0,1,75.637,30.4l-5.645,3.765L64.347,30.4a16.2,16.2,0,0,1-7.228-13.506V7.372A22.606,22.606,0,0,0,69.992,2a22.327,22.327,0,0,0,5.87,3.649,22.35,22.35,0,0,0,7,1.724Zm0,0" transform="translate(-55.999 -0.5)" fill="#fff"/>
      <path id="Trazado_2005" data-name="Trazado 2005" d="M128,132.225a8.955,8.955,0,1,0,8.955-8.955A8.955,8.955,0,0,0,128,132.225Zm14.552,5.473a7.811,7.811,0,0,1-11.194,0v-.681a.56.56,0,0,1,.424-.544l3.11-.779a1.929,1.929,0,0,0,1.5.961v2.285h1.119v-2.285a1.929,1.929,0,0,0,1.5-.961l3.11.778a.56.56,0,0,1,.424.543Zm-5.037-4.914H136.4l-1.119-.855v-2.5h2.239v-1.119h-3.078a2.393,2.393,0,0,1,2.028-1.119h1.61a.56.56,0,0,1,.56.56v4.182Zm.56.979v1.246c-.007.1-.094.574-1.119.574s-1.113-.48-1.119-.56v-1.26l.184.14h1.87Zm6.716-1.539a7.781,7.781,0,0,1-1.231,4.2,1.673,1.673,0,0,0-1.16-1.035l-3.205-.8v-1.676l.56-.426v-4.737a1.679,1.679,0,0,0-1.679-1.679h-1.61a3.511,3.511,0,0,0-3.41,2.662l-.174.7h1.277v3.058l.56.426v1.676l-3.206.8a1.673,1.673,0,0,0-1.16,1.035,7.832,7.832,0,1,1,14.44-4.2Zm0,0" transform="translate(-122.963 -114.681)" fill="#fff"/>
    </g>
  </g>
</svg>
