<svg xmlns="http://www.w3.org/2000/svg" width="190" height="141.591" viewBox="0 0 190 141.591">
  <g id="Grupo_27625" data-name="Grupo 27625" transform="translate(0 -54.953)">
    <g id="Background_Complete" data-name="Background Complete" transform="translate(0 54.953)">
      <g id="Grupo_27605" data-name="Grupo 27605">
        <g id="Grupo_27603" data-name="Grupo 27603">
          <rect id="Rectángulo_3082" data-name="Rectángulo 3082" width="190" height="0.095" transform="translate(0 124.429)" fill="#ebebeb"/>
          <path id="Trazado_1884" data-name="Trazado 1884" d="M113.754,162.435H40.376a2.172,2.172,0,0,1-2.169-2.169V57.122a2.171,2.171,0,0,1,2.169-2.169h73.378a2.171,2.171,0,0,1,2.169,2.169V160.266A2.172,2.172,0,0,1,113.754,162.435ZM40.376,55.048A2.076,2.076,0,0,0,38.3,57.122V160.266a2.076,2.076,0,0,0,2.074,2.074h73.378a2.076,2.076,0,0,0,2.074-2.074V57.122a2.076,2.076,0,0,0-2.074-2.074Z" transform="translate(-23.688 -54.953)" fill="#ebebeb"/>
          <path id="Trazado_1885" data-name="Trazado 1885" d="M330.051,162.435H256.674a2.171,2.171,0,0,1-2.169-2.169V57.122a2.171,2.171,0,0,1,2.169-2.169h73.377a2.171,2.171,0,0,1,2.169,2.169V160.266A2.172,2.172,0,0,1,330.051,162.435ZM256.674,55.048a2.076,2.076,0,0,0-2.074,2.074V160.266a2.076,2.076,0,0,0,2.074,2.074h73.377a2.076,2.076,0,0,0,2.074-2.074V57.122a2.076,2.076,0,0,0-2.074-2.074Z" transform="translate(-157.793 -54.953)" fill="#ebebeb"/>
        </g>
        <g id="Grupo_27604" data-name="Grupo 27604" transform="translate(19.486 127.017)">
          <rect id="Rectángulo_3083" data-name="Rectángulo 3083" width="9.879" height="0.095" transform="translate(0 1.031)" fill="#ebebeb"/>
          <rect id="Rectángulo_3084" data-name="Rectángulo 3084" width="17.11" height="0.095" transform="translate(35.672)" fill="#ebebeb"/>
          <rect id="Rectángulo_3085" data-name="Rectángulo 3085" width="23.101" height="0.095" transform="translate(10.259 4.56)" fill="#ebebeb"/>
          <rect id="Rectángulo_3086" data-name="Rectángulo 3086" width="7.309" height="0.095" transform="translate(143.719 3.921)" fill="#ebebeb"/>
          <rect id="Rectángulo_3087" data-name="Rectángulo 3087" width="21.011" height="0.095" transform="translate(119.325 3.921)" fill="#ebebeb"/>
          <rect id="Rectángulo_3088" data-name="Rectángulo 3088" width="28.297" height="0.095" transform="translate(78.192 2.317)" fill="#ebebeb"/>
        </g>
      </g>
      <g id="Grupo_27615" data-name="Grupo 27615" transform="translate(26.222 10.436)">
        <g id="Grupo_27608" data-name="Grupo 27608" transform="translate(0.786 66.51)">
          <g id="Grupo_27606" data-name="Grupo 27606" transform="translate(15.456)">
            <path id="Trazado_1886" data-name="Trazado 1886" d="M133.746,271.969h-20.74l-1.259-14.524h20.74Z" transform="translate(-111.747 -257.444)" fill="#e6e6e6"/>
            <path id="Trazado_1887" data-name="Trazado 1887" d="M136.573,271.969h-20.74l-1.259-14.524h20.74Z" transform="translate(-113.499 -257.444)" fill="#f0f0f0"/>
            <path id="Trazado_1888" data-name="Trazado 1888" d="M124.219,273.939l-.691-8.287h14.5l.691,8.287Z" transform="translate(-119.051 -262.533)" fill="#fff"/>
          </g>
          <g id="Grupo_27607" data-name="Grupo 27607" transform="translate(0 14.524)">
            <rect id="Rectángulo_3089" data-name="Rectángulo 3089" width="2.961" height="32.957" transform="translate(47.782)" fill="#e6e6e6"/>
            <rect id="Rectángulo_3090" data-name="Rectángulo 3090" width="2.056" height="32.957" transform="translate(49.621)" fill="#f0f0f0"/>
            <rect id="Rectángulo_3091" data-name="Rectángulo 3091" width="28.656" height="3.638" transform="translate(51.677 3.638) rotate(180)" fill="#f0f0f0"/>
            <rect id="Rectángulo_3092" data-name="Rectángulo 3092" width="2.961" height="29.32" transform="translate(21.074 3.638)" fill="#e6e6e6"/>
            <rect id="Rectángulo_3093" data-name="Rectángulo 3093" width="2.056" height="29.32" transform="translate(22.913 3.638)" fill="#f0f0f0"/>
            <rect id="Rectángulo_3094" data-name="Rectángulo 3094" width="2.961" height="29.32" transform="translate(0 3.638)" fill="#e6e6e6"/>
            <rect id="Rectángulo_3095" data-name="Rectángulo 3095" width="2.056" height="29.32" transform="translate(1.839 3.638)" fill="#f0f0f0"/>
            <rect id="Rectángulo_3096" data-name="Rectángulo 3096" width="2.961" height="29.32" transform="translate(29.047 3.638)" fill="#e6e6e6"/>
            <rect id="Rectángulo_3097" data-name="Rectángulo 3097" width="2.056" height="29.32" transform="translate(30.885 3.638)" fill="#f0f0f0"/>
            <rect id="Rectángulo_3098" data-name="Rectángulo 3098" width="23.021" height="3.638" fill="#e6e6e6"/>
          </g>
        </g>
        <g id="Grupo_27609" data-name="Grupo 27609">
          <rect id="Rectángulo_3099" data-name="Rectángulo 3099" width="85.967" height="49.316" fill="#e6e6e6"/>
          <rect id="Rectángulo_3100" data-name="Rectángulo 3100" width="87.191" height="49.316" transform="translate(1.074)" fill="#f0f0f0"/>
          <rect id="Rectángulo_3101" data-name="Rectángulo 3101" width="85.967" height="4.27" transform="translate(0 49.316)" fill="#e6e6e6"/>
          <rect id="Rectángulo_3102" data-name="Rectángulo 3102" width="87.191" height="4.27" transform="translate(4.902 49.316)" fill="#f0f0f0"/>
          <rect id="Rectángulo_3103" data-name="Rectángulo 3103" width="42.882" height="80.757" transform="translate(85.048 3.217) rotate(90)" fill="#fafafa"/>
          <path id="Trazado_1889" data-name="Trazado 1889" d="M95.908,133.765l18.881-42.882H123.7l-18.881,42.882Z" transform="translate(-85.685 -87.666)" fill="#fff"/>
          <path id="Trazado_1890" data-name="Trazado 1890" d="M83.841,133.6a.23.23,0,0,1-.23-.23V96.016a.23.23,0,0,1,.46,0v37.358A.23.23,0,0,1,83.841,133.6Z" transform="translate(-78.061 -90.706)" fill="#f0f0f0"/>
          <path id="Trazado_1891" data-name="Trazado 1891" d="M124.4,133.765l18.881-42.882h3.475l-18.881,42.882Z" transform="translate(-103.351 -87.666)" fill="#fff"/>
          <rect id="Rectángulo_3104" data-name="Rectángulo 3104" width="42.882" height="0.409" transform="translate(85.048 3.217) rotate(90)" fill="#e6e6e6"/>
          <path id="Trazado_1892" data-name="Trazado 1892" d="M162.538,97.773H76.571l-.3-3.6h85.967Z" transform="translate(-73.513 -89.706)" fill="#ebebeb" opacity="0.6"/>
          <path id="Trazado_1893" data-name="Trazado 1893" d="M162.538,113.311H76.571l-.3-3.6h85.967Z" transform="translate(-73.513 -99.339)" fill="#ebebeb" opacity="0.6"/>
          <path id="Trazado_1894" data-name="Trazado 1894" d="M162.538,128.848H76.571l-.3-3.6h85.967Z" transform="translate(-73.513 -108.972)" fill="#ebebeb" opacity="0.6"/>
          <path id="Trazado_1895" data-name="Trazado 1895" d="M162.538,144.385H76.571l-.3-3.6h85.967Z" transform="translate(-73.513 -118.605)" fill="#ebebeb" opacity="0.6"/>
          <path id="Trazado_1896" data-name="Trazado 1896" d="M162.538,159.922H76.571l-.3-3.6h85.967Z" transform="translate(-73.513 -128.238)" fill="#ebebeb" opacity="0.6"/>
          <path id="Trazado_1897" data-name="Trazado 1897" d="M162.538,175.46H76.571l-.3-3.6h85.967Z" transform="translate(-73.513 -137.872)" fill="#ebebeb" opacity="0.6"/>
        </g>
        <g id="Grupo_27612" data-name="Grupo 27612" transform="translate(103.635)">
          <g id="Grupo_27610" data-name="Grupo 27610" transform="translate(7.977)">
            <rect id="Rectángulo_3105" data-name="Rectángulo 3105" width="23.148" height="23.148" transform="translate(24.175 23.148) rotate(180)" fill="#ebebeb"/>
            <rect id="Rectángulo_3106" data-name="Rectángulo 3106" width="1.026" height="23.148" fill="#e0e0e0"/>
            <rect id="Rectángulo_3107" data-name="Rectángulo 3107" width="16.876" height="16.876" transform="translate(21.039 20.012) rotate(180)" fill="#fff"/>
            <rect id="Rectángulo_3108" data-name="Rectángulo 3108" width="7.987" height="7.987" transform="translate(18.249 11.574) rotate(135)" fill="#f5f5f5"/>
          </g>
          <g id="Grupo_27611" data-name="Grupo 27611" transform="translate(0 30.438)">
            <rect id="Rectángulo_3109" data-name="Rectángulo 3109" width="23.148" height="23.148" transform="translate(24.175 23.148) rotate(180)" fill="#ebebeb"/>
            <rect id="Rectángulo_3110" data-name="Rectángulo 3110" width="1.026" height="23.148" transform="translate(0 0)" fill="#e0e0e0"/>
            <rect id="Rectángulo_3111" data-name="Rectángulo 3111" width="16.876" height="16.876" transform="translate(21.039 20.012) rotate(180)" fill="#fff"/>
            <rect id="Rectángulo_3112" data-name="Rectángulo 3112" width="7.196" height="7.196" rx="3.598" transform="translate(16.199 15.172) rotate(180)" fill="#f5f5f5"/>
          </g>
        </g>
        <g id="Grupo_27614" data-name="Grupo 27614" transform="translate(83.81 62.415)">
          <g id="Grupo_27613" data-name="Grupo 27613" transform="translate(1.131 2.42)">
            <rect id="Rectángulo_3113" data-name="Rectángulo 3113" width="5.772" height="47.605" transform="translate(0 0)" fill="#f0f0f0"/>
            <rect id="Rectángulo_3114" data-name="Rectángulo 3114" width="55.427" height="1.554" transform="translate(0.8 47.605)" fill="#f0f0f0"/>
            <rect id="Rectángulo_3115" data-name="Rectángulo 3115" width="51.254" height="47.605" transform="translate(57.026 47.605) rotate(180)" fill="#fafafa"/>
            <path id="Trazado_1898" data-name="Trazado 1898" d="M356.258,308.123H325.074a5.552,5.552,0,1,1,0-11.1h31.184a5.552,5.552,0,1,1,0,11.1Zm-31.184-10.73a5.179,5.179,0,1,0,0,10.357h31.184a5.179,5.179,0,1,0,0-10.357Z" transform="translate(-309.267 -280.305)" fill="#f0f0f0"/>
            <path id="Trazado_1899" data-name="Trazado 1899" d="M356.258,344.469H325.074a5.552,5.552,0,1,1,0-11.1h31.184a5.552,5.552,0,1,1,0,11.1Zm-31.184-10.73a5.179,5.179,0,1,0,0,10.358h31.184a5.179,5.179,0,1,0,0-10.358Z" transform="translate(-309.267 -302.839)" fill="#f0f0f0"/>
            <path id="Trazado_1900" data-name="Trazado 1900" d="M370.3,304.7h-9.411a1.162,1.162,0,0,1-1.158-1.158h0a1.162,1.162,0,0,1,1.158-1.158H370.3a1.161,1.161,0,0,1,1.158,1.158h0A1.162,1.162,0,0,1,370.3,304.7Z" transform="translate(-334.198 -283.63)" fill="#ebebeb"/>
            <path id="Trazado_1901" data-name="Trazado 1901" d="M356.258,271.777H325.074a5.552,5.552,0,1,1,0-11.1h31.184a5.552,5.552,0,1,1,0,11.1Zm-31.184-10.731a5.179,5.179,0,1,0,0,10.358h31.184a5.179,5.179,0,1,0,0-10.358Z" transform="translate(-309.267 -257.77)" fill="#f0f0f0"/>
            <path id="Trazado_1902" data-name="Trazado 1902" d="M370.3,268.353h-9.411a1.162,1.162,0,0,1-1.158-1.158h0a1.162,1.162,0,0,1,1.158-1.158H370.3a1.161,1.161,0,0,1,1.158,1.158h0A1.162,1.162,0,0,1,370.3,268.353Z" transform="translate(-334.198 -261.095)" fill="#ebebeb"/>
            <path id="Trazado_1903" data-name="Trazado 1903" d="M370.3,341.044h-9.411a1.162,1.162,0,0,1-1.158-1.158h0a1.162,1.162,0,0,1,1.158-1.158H370.3a1.162,1.162,0,0,1,1.158,1.158h0A1.161,1.161,0,0,1,370.3,341.044Z" transform="translate(-334.198 -306.164)" fill="#ebebeb"/>
          </g>
          <rect id="Rectángulo_3116" data-name="Rectángulo 3116" width="52.308" height="2.42" transform="translate(6.904 0)" fill="#f0f0f0"/>
          <rect id="Rectángulo_3117" data-name="Rectángulo 3117" width="6.904" height="2.42" transform="translate(6.904 2.42) rotate(180)" fill="#e6e6e6"/>
        </g>
      </g>
    </g>
    <g id="Shadow" transform="translate(21.322 187.938)">
      <ellipse id="_Path_" data-name="&lt;Path&gt;" cx="73.678" cy="4.303" rx="73.678" ry="4.303" fill="#f5f5f5"/>
    </g>
    <g id="Terms_and_Conditions" data-name="Terms and Conditions" transform="translate(76.374 90.398)">
      <g id="Grupo_27618" data-name="Grupo 27618" transform="translate(0 0)">
        <g id="Grupo_27616" data-name="Grupo 27616">
          <path id="Trazado_1904" data-name="Trazado 1904" d="M281.795,148.229H224.522s-10.319,9.487-10.319,32.6c0,19.862,7.822,46.791,4.886,57.817-2.215,8.317-12.959,9.745-18.1,9.944H255.5s17.928,1.082,20.864-9.944-4.886-37.955-4.886-57.817C271.476,157.716,281.795,148.229,281.795,148.229Z" transform="translate(-200.985 -148.229)" fill="#fa9500"/>
          <path id="Trazado_1905" data-name="Trazado 1905" d="M281.795,148.229H224.522s-10.319,9.487-10.319,32.6c0,19.862,7.822,46.791,4.886,57.817-2.215,8.317-12.959,9.745-18.1,9.944H255.5s17.928,1.082,20.864-9.944-4.886-37.955-4.886-57.817C271.476,157.716,281.795,148.229,281.795,148.229Z" transform="translate(-200.985 -148.229)" fill="#fff" opacity="0.7"/>
        </g>
        <g id="Grupo_27617" data-name="Grupo 27617" transform="translate(18.918 5.7)" opacity="0.8">
          <path id="Trazado_1906" data-name="Trazado 1906" d="M297.905,181.888H252.1c1.3-10.161,4.788-16.074,6.715-18.658h44.148A57.839,57.839,0,0,0,297.905,181.888Z" transform="translate(-251.595 -163.23)" fill="#ffb74d"/>
          <path id="Trazado_1907" data-name="Trazado 1907" d="M296.79,222.127H250.92c.038-.923.091-1.82.167-2.687H296.93Q296.833,220.751,296.79,222.127Z" transform="translate(-250.863 -198.08)" fill="#fa9500" opacity="0.3"/>
          <path id="Trazado_1908" data-name="Trazado 1908" d="M265.209,236.3h-14.4q-.04-1.288-.042-2.535v-.148h14.4v.148C265.171,234.6,265.182,235.452,265.209,236.3Z" transform="translate(-250.77 -206.872)" fill="#fa9500" opacity="0.3"/>
          <path id="Trazado_1909" data-name="Trazado 1909" d="M297.249,250.473H251.414c-.08-.9-.144-1.8-.194-2.683h45.855Q297.143,249.124,297.249,250.473Z" transform="translate(-251.049 -215.657)" fill="#fa9500" opacity="0.3"/>
          <path id="Trazado_1910" data-name="Trazado 1910" d="M298.474,264.647h-45.8q-.16-1.351-.3-2.687H298.2C298.28,262.853,298.375,263.75,298.474,264.647Z" transform="translate(-251.768 -224.443)" fill="#fa9500" opacity="0.3"/>
          <path id="Trazado_1911" data-name="Trazado 1911" d="M300.164,278.823H254.4c-.125-.9-.243-1.794-.357-2.683h45.782Q299.982,277.48,300.164,278.823Z" transform="translate(-252.797 -233.234)" fill="#fa9500" opacity="0.3"/>
          <path id="Trazado_1912" data-name="Trazado 1912" d="M302.13,292.993H256.385q-.2-1.345-.4-2.683h45.756C301.871,291.2,302,292.1,302.13,292.993Z" transform="translate(-254.006 -242.02)" fill="#fa9500" opacity="0.3"/>
          <path id="Trazado_1913" data-name="Trazado 1913" d="M304.247,307.167H258.507c-.072-.49-.148-.988-.224-1.486-.061-.4-.122-.8-.182-1.2h45.741C303.977,305.377,304.11,306.274,304.247,307.167Z" transform="translate(-255.315 -250.805)" fill="#fa9500" opacity="0.3"/>
          <path id="Trazado_1914" data-name="Trazado 1914" d="M260.631,321.343q-.188-1.328-.391-2.683h45.744c.133.9.27,1.79.4,2.683Z" transform="translate(-256.641 -259.597)" fill="#fa9500" opacity="0.3"/>
          <path id="Trazado_1915" data-name="Trazado 1915" d="M262.616,335.513c-.106-.878-.224-1.775-.346-2.683h38.151c.129.9.251,1.8.365,2.683Z" transform="translate(-257.9 -268.382)" fill="#fa9500" opacity="0.3"/>
          <path id="Trazado_1916" data-name="Trazado 1916" d="M264.251,349.687Q264.143,348.37,264,347h45.8c.1.92.2,1.816.277,2.687Z" transform="translate(-258.973 -277.167)" fill="#fa9500" opacity="0.3"/>
          <path id="Trazado_1917" data-name="Trazado 1917" d="M265.214,363.863c0-.866-.034-1.763-.084-2.683h24.164c.061.939.095,1.835.106,2.683Z" transform="translate(-259.673 -285.959)" fill="#fa9500" opacity="0.3"/>
        </g>
        <path id="Trazado_1918" data-name="Trazado 1918" d="M297.52,402.564c-2.907.529-5.852.125-8.775-.016a23.236,23.236,0,0,0-4.2.113,18.866,18.866,0,0,1-4.106.418,7.627,7.627,0,0,0,1.282-.871.144.144,0,0,0-.063-.238c-4.29-1.505-8.2,2.595-12.47,1.634,1.209-.9,2.916-.915,3.95-2.092a.144.144,0,0,0-.1-.243c-3.828-.06-7.443,1.424-11.227,1.754-.181.016-.183.3,0,.285,3.668-.32,7.182-1.721,10.879-1.751-1.1.987-2.792,1.023-3.917,2.017a.144.144,0,0,0,.063.238c4.307,1.189,8.231-2.921,12.484-1.65a7.316,7.316,0,0,1-1.439.878.144.144,0,0,0,.034.26,12.78,12.78,0,0,0,4.155-.285,22.686,22.686,0,0,1,4.68-.184c2.951.143,5.915.54,8.851.007C297.776,402.806,297.7,402.531,297.52,402.564Z" transform="translate(-238.609 -305.113)" fill="#407bff"/>
      </g>
    </g>
    <g id="Character" transform="translate(35.527 87.149)">
      <g id="Grupo_27624" data-name="Grupo 27624">
        <g id="Grupo_27623" data-name="Grupo 27623">
          <path id="Trazado_1919" data-name="Trazado 1919" d="M147.407,185.128c.241.307.547.669.83,1s.589.674.894,1c.612.652,1.231,1.3,1.885,1.892a17.074,17.074,0,0,0,4.173,2.925c.183.082.366.161.55.227.1.039.179.067.258.09a2.062,2.062,0,0,0,.25.073,6.154,6.154,0,0,0,1.115.173,12.213,12.213,0,0,0,2.514-.143,23.454,23.454,0,0,0,2.62-.556c.872-.228,1.765-.511,2.6-.8l.769,1.506a21.289,21.289,0,0,1-5.433,2.416,13.138,13.138,0,0,1-3.1.5,8.26,8.26,0,0,1-1.7-.114c-.145-.022-.291-.054-.439-.091s-.294-.072-.42-.114c-.266-.078-.524-.168-.778-.264a17.914,17.914,0,0,1-5.229-3.3,28.12,28.12,0,0,1-2.155-2.075q-.507-.546-.99-1.113c-.329-.385-.624-.751-.953-1.2Z" transform="translate(-125.221 -167.857)" fill="#ffb573"/>
          <path id="Trazado_1920" data-name="Trazado 1920" d="M141.7,177.929a32.507,32.507,0,0,0,.742,5.964l5.268-.638s.193-5.614-.828-6.971C145.17,174,141.782,175.919,141.7,177.929Z" transform="translate(-123.379 -161.732)" fill="#ffee58"/>
          <path id="Trazado_1921" data-name="Trazado 1921" d="M196.618,198.372l2.468-2.258.314,2.431s-1.023,1.37-2.182.794Z" transform="translate(-157.43 -174.668)" fill="#ffb573"/>
          <path id="Trazado_1922" data-name="Trazado 1922" d="M204.352,196.245l1.045,1.37-1.969.93-.314-2.431Z" transform="translate(-161.458 -174.669)" fill="#ffb573"/>
          <g id="Grupo_27620" data-name="Grupo 27620" transform="translate(40.633 15.417)">
            <path id="Trazado_1923" data-name="Trazado 1923" d="M202.06,180.256c.261-.016.405,0,.593,0a1.559,1.559,0,0,1,.237.016l.2.027a1,1,0,0,1,.47.19.558.558,0,0,1,.13.277l.088.288.353,1.154.7,2.308,1.41,4.615c.931,3.079,1.9,6.148,2.8,9.236,1.844,6.163,3.589,12.351,5.3,18.548s3.324,12.42,4.98,18.631a104.967,104.967,0,0,1,3.667,18.971,1.886,1.886,0,0,1-3.6.932,104.916,104.916,0,0,1-6.006-18.365c-1.569-6.234-3.181-12.457-4.693-18.706s-2.99-12.506-4.371-18.789c-.714-3.135-1.358-6.289-2.039-9.433l-1.008-4.719-.5-2.359-.252-1.18-.063-.295a.559.559,0,0,1-.021-.306,1,1,0,0,1,.319-.394l.16-.119a1.511,1.511,0,0,1,.2-.13c.163-.094.281-.177.517-.29A1.161,1.161,0,0,1,202.06,180.256Z" transform="translate(-200.421 -180.249)" fill="#263238"/>
            <g id="Grupo_27619" data-name="Grupo 27619" transform="translate(19.736 74.908)">
              <path id="Trazado_1924" data-name="Trazado 1924" d="M254.831,377.676a.412.412,0,0,0-.5-.286l-.836.217-.836.217a.412.412,0,0,0-.294.491c.523,2.391.012,4.107.557,6.211A5.946,5.946,0,0,0,256,387.876l-.082-.944.387.865a5.945,5.945,0,0,0,1.057-4.42C256.815,381.273,255.535,380.02,254.831,377.676Z" transform="translate(-252.359 -377.377)" fill="#407bff"/>
              <path id="Trazado_1925" data-name="Trazado 1925" d="M254.831,377.676a.412.412,0,0,0-.5-.286l-.836.217-.836.217a.412.412,0,0,0-.294.491c.523,2.391.012,4.107.557,6.211A5.946,5.946,0,0,0,256,387.876l-.082-.944.387.865a5.945,5.945,0,0,0,1.057-4.42C256.815,381.273,255.535,380.02,254.831,377.676Z" transform="translate(-252.359 -377.377)" fill="#fff" opacity="0.3"/>
            </g>
            <path id="Trazado_1926" data-name="Trazado 1926" d="M258.894,391.982a.523.523,0,1,1-.638-.375A.523.523,0,0,1,258.894,391.982Z" transform="translate(-236.036 -311.28)" fill="#263238"/>
            <path id="Trazado_1927" data-name="Trazado 1927" d="M260.019,396.519a.119.119,0,0,1-.144-.085l-.94-3.631a.118.118,0,1,1,.229-.059l.941,3.631A.119.119,0,0,1,260.019,396.519Z" transform="translate(-236.697 -311.941)" fill="#263238"/>
            <path id="Trazado_1928" data-name="Trazado 1928" d="M244.215,342.041l-5.122,1.327a.554.554,0,0,1-.674-.4h0a.555.555,0,0,1,.4-.674l5.121-1.327a.555.555,0,0,1,.674.4h0A.555.555,0,0,1,244.215,342.041Z" transform="translate(-223.969 -279.885)" fill="#fa9500"/>
          </g>
          <path id="Trazado_1929" data-name="Trazado 1929" d="M185.2,160.29c-.092.228-.045.466.1.531s.345-.068.436-.3.045-.466-.1-.53S185.29,160.062,185.2,160.29Z" transform="translate(-150.321 -152.264)" fill="#263238"/>
          <path id="Trazado_1930" data-name="Trazado 1930" d="M186.236,159.979l.612.079S186.394,160.365,186.236,159.979Z" transform="translate(-150.993 -152.265)" fill="#263238"/>
          <path id="Trazado_1931" data-name="Trazado 1931" d="M184.492,161.6a6.788,6.788,0,0,0,.229,1.811,1.069,1.069,0,0,1-.875-.2Z" transform="translate(-149.512 -153.273)" fill="#ed893e"/>
          <path id="Trazado_1932" data-name="Trazado 1932" d="M185.613,156.1a.143.143,0,0,1-.063-.032,1.2,1.2,0,0,0-1.029-.3.145.145,0,0,1-.074-.281,1.5,1.5,0,0,1,1.293.356.145.145,0,0,1-.126.252Z" transform="translate(-149.817 -149.465)" fill="#263238"/>
          <path id="Trazado_1933" data-name="Trazado 1933" d="M161.051,160.49c.165,1.849-.454,4.879-1.851,5.911,0,0,1.052,1.946,4.423,2.4,3.707.5,1.966-1.589,1.966-1.589-1.972-.751-1.762-2.234-1.261-3.586Z" transform="translate(-134.231 -152.582)" fill="#ffb573"/>
          <path id="Trazado_1934" data-name="Trazado 1934" d="M185.134,186.475c.29,1.728.651,3.517,1.028,5.26.2.872.4,1.743.639,2.6.218.864.47,1.71.734,2.55.142.412.271.835.423,1.239l.228.608.056.149.014.043a.493.493,0,0,0,.028.07.594.594,0,0,0,.357.278,3.246,3.246,0,0,0,.932.178,11.045,11.045,0,0,0,2.432-.2c.842-.149,1.726-.355,2.551-.585l.7,1.541c-.437.262-.852.473-1.292.683s-.881.4-1.341.572a11.238,11.238,0,0,1-2.984.712,5.573,5.573,0,0,1-1.793-.122,3.6,3.6,0,0,1-1.933-1.165,3.419,3.419,0,0,1-.352-.5c-.051-.087-.093-.176-.138-.265l-.075-.169-.3-.665c-.2-.444-.365-.891-.543-1.338-.327-.9-.638-1.8-.91-2.7s-.51-1.817-.742-2.728c-.455-1.832-.821-3.643-1.1-5.541Z" transform="translate(-148.216 -168.692)" fill="#ffb573"/>
          <path id="Trazado_1935" data-name="Trazado 1935" d="M213.764,216.939l1.467-1.164.659,2.26s-2.007,1.451-2.543-.255Z" transform="translate(-167.802 -186.858)" fill="#ffb573"/>
          <path id="Trazado_1936" data-name="Trazado 1936" d="M219.628,216.177l.524,1.647-1.189.211-.659-2.26Z" transform="translate(-170.876 -186.858)" fill="#ffb573"/>
          <path id="Trazado_1937" data-name="Trazado 1937" d="M149.667,395.924l3.066.226.911-7.041-3.066-.226Z" transform="translate(-128.321 -294.185)" fill="#ffb573"/>
          <path id="Trazado_1938" data-name="Trazado 1938" d="M97.992,374.867l2.656,1.615,4.418-5.518-2.656-1.615Z" transform="translate(-96.282 -282.074)" fill="#ffb573"/>
          <path id="Trazado_1939" data-name="Trazado 1939" d="M107.926,388.555a.385.385,0,0,1-.111.014c-.391-.008-.832-.6-1.061-.945a.072.072,0,0,1,.075-.111c.125.025,1.222.255,1.366.622a.248.248,0,0,1-.036.243A.438.438,0,0,1,107.926,388.555Zm-.948-.861c.321.455.629.725.84.729a.263.263,0,0,0,.223-.13.1.1,0,0,0,.019-.105C107.985,387.995,107.415,387.8,106.978,387.694Z" transform="translate(-101.708 -293.335)" fill="#407bff"/>
          <path id="Trazado_1940" data-name="Trazado 1940" d="M107.764,386.619a2.2,2.2,0,0,1-.967.048.073.073,0,0,1-.033-.121c.025-.026.629-.645,1.071-.627a.39.39,0,0,1,.3.147.254.254,0,0,1,.038.318A.714.714,0,0,1,107.764,386.619Zm-.8-.068a1.541,1.541,0,0,0,1.08-.244c.019-.029.033-.073-.028-.147a.248.248,0,0,0-.19-.094A1.622,1.622,0,0,0,106.967,386.55Z" transform="translate(-101.708 -292.348)" fill="#407bff"/>
          <path id="Trazado_1941" data-name="Trazado 1941" d="M98.655,382.485l-2.52-2.426a.244.244,0,0,0-.322-.024l-2.15,1.659a.491.491,0,0,0-.013.733c.893.831,1.364,1.189,2.472,2.256.682.656,1.612,1.684,2.553,2.59.921.887,1.862.051,1.549-.409A6.14,6.14,0,0,1,98.9,382.98.827.827,0,0,0,98.655,382.485Z" transform="translate(-93.492 -288.669)" fill="#263238"/>
          <path id="Trazado_1942" data-name="Trazado 1942" d="M159.572,407a5.167,5.167,0,0,1-.963-.11.073.073,0,0,1-.019-.136c.141-.072,1.384-.7,1.752-.489a.228.228,0,0,1,.117.194.411.411,0,0,1-.14.353A1.174,1.174,0,0,1,159.572,407Zm-.72-.213a1.972,1.972,0,0,0,1.371-.084.27.27,0,0,0,.091-.234.085.085,0,0,0-.044-.076C160.068,406.278,159.362,406.546,158.852,406.787Z" transform="translate(-133.829 -304.936)" fill="#407bff"/>
          <path id="Trazado_1943" data-name="Trazado 1943" d="M158.624,405.717a.071.071,0,0,1-.043-.014.074.074,0,0,1-.03-.067c.006-.055.147-1.309.834-1.309l.06,0c.2.02.256.121.269.2.055.347-.686,1.011-1.061,1.178A.066.066,0,0,1,158.624,405.717Zm.764-1.243c-.442,0-.617.728-.671,1.04.382-.228.887-.75.853-.958,0-.017-.011-.067-.14-.08Z" transform="translate(-133.829 -303.761)" fill="#407bff"/>
          <path id="Trazado_1944" data-name="Trazado 1944" d="M151.442,406.857H148a.251.251,0,0,0-.25.209l-.463,2.727a.479.479,0,0,0,.478.546c1.2-.021,1.783-.091,3.3-.091.932,0,2.859.1,4.146.1,1.259,0,1.389-1.273.856-1.388a8.074,8.074,0,0,1-4.111-1.91A.783.783,0,0,0,151.442,406.857Z" transform="translate(-126.839 -305.329)" fill="#263238"/>
          <g id="Grupo_27621" data-name="Grupo 27621" transform="translate(4.24 87.276)">
            <path id="Trazado_1945" data-name="Trazado 1945" d="M154.359,389.114l-.505,3.913-3.031-.507.469-3.632Z" transform="translate(-133.278 -381.464)" opacity="0.2"/>
            <path id="Trazado_1946" data-name="Trazado 1946" d="M106.537,369.352l2.657,1.616-1.829,2.282-2.714-1.545Z" transform="translate(-104.652 -369.352)" opacity="0.2"/>
          </g>
          <path id="Trazado_1947" data-name="Trazado 1947" d="M145.539,194.03c2.4.321,7.492,1.005,12.416,1.668,4.81-17.412,3.392-17.889,3.392-17.889a12.277,12.277,0,0,0-1.69-.662q-.878-.317-1.774-.583a31.78,31.78,0,0,0-10.867-1.253,1.624,1.624,0,0,0-1.218.694,1.782,1.782,0,0,0-.133.238,1.731,1.731,0,0,0-.149.925C146.574,186.33,146.236,189.343,145.539,194.03Z" transform="translate(-125.739 -161.737)" fill="#ffee58"/>
          <path id="Trazado_1948" data-name="Trazado 1948" d="M181.294,192.818a10.386,10.386,0,0,0,.671,5.337c.826-3.4,1.272-5.716,1.495-7.3C182.513,190.79,181.527,191.153,181.294,192.818Z" transform="translate(-147.868 -171.405)" opacity="0.2"/>
          <path id="Trazado_1949" data-name="Trazado 1949" d="M182.59,181.7c2.125,1.218,3.6,4.117,4.049,5.8l-4.528,4.149s-2.349-5.461-2.16-7.158C180.143,182.778,181.786,181.242,182.59,181.7Z" transform="translate(-147.09 -165.682)" fill="#ffee58"/>
          <path id="Trazado_1950" data-name="Trazado 1950" d="M164.179,145.854c-.953,2.88-1.418,4.077-.58,6.131,1.261,3.09,5,3.741,6.791,1.23,1.613-2.26,2.9-6.591.6-8.9A4.057,4.057,0,0,0,164.179,145.854Z" transform="translate(-136.688 -141.766)" fill="#ffb573"/>
          <path id="Trazado_1951" data-name="Trazado 1951" d="M177.984,156.4a2.745,2.745,0,0,0-.091,1.653c.188.769.762.823,1.112.333a2.041,2.041,0,0,0,.213-2.012C178.84,155.741,178.229,155.816,177.984,156.4Z" transform="translate(-145.768 -149.754)" fill="#ffb573"/>
          <path id="Trazado_1952" data-name="Trazado 1952" d="M157.61,140.181c-2.05-1.14-5.743,2.2-6.671,7.641-.665,3.9,7.661,5.785,12.919,5.722-.347-.918-2.532-3.685-1.138-6.347,1.013-1.935,2.169-1.488,2.244-3.739C165.058,140.624,161.3,138.724,157.61,140.181Z" transform="translate(-129.086 -139.678)" fill="#263238"/>
          <path id="Trazado_1953" data-name="Trazado 1953" d="M179.907,144.2c2.384-.232,4.784,2.111,3,4.449a3.779,3.779,0,0,0-3.13-.754C178.691,148.129,179.907,144.2,179.907,144.2Z" transform="translate(-146.709 -142.469)" fill="#263238"/>
          <path id="Trazado_1954" data-name="Trazado 1954" d="M129.3,225.887s-4.821,20.378-7.074,32.083c-2.377,12.35-13.783,25.216-13.783,25.216l-3.874-2.16s7.176-11.745,9.5-23.276c4.726-23.408,1.526-28.123,6.088-33.09Z" transform="translate(-100.359 -192.368)" fill="#263238"/>
          <path id="Trazado_1955" data-name="Trazado 1955" d="M107.879,372.9l-4.836-2.7.706-1.429,5.425,2.5Z" transform="translate(-99.414 -281.72)" fill="#fa9500"/>
          <path id="Trazado_1956" data-name="Trazado 1956" d="M157.691,238.627c-3.749,3.254-3.343,14.8-2.951,20.008,1.574-7.4,3.464-15.64,4.572-20.408C158.917,237.931,158.38,238.029,157.691,238.627Z" transform="translate(-131.315 -200.678)" opacity="0.2"/>
          <path id="Trazado_1957" data-name="Trazado 1957" d="M159.953,227.084s2.169,24.191.986,33.419c-1.231,9.6-7.494,30.481-7.494,30.481l-4.422-.571s3.593-20.694,4.231-30.2c.7-10.36-2.393-34.353-2.393-34.353Z" transform="translate(-127.921 -193.113)" fill="#263238"/>
          <path id="Trazado_1958" data-name="Trazado 1958" d="M152.851,393.533l-6.3-.814.1-1.862,6.838.663Z" transform="translate(-126.387 -295.409)" fill="#fa9500"/>
          <g id="Grupo_27622" data-name="Grupo 27622" transform="translate(19 31.477)">
            <path id="Trazado_1959" data-name="Trazado 1959" d="M144.184,222.58l-.677,1.028c-.052.08.04.181.184.2l13.022,1.748c.112.015.211-.027.225-.1l.229-1.088c.016-.076-.075-.153-.2-.169L144.4,222.515A.221.221,0,0,0,144.184,222.58Z" transform="translate(-143.492 -222.512)" fill="#407bff"/>
            <path id="Trazado_1960" data-name="Trazado 1960" d="M144.184,222.58l-.677,1.028c-.052.08.04.181.184.2l13.022,1.748c.112.015.211-.027.225-.1l.229-1.088c.016-.076-.075-.153-.2-.169L144.4,222.515A.221.221,0,0,0,144.184,222.58Z" transform="translate(-143.492 -222.512)" opacity="0.5"/>
          </g>
          <path id="Trazado_1961" data-name="Trazado 1961" d="M148.643,224.335l-.337-.045c-.067-.009-.115-.05-.106-.092l.31-1.412c.009-.041.071-.068.138-.059l.337.045c.067.009.114.05.106.092l-.31,1.412C148.773,224.318,148.71,224.344,148.643,224.335Z" transform="translate(-127.411 -191.168)" fill="#263238"/>
          <path id="Trazado_1962" data-name="Trazado 1962" d="M171.025,227.391l-.337-.045c-.067-.009-.114-.05-.105-.092l.31-1.412c.009-.041.071-.068.138-.059l.337.045c.067.009.114.05.105.092l-.31,1.412C171.155,227.373,171.092,227.4,171.025,227.391Z" transform="translate(-141.288 -193.062)" fill="#263238"/>
        </g>
      </g>
    </g>
  </g>
</svg>
